<svg width="923" height="800" viewBox="0 0 923 800" fill="none" xmlns="http://www.w3.org/2000/svg">
<path d="M855.417 281.02V224.267L799.244 195.891L742.772 224.267V281.02L799.244 309.396L855.417 281.02Z" fill="#151A1F"/>
<path d="M801.634 252.644H796.853V309.396H801.634V252.644Z" fill="white"/>
<path d="M799.244 254.987L741.576 226.09L743.967 222.445L799.244 250.301L854.52 222.445L856.612 226.09L799.244 254.987Z" fill="white"/>
<path d="M799.244 311.739L740.381 282.321V222.966L799.244 193.548L858.106 222.966V282.061L799.244 311.479V311.739ZM745.162 279.718L799.244 306.793L853.325 279.718V225.309L799.244 198.234L745.162 225.309V279.718Z" fill="white"/>
<path d="M761.211 259.341L682.547 298.911C676.974 301.715 675.064 307.924 678.282 312.78L678.431 313.006C681.649 317.862 688.776 319.526 694.349 316.722L773.013 277.152C778.587 274.348 780.496 268.139 777.279 263.283L777.129 263.057C773.911 258.201 766.784 256.537 761.211 259.341Z" fill="white"/>
<path d="M747.553 335.429V278.677L691.081 250.301L634.609 278.677V335.429L691.081 363.805L747.553 335.429Z" fill="#0E1114"/>
<path d="M693.471 307.053H688.69V363.805H693.471V307.053Z" fill="white"/>
<path d="M691.081 309.396L633.414 280.5L635.804 276.855L691.081 304.71L746.357 276.855L748.449 280.5L691.081 309.396Z" fill="white"/>
<path d="M691.081 366.149L632.218 336.731V277.375L691.081 247.958L749.943 277.375V336.471L691.081 365.888V366.149ZM636.999 334.128L691.081 361.202L745.162 334.128V279.718L691.081 252.644L636.999 279.718V334.128Z" fill="white"/>
<path d="M503.737 224.268L520.171 216.979L694.068 305.491V474.186L678.83 481.475L503.737 396.868V224.268Z" fill="white"/>
<path d="M504.237 397.854V227.163L677.434 314.65V480.682L504.237 397.854Z" fill="#151A1F" stroke="#F3F5F7"/>
<path d="M616.98 472.103V341.416L487.005 276.073L357.328 341.416V472.103L487.005 537.446L616.98 472.103Z" fill="#151A1F"/>
<path d="M492.383 406.76H481.626V537.446H492.383V406.76Z" fill="white"/>
<path d="M487.005 411.967L354.639 345.322L360.017 337.251L487.005 401.293L614.291 337.251L619.669 345.322L487.005 411.967Z" fill="white"/>
<path d="M487.005 542.653L351.651 474.706V338.553L487.005 270.606L622.358 338.553V474.706L487.005 542.653ZM362.408 469.239L487.005 531.979L611.601 469.239V344.02L487.005 281.28L362.408 344.02V469.239Z" fill="white"/>
<path d="M445.174 330.743V331.004V330.483C445.174 330.483 445.174 330.223 445.174 329.962C445.174 329.442 445.174 329.181 445.472 328.661C445.472 329.181 445.174 329.702 445.472 330.483L445.174 330.743Z" fill="white"/>
<path d="M495.072 350.007C495.072 350.528 495.072 351.049 494.773 351.569C494.773 352.35 494.176 353.131 493.578 353.652C493.578 353.652 493.279 353.912 492.98 354.173C491.785 355.995 489.992 357.557 488.2 359.119C487.602 359.64 487.303 359.64 486.108 359.64C484.017 359.64 481.925 359.119 480.132 358.598C478.041 358.078 476.248 357.557 474.455 356.776C473.858 356.776 473.559 356.516 472.961 356.255C472.961 356.255 472.961 356.255 472.364 356.255C471.168 355.995 469.973 355.474 468.479 355.214L457.723 352.09C457.723 352.09 457.424 352.09 457.125 352.09C457.125 352.09 455.93 351.569 455.332 351.569C454.137 351.309 452.942 350.788 452.046 350.528C452.046 350.528 451.448 350.528 451.149 350.268C449.954 349.747 449.058 349.226 448.46 348.706C448.46 348.706 448.161 348.446 447.863 348.185C447.863 348.185 447.564 347.665 447.265 347.665C447.265 347.665 446.966 347.144 446.667 346.884C446.667 346.623 446.369 346.103 446.07 345.582C446.07 345.061 446.07 344.801 446.07 344.28C446.07 344.28 446.07 343.76 446.07 343.499C446.07 343.239 446.07 342.979 446.07 342.718V340.636C446.07 337.251 446.07 333.867 446.07 330.222V329.962C446.07 329.441 446.07 328.921 446.07 328.14C446.07 328.14 446.07 327.879 446.07 327.619C446.07 327.619 446.07 327.359 446.07 327.098C446.07 327.098 446.07 326.838 446.369 326.578C446.369 326.578 446.667 326.317 446.966 326.057C446.966 326.057 447.265 325.797 447.564 325.536C447.564 325.536 447.863 325.536 448.161 325.276C449.357 324.495 450.552 323.974 452.344 323.454C454.137 322.933 455.93 322.412 457.723 321.892C457.723 321.892 458.022 321.892 458.32 321.892H458.918C460.412 321.371 462.205 321.111 463.699 320.59C463.699 320.59 463.997 320.59 464.296 320.59C464.296 320.59 464.595 320.59 464.894 320.59C465.79 320.59 466.985 320.069 467.882 319.809C468.181 319.809 468.479 319.809 468.778 319.549C468.778 319.549 469.077 319.549 469.376 319.549C470.571 319.549 471.467 319.028 472.662 318.768C472.662 318.768 472.662 318.768 472.961 318.768C472.961 318.768 472.961 318.768 473.26 318.768C474.455 318.507 475.65 318.247 476.846 317.726C476.846 317.726 477.144 317.726 477.443 317.726C478.937 317.206 480.431 316.945 482.224 316.685H482.821C483.12 316.685 483.718 316.685 484.017 316.685C484.017 316.945 483.419 317.206 483.12 317.466C482.224 318.247 481.327 319.028 480.431 320.069C480.132 320.33 479.833 320.59 479.535 321.111C478.937 321.892 478.34 322.412 478.041 323.193C477.443 323.714 477.144 324.495 477.144 325.276C476.846 325.797 476.846 326.578 476.547 327.098C476.547 327.619 476.547 328.14 476.547 328.66C476.547 329.181 476.547 329.702 476.547 330.222C476.547 330.222 476.547 330.743 476.547 331.003C476.846 331.784 477.443 332.826 478.041 333.607C478.937 334.908 480.132 335.95 481.626 336.991C481.925 337.251 482.523 337.512 482.821 337.772C484.017 338.553 485.809 339.334 487.005 340.115C489.395 341.417 491.188 342.979 492.383 344.801C492.98 345.582 493.279 346.363 493.578 347.144C493.578 347.925 493.877 348.966 493.877 349.747C493.877 349.747 493.877 350.007 493.877 350.268L495.072 350.007Z" fill="white"/>
<path d="M485.809 362.243C485.809 362.243 485.511 362.243 485.212 362.243C482.821 362.243 480.73 361.723 478.638 361.202C477.144 360.681 475.949 360.421 474.455 359.9L472.662 359.38H472.065C471.766 359.38 471.168 359.38 471.168 359.119C470.272 359.119 469.675 358.599 468.778 358.338L456.826 354.694C456.826 354.694 456.229 354.694 455.93 354.694C455.631 354.694 455.332 354.694 454.735 354.433H454.137C454.137 354.433 451.747 353.652 450.851 353.132C450.552 353.132 450.253 352.871 449.954 352.611C448.759 352.09 447.863 351.57 446.966 350.789C446.966 350.789 446.667 350.528 446.369 350.268C446.369 350.268 445.771 349.747 445.771 349.487C445.771 349.487 445.472 348.966 445.173 348.966C445.173 348.966 444.576 347.925 444.576 347.404C444.576 346.884 444.277 346.363 444.277 345.842C444.277 345.842 444.277 345.322 444.277 345.061C444.277 344.801 444.277 344.541 444.277 344.28V342.458C444.277 342.458 444.277 342.458 444.277 342.198C444.277 338.813 444.277 335.429 444.277 331.785C444.277 331.785 444.277 331.524 444.277 331.264C444.277 330.483 444.277 329.962 444.576 329.181C444.576 329.181 444.576 328.661 444.875 328.4C444.875 328.4 444.875 328.14 444.875 327.88L446.369 328.4L444.875 327.619C444.875 327.619 444.875 327.619 444.875 327.359C444.875 327.359 444.875 327.099 445.472 326.838C445.472 326.838 445.771 326.318 446.07 326.318C446.07 326.318 446.07 326.318 446.667 326.057C446.667 326.057 446.966 325.537 447.265 325.276C448.46 324.495 449.954 323.714 452.046 323.194C453.241 322.933 454.436 322.413 455.631 322.152C456.229 322.152 456.826 321.892 457.424 321.632C457.723 321.632 458.022 321.371 458.619 321.371L463.4 320.07C463.4 320.07 463.997 319.809 464.595 319.809C465.193 319.809 465.79 319.549 466.388 319.289H467.583C467.583 319.289 467.583 319.028 467.882 318.768C467.882 318.768 468.479 318.768 468.778 318.508C469.376 318.508 470.272 318.247 470.87 317.987H471.766C471.766 317.987 472.364 317.727 472.662 317.987H473.858C473.858 317.987 475.053 317.206 475.949 317.206C475.949 317.206 476.547 316.946 476.846 316.946C478.34 316.425 479.834 316.165 481.626 315.904C481.925 315.904 482.224 315.904 482.523 315.904C482.523 315.904 482.821 315.904 483.12 315.904C483.12 315.904 483.718 315.904 484.017 315.904C484.614 315.904 485.212 316.165 485.511 316.685C485.511 317.206 485.511 317.727 485.511 318.247C485.511 318.508 484.913 318.768 484.913 319.028C484.913 319.028 484.913 319.289 484.614 319.549C483.718 320.33 482.821 321.111 482.224 321.892C481.925 322.152 481.626 322.413 481.626 322.673C481.029 323.194 480.73 323.975 480.431 324.495C480.431 324.495 480.431 325.016 479.834 325.016C479.834 325.276 479.535 325.537 479.236 326.057C479.236 326.057 479.236 326.578 479.236 326.838C479.236 327.359 478.937 327.619 478.937 328.4C478.937 328.4 478.937 328.4 478.937 328.661C478.937 328.661 478.937 329.181 478.937 329.442V329.962C478.937 330.223 478.937 330.743 478.937 331.264V331.785C478.937 332.566 479.535 333.347 480.132 334.128C481.029 335.169 481.925 336.21 483.419 337.251C483.718 337.251 484.315 337.772 484.614 338.032C485.212 338.553 486.108 338.813 486.706 339.334C487.303 339.594 488.2 340.115 488.797 340.375C491.486 341.937 493.279 343.76 494.474 345.322C495.072 346.103 495.371 347.144 495.968 347.925C495.968 348.966 496.267 349.747 496.267 351.049C496.267 351.049 496.267 351.309 496.267 351.57C496.267 351.83 496.267 352.09 495.968 352.351C495.968 352.611 495.968 353.132 495.67 353.392V353.913C495.67 354.173 495.67 354.433 495.072 354.694C495.072 355.214 494.474 355.995 493.877 356.776C493.877 357.037 493.578 357.557 493.279 357.557C492.084 359.119 490.291 360.942 488.2 362.764C487.602 363.285 486.706 363.545 485.511 363.545L485.809 362.243ZM472.662 356.516C472.662 356.516 473.559 356.516 473.858 356.776L475.65 357.297C475.65 357.297 478.34 358.078 479.834 358.599C481.327 359.119 483.419 359.38 485.511 359.38C486.108 359.38 486.108 359.38 486.108 359.38C488.2 357.818 489.694 356.256 490.59 354.694C490.59 354.694 490.59 354.694 490.59 354.433C490.889 353.652 491.486 353.132 491.486 352.611C491.486 352.611 491.486 351.57 491.785 351.309C491.785 351.309 491.785 351.309 491.785 351.049C491.785 351.049 491.785 351.049 491.785 350.789V350.268C491.785 349.487 491.785 348.966 491.785 348.185C491.785 347.665 491.188 346.884 490.889 346.103C489.993 344.541 488.2 343.239 486.108 341.937C485.511 341.677 484.913 341.156 484.315 340.896C483.419 340.375 482.821 340.115 481.925 339.594C481.327 339.334 481.029 339.074 480.431 338.813C478.937 337.772 477.443 336.47 476.547 335.169C475.65 334.128 475.352 333.086 475.053 332.305C475.053 332.305 475.053 332.045 475.053 331.785C475.053 331.785 474.754 330.223 475.053 329.702C475.053 329.702 475.053 328.4 475.053 327.88C475.053 327.099 475.053 326.578 475.352 326.057C475.352 326.057 475.352 325.797 475.352 325.537C475.352 324.756 475.949 323.975 476.547 322.933C476.846 322.152 477.443 321.632 478.041 320.851C478.041 320.59 478.638 320.07 478.937 319.809C478.937 319.809 478.937 319.549 479.236 319.289C478.34 319.289 477.443 319.809 476.846 319.809C476.846 319.809 476.846 319.809 476.248 319.809C476.248 319.809 476.248 319.809 475.65 319.809C475.053 319.809 474.156 320.07 473.559 320.33H472.364C472.364 320.33 472.364 320.59 472.364 320.851C472.364 320.851 472.065 320.851 471.766 320.851H470.87C470.87 320.851 469.376 321.371 468.778 321.632C468.778 321.632 468.778 321.632 468.479 321.632H467.882H466.388C466.388 321.632 465.193 322.413 464.296 322.413C464.296 322.413 464.296 322.413 463.699 322.413C463.699 322.413 463.699 322.413 463.4 322.413L458.619 323.714C458.619 323.714 458.32 323.714 458.022 323.714H457.424C456.826 323.714 456.229 323.975 455.332 324.235C454.137 324.495 452.942 324.756 452.046 325.276C450.552 325.797 449.357 326.318 448.161 326.838C448.161 326.838 448.161 326.838 447.863 327.099C447.863 327.099 447.863 327.359 447.564 327.619C447.564 327.619 447.265 327.88 447.265 328.14C447.265 328.14 447.265 328.14 446.966 328.4V328.921V329.181C446.966 329.442 446.966 329.962 446.966 330.483C446.966 330.743 446.966 331.264 446.966 331.524C446.966 334.909 446.966 338.032 446.966 341.417V343.499C446.966 343.499 446.966 344.02 446.966 344.28C446.966 344.541 446.966 344.801 446.966 344.801C446.966 345.061 446.966 345.322 446.966 345.582C446.966 345.842 446.966 346.103 447.265 346.363C447.265 346.363 447.265 346.623 447.564 346.884C447.564 346.884 447.863 347.144 448.161 347.404C448.161 347.404 448.161 347.404 448.46 347.665C449.058 348.185 449.954 348.706 450.851 348.966C450.851 348.966 451.149 348.966 451.448 349.227C452.345 349.487 453.54 350.008 454.436 350.268H455.034C455.034 350.268 455.93 350.789 456.229 350.789C456.528 350.789 456.826 350.789 456.826 350.789L469.077 354.433C469.077 354.433 470.571 354.954 471.467 355.214C471.467 355.214 471.467 355.214 471.766 355.214L472.662 356.516Z" fill="white"/>
<path d="M445.771 355.214C445.771 355.214 445.472 354.433 445.173 353.912C445.173 353.392 445.173 353.131 445.173 352.611V351.309C445.173 351.309 445.173 351.309 445.173 351.569C445.173 352.09 445.173 352.35 445.173 352.871C445.173 353.652 445.173 354.433 445.771 355.214Z" fill="white"/>
<path d="M529.134 346.363V354.173C529.134 354.694 529.134 354.954 528.836 355.475C528.537 356.256 527.939 357.037 527.043 357.818C526.445 358.338 525.848 358.859 524.951 359.38C524.652 359.38 524.055 359.9 523.756 360.161C522.561 360.681 520.768 361.202 519.274 361.723C518.378 361.983 517.481 362.243 516.585 362.503C515.39 363.024 514.195 363.285 512.701 363.545C511.505 363.805 510.31 364.326 509.115 364.586C508.518 364.586 507.92 364.846 507.322 365.107C505.828 365.627 504.036 365.888 502.243 366.408C500.749 366.929 498.956 367.189 497.462 367.71C495.968 367.97 494.773 368.491 492.98 368.751C491.486 368.751 489.694 369.272 488.2 369.272C485.809 369.272 483.718 369.272 481.327 368.751C479.535 368.491 477.742 367.97 475.949 367.45C474.455 367.189 473.26 366.669 472.065 366.148C472.065 366.148 472.065 366.148 471.766 366.148C470.571 365.888 469.674 365.627 468.479 365.107C465.79 364.326 463.101 363.545 460.412 362.764C458.918 362.243 457.723 361.983 456.229 361.462C454.436 360.942 452.942 360.421 451.448 359.9C451.448 359.9 450.85 359.9 450.552 359.64C449.356 359.119 448.161 358.338 447.564 357.818C447.564 357.818 447.265 357.557 446.966 357.297C446.966 357.297 446.667 356.776 446.369 356.776C446.369 356.776 446.07 356.256 445.771 355.995C445.472 355.214 445.173 354.433 445.173 353.652C445.173 353.132 445.173 352.871 445.173 352.351C445.173 352.351 445.173 352.351 445.173 352.09C445.173 348.966 445.173 348.966 445.173 345.842C445.173 346.363 445.173 346.623 445.173 347.144C445.173 347.665 445.472 347.925 445.771 348.446C445.771 348.446 446.07 348.966 446.369 349.227C446.369 349.227 446.667 349.747 446.966 349.747C446.966 349.747 447.265 350.008 447.564 350.268C448.46 351.049 449.356 351.57 450.552 352.09C450.552 352.09 451.149 352.09 451.448 352.351C452.942 352.871 454.735 353.392 456.229 353.913C457.424 354.433 458.918 354.694 460.412 355.214C463.101 355.995 465.79 356.776 468.479 357.557C469.674 357.818 470.571 358.078 471.766 358.599C471.766 358.599 471.766 358.599 472.065 358.599C473.26 359.119 474.754 359.38 475.949 359.9C477.742 360.421 479.236 360.942 481.327 361.202C483.419 361.723 485.809 361.723 488.2 361.723C489.992 361.723 491.486 361.723 492.98 361.202C493.578 361.202 494.474 361.202 495.072 360.681C495.968 360.681 496.566 360.161 497.462 360.161C498.956 359.64 500.749 359.38 502.243 358.859C504.036 358.338 505.53 358.078 507.322 357.557C507.92 357.557 508.518 357.297 509.115 357.037C510.31 356.776 511.505 356.516 512.701 355.995C513.896 355.735 515.39 355.214 516.585 354.954C517.481 354.954 518.378 354.433 519.274 354.173C520.768 353.652 522.561 353.392 523.756 352.611C524.354 352.611 524.652 352.09 524.951 351.83C525.848 351.309 526.445 350.789 527.043 350.268C527.939 349.487 528.238 348.966 528.836 347.925C528.836 347.404 529.134 347.144 529.134 346.623V346.363Z" fill="white"/>
<path d="M487.901 370.313C485.212 370.313 483.12 370.313 481.029 369.793C479.535 369.533 478.041 369.012 476.547 368.752H475.65C475.65 368.752 472.961 367.71 471.766 367.19C471.766 367.19 471.766 367.19 471.168 367.19C470.272 367.19 469.674 366.669 468.778 366.409L465.491 365.367C463.699 364.847 461.607 364.326 459.814 363.805H458.619C458.619 363.805 456.528 362.764 455.631 362.504H455.332C453.838 361.983 452.344 361.462 450.851 360.942C450.552 360.942 450.253 360.681 449.954 360.421C448.46 359.64 447.564 359.119 446.667 358.338L446.07 357.818C446.07 357.818 445.472 357.297 445.173 357.037C445.173 356.776 444.875 356.516 444.576 356.256V355.995C443.978 354.954 443.679 354.173 443.679 353.132V352.611C443.679 352.611 443.679 352.611 443.679 352.351C443.679 352.351 443.679 352.09 443.679 351.83C443.679 349.747 443.679 347.665 443.679 345.582C443.679 345.582 444.277 344.02 445.173 344.02C445.173 344.02 446.667 344.541 446.667 345.322C446.667 345.322 446.667 345.842 446.667 346.103C446.667 346.363 446.667 346.623 446.966 346.884C446.966 346.884 446.966 346.884 446.966 347.144C446.966 347.144 446.966 347.144 447.265 347.404C447.265 347.404 447.564 347.925 447.863 347.925C447.863 347.925 447.863 347.925 448.161 348.185C448.759 348.706 449.954 349.227 450.851 350.008C450.851 350.008 451.149 350.008 451.448 350.008C452.643 350.528 454.137 351.049 455.631 351.309H456.229C456.229 351.309 458.022 352.09 458.918 352.351C459.516 352.351 459.814 352.351 460.412 352.871C462.205 353.392 463.997 353.913 465.79 354.433L468.479 355.214C468.479 355.214 470.272 355.735 471.467 355.995C471.467 355.995 471.467 355.995 471.766 355.995C472.961 356.516 474.455 356.776 475.65 357.297H476.547C476.547 357.297 479.236 358.338 480.73 358.599C482.821 358.859 484.913 359.119 487.303 359.119C488.797 359.119 490.291 359.119 491.785 358.599C492.383 358.599 492.98 358.599 493.578 358.078C494.474 358.078 495.072 357.557 495.968 357.557L500.749 356.256C502.542 355.735 504.036 355.475 505.53 354.954C506.127 354.954 506.725 354.694 507.322 354.433C508.518 354.173 509.713 353.913 510.908 353.392H512.103C512.103 353.392 513.896 352.611 514.792 352.351C515.689 352.351 516.585 351.83 517.481 351.57C519.274 351.049 520.469 350.789 521.665 350.268C521.665 350.268 522.262 349.747 522.561 349.747C523.457 349.227 524.055 348.966 524.354 348.446C524.951 347.925 525.549 347.404 525.848 346.623C525.848 346.363 525.848 346.103 525.848 345.842C525.848 345.061 526.445 344.541 527.342 344.541C527.64 344.541 528.238 344.541 528.537 344.801C528.836 345.061 529.134 345.582 529.134 345.842V353.652V354.173C529.134 354.694 529.134 354.954 528.836 355.475C528.537 356.516 527.64 357.297 526.744 358.078C526.146 358.599 525.25 359.119 524.354 359.9C524.055 359.9 523.457 360.421 522.86 360.681C521.366 361.462 519.573 361.983 518.079 362.243C517.183 362.504 516.286 362.764 515.39 363.024C514.493 363.285 513.597 363.545 512.402 363.805H511.506C511.506 363.805 509.115 364.847 507.92 365.107C507.322 365.107 506.725 365.367 506.127 365.628C506.127 365.628 503.438 366.409 501.944 366.929H501.347C501.347 366.929 498.956 367.71 497.761 368.231L496.267 368.752C496.267 368.752 493.578 369.533 492.084 369.793C490.59 370.053 488.797 370.313 487.005 370.313H487.901ZM472.662 364.586C473.858 365.107 475.352 365.367 476.547 365.888H477.443C477.443 365.888 480.132 366.929 481.626 367.19C483.718 367.45 485.809 367.71 488.2 367.71C489.694 367.71 491.188 367.71 492.682 367.19C493.877 367.19 495.072 366.669 496.267 366.409L497.761 365.888C497.761 365.888 500.151 365.107 501.347 364.847H501.944C501.944 364.847 504.633 363.805 506.127 363.545C506.127 363.545 507.024 363.285 507.621 363.024C508.816 362.764 510.012 362.504 511.207 361.983H512.103C512.103 361.983 513.896 361.202 514.792 360.942C515.39 360.942 516.585 360.421 517.481 360.161C518.975 359.9 520.469 359.38 521.665 358.859C522.262 358.859 522.561 358.599 522.86 358.338C523.756 357.818 524.354 357.297 524.951 357.037C525.549 356.516 526.146 355.995 526.445 355.214C526.445 354.954 526.445 354.694 526.445 354.433C526.445 354.433 526.445 354.173 526.445 353.913V351.83C526.445 351.83 525.25 352.611 524.652 353.132C524.354 353.392 523.756 353.652 523.159 353.913C523.159 353.913 520.171 354.954 518.378 355.475C517.481 355.735 516.585 355.995 515.689 356.256C514.792 356.256 513.896 356.776 513 357.037H512.103C512.103 357.037 509.713 358.078 508.518 358.338C507.92 358.338 507.322 358.599 506.725 358.859C505.231 359.38 503.438 359.64 501.944 360.161L497.163 361.462C497.163 361.462 495.67 361.983 494.773 361.983C494.176 361.983 493.279 362.243 492.682 362.504C490.889 362.764 489.395 363.024 487.602 363.024C484.913 363.024 482.523 363.024 480.431 362.504C478.937 362.243 477.443 361.723 475.949 361.462H475.053C475.053 361.462 472.364 360.421 471.168 359.9C471.168 359.9 471.168 359.9 470.571 359.9C469.674 359.9 468.778 359.38 467.583 359.119L464.894 358.338C463.101 357.818 461.308 357.297 459.516 356.776C459.217 356.776 458.619 356.776 458.32 356.516C457.424 356.256 456.528 355.995 455.332 355.735H455.034C453.54 355.214 452.046 354.694 450.552 354.173C450.253 354.173 449.954 354.173 449.655 353.913C448.161 353.392 447.265 352.611 446.369 351.83C446.369 351.83 446.369 352.09 446.369 352.351C446.369 352.351 446.369 352.871 446.369 353.132V353.652C446.369 353.652 446.369 353.913 446.369 354.173C446.369 354.694 446.369 355.214 446.966 355.995C446.966 355.995 446.966 356.516 447.265 356.776C447.265 356.776 447.564 357.037 447.863 357.297H448.46C448.46 357.297 449.954 358.859 451.149 359.38C451.149 359.38 451.448 359.38 451.747 359.38C452.942 359.9 454.436 360.421 455.93 360.681H456.528C456.528 360.681 458.619 361.462 459.516 361.723H460.711C462.503 362.764 464.595 363.285 466.388 363.805L469.674 364.847C469.674 364.847 471.168 365.367 472.065 365.628C472.065 365.628 472.065 365.628 472.364 365.628L472.662 364.586Z" fill="white"/>
<path d="M487.901 362.503C485.51 362.503 483.12 362.503 481.029 361.983C479.535 361.722 478.041 361.202 476.547 360.941H475.65C475.65 360.941 472.961 359.9 471.766 359.379C471.766 359.379 471.766 359.379 471.168 359.379C470.272 359.379 469.376 358.859 468.18 358.598L465.491 357.817C463.699 357.297 461.906 356.776 460.113 356.256C459.814 356.256 459.217 356.256 458.918 355.995C458.021 355.735 457.125 355.475 455.93 355.214H455.631C454.137 354.694 452.643 354.173 451.149 353.652C450.85 353.652 450.552 353.652 450.253 353.392C448.759 352.611 447.564 352.09 446.667 351.309C446.07 350.789 446.07 350.008 446.667 349.487C447.265 348.966 448.161 348.966 448.759 349.487C449.356 350.008 450.253 350.528 451.149 350.789C451.149 350.789 451.448 350.789 451.747 351.049C452.643 351.309 453.838 351.83 454.735 352.09H455.332C455.332 352.09 456.229 352.611 456.527 352.611C456.826 352.611 457.125 352.611 457.125 352.611L469.376 356.256C469.376 356.256 470.87 356.776 471.766 357.037C471.766 357.037 471.766 357.037 472.065 357.037C472.662 357.037 472.961 357.036 473.26 357.297L475.053 357.817C475.053 357.817 477.742 358.598 479.236 359.119C480.73 359.64 482.821 359.9 484.913 359.9C485.51 359.9 485.51 359.9 485.51 359.9C487.602 358.338 489.096 356.776 489.992 355.214C489.992 355.214 489.992 355.214 489.992 354.954C490.291 354.173 490.889 353.652 490.889 353.132C490.889 353.132 490.889 352.09 491.188 351.83C491.188 351.83 491.188 351.83 491.188 351.57C491.188 351.57 491.188 351.57 491.188 351.309V350.789C491.188 350.008 491.188 349.487 491.188 348.706C491.188 348.185 490.59 347.404 490.291 346.623C489.395 345.061 487.602 343.76 485.51 342.458C484.913 342.198 484.315 341.677 483.718 341.417C482.821 340.896 482.224 340.636 481.327 340.115C480.73 339.855 480.431 339.594 479.833 339.334C478.339 338.293 476.845 336.991 475.949 335.689C475.053 334.648 474.754 333.607 474.455 332.826C474.455 332.826 474.455 332.565 474.455 332.305C474.455 332.305 474.156 330.743 474.455 330.222C474.455 330.222 474.455 328.921 474.455 328.4C474.455 327.619 474.455 327.098 474.754 326.578C474.754 326.578 474.754 326.317 474.754 326.057C474.754 325.276 475.351 324.495 475.949 323.454C476.248 322.673 476.845 322.152 477.443 321.371C477.443 321.111 478.041 320.59 478.339 320.33C478.339 320.33 478.339 320.069 478.638 319.809C477.742 319.809 476.845 320.33 476.248 320.33C476.248 320.33 476.248 320.33 475.65 320.33C475.65 320.33 475.65 320.33 475.053 320.33C474.455 320.33 473.559 320.59 472.961 320.85H471.766C471.766 320.85 471.766 321.111 471.766 321.371C471.766 321.371 471.467 321.371 471.168 321.371H470.272C470.272 321.371 468.778 321.892 468.18 322.152C468.18 322.152 468.18 322.152 467.882 322.152H467.284H465.79C465.79 322.152 464.595 322.933 463.699 322.933C463.699 322.933 463.699 322.933 463.101 322.933C463.101 322.933 463.101 322.933 462.802 322.933L458.021 324.235C458.021 324.235 457.723 324.235 457.424 324.235H456.826C456.229 324.235 455.631 324.495 454.735 324.755C453.54 325.016 452.344 325.276 451.448 325.797C449.954 326.317 448.759 326.838 447.564 327.359C446.966 327.879 446.07 327.619 445.472 327.359C444.875 326.838 444.875 326.057 445.472 325.536C445.472 325.536 445.771 325.276 446.07 325.016C447.862 323.974 449.954 322.933 452.942 322.152C454.436 321.892 455.631 321.371 457.125 321.111C459.217 320.59 461.009 320.069 463.101 319.549L467.284 318.247C467.284 318.247 469.376 317.726 470.571 317.466L472.065 316.945C472.065 316.945 474.156 316.425 475.053 316.164C476.845 315.644 478.937 315.123 481.327 314.863C482.224 314.863 483.12 314.863 484.315 314.863C484.315 314.863 484.614 314.863 484.913 314.863H487.303C487.303 314.863 487.602 314.863 487.901 314.863C488.498 314.863 489.096 314.863 489.694 314.863C491.188 314.863 492.98 315.383 494.474 315.644C495.371 315.644 496.566 316.164 497.462 316.425C498.06 316.425 498.359 316.685 498.956 316.945C499.853 316.945 500.45 317.466 501.346 317.726H502.243C506.127 319.028 510.012 320.33 513.896 321.371C514.493 321.371 515.39 321.892 515.987 322.152C517.481 322.673 518.677 322.933 520.17 323.454C525.549 325.276 528.537 327.619 529.433 330.743C529.433 330.743 529.433 331.264 529.433 331.524V346.623V347.144C529.433 347.665 529.433 347.925 529.134 348.446C528.836 349.487 527.939 350.268 527.043 351.049C526.445 351.57 525.549 352.09 524.652 352.611C524.354 352.871 523.756 353.132 523.158 353.392C523.158 353.392 520.17 354.433 518.378 354.954C517.481 355.214 516.585 355.475 515.689 355.735C514.792 355.735 513.896 356.256 512.999 356.516H512.103C512.103 356.516 509.713 357.557 508.518 357.817C507.92 357.817 507.322 358.078 506.725 358.338C505.231 358.859 503.438 359.119 501.944 359.64L497.163 360.941C497.163 360.941 495.669 361.462 494.773 361.462C494.175 361.462 493.279 361.722 492.681 361.983C490.889 362.243 489.395 362.503 487.602 362.503H487.901ZM493.578 356.256C493.578 356.256 491.785 358.338 490.59 359.379C491.188 359.379 491.785 359.379 492.681 359.379C493.279 359.379 493.877 359.379 494.474 358.859C495.371 358.859 495.968 358.338 496.865 358.338L501.645 357.037C503.438 356.516 504.932 356.256 506.426 355.735C507.024 355.735 507.621 355.475 508.219 355.214C509.414 354.954 510.609 354.694 511.804 354.173H512.999C512.999 354.173 514.792 353.392 515.689 353.132C516.585 353.132 517.481 352.611 518.378 352.351C520.17 351.83 521.366 351.57 522.561 351.049C522.561 351.049 523.158 350.528 523.457 350.528C524.354 350.008 524.951 349.747 525.25 349.227C525.848 348.706 526.445 348.185 526.744 347.404C526.744 347.144 526.744 346.884 526.744 346.623C526.744 346.623 526.744 346.363 526.744 346.103V331.784C526.744 331.784 526.744 331.784 526.744 331.524C526.146 329.181 524.055 327.359 519.573 325.797C518.378 325.276 516.884 325.016 515.689 324.495C514.792 324.495 514.195 323.974 513.298 323.714C509.414 322.673 505.53 321.371 501.645 320.33H500.749C500.749 320.33 499.255 319.549 498.359 319.288C497.761 319.288 497.163 319.028 496.865 318.768C495.968 318.507 494.773 318.247 493.877 317.987C492.383 317.466 491.188 317.466 489.694 317.206C489.096 317.206 488.498 317.206 487.602 317.206C487.602 317.206 487.602 317.206 487.303 317.206H485.51C485.51 317.206 485.51 317.466 485.212 317.726C484.315 318.507 483.419 319.288 482.821 320.069C482.523 320.33 482.224 320.59 482.224 320.85C481.626 321.371 481.327 322.152 481.029 322.673C481.029 322.673 481.029 323.193 480.431 323.193C480.431 323.454 480.132 323.714 479.833 324.235C479.833 324.235 479.833 324.755 479.833 325.016C479.833 325.536 479.535 325.797 479.535 326.578C479.535 326.578 479.535 326.578 479.535 326.838C479.535 326.838 479.535 327.359 479.535 327.619V328.14C479.535 328.4 479.535 328.921 479.535 329.441V329.962C479.535 330.743 480.132 331.524 480.73 332.305C481.626 333.346 482.523 334.388 484.016 335.429C484.315 335.429 484.913 335.95 485.212 336.21C485.809 336.731 486.706 336.991 487.303 337.512C487.901 337.772 488.797 338.293 489.395 338.553C492.084 340.115 493.877 341.937 495.072 343.499C495.669 344.28 495.968 345.322 496.566 346.103C496.566 347.144 496.865 347.925 496.865 349.227C496.865 349.227 496.865 349.487 496.865 349.747C496.865 350.008 496.865 350.268 496.566 350.528C496.566 350.789 496.566 351.309 496.566 351.57V352.09C496.566 352.351 496.566 352.611 495.968 352.871C495.968 353.392 495.371 354.173 494.773 354.954C494.773 355.214 494.474 355.735 494.175 355.735L493.578 356.256Z" fill="white"/>
<path d="M249.665 529.322V357.362L265.584 350.3L438.996 438.306V606.639L424.259 613.689L249.665 529.322Z" fill="#F3F5F7" stroke="#F3F5F7"/>
<path d="M249.665 530.623V359.931L422.861 447.159V613.451L249.665 530.623Z" fill="#151A1F" stroke="#F3F5F7"/>
<path d="M368.085 558.533C345.078 558.533 315.796 542.653 293.386 516.62C264.105 481.735 258.427 441.644 281.136 427.066C303.844 412.487 346.273 428.888 375.554 463.772C404.836 498.657 410.513 538.748 387.805 553.326C382.128 556.971 375.256 558.533 367.786 558.533H368.085ZM301.454 423.942C294.581 423.942 288.008 425.504 282.929 428.888C261.415 442.685 267.092 481.475 295.478 515.058C323.863 548.901 364.798 565.041 386.311 551.244C407.824 537.446 402.147 498.657 373.762 465.074C352.249 439.562 323.564 423.942 301.454 423.942Z" fill="white"/>
<path d="M290.1 425.764L282.032 428.107L274.264 435.396L268.586 453.099L271.574 475.748L284.422 502.562L302.051 524.169L323.564 541.872L340.894 551.244L359.42 556.711H375.853L387.207 552.285L395.275 544.475C391.391 546.818 387.207 548.38 382.427 549.161C359.718 553.066 327.748 537.967 304.143 510.111C275.757 476.529 270.678 437.739 292.789 423.421" fill="white"/>
<path d="M316.393 618.67V605.133L260.22 576.757L203.748 605.133V618.67L260.22 647.046L316.393 618.67Z" fill="#151A1F"/>
<path d="M262.611 633.509H257.83V647.046H262.611V633.509Z" fill="white"/>
<path d="M260.22 635.852L202.553 606.695L204.943 603.311L260.22 631.166L315.198 603.311L317.588 606.695L260.22 635.852Z" fill="white"/>
<path d="M260.22 649.389L201.358 619.971V604.091L260.22 574.674L319.083 604.091V619.971L260.22 649.389ZM259.623 633.509L314.302 606.434L260.22 579.36L206.139 606.434L259.623 633.509Z" fill="white"/>
<path d="M244.384 604.351L265.3 615.285L259.921 618.149L239.006 607.215L232.432 610.599L227.95 608.256L246.774 598.624L250.958 601.227L244.683 604.351H244.384Z" fill="white"/>
<path d="M247.671 597.843L253.647 594.979L265.3 597.583L260.818 591.595L266.794 588.731L272.172 598.103L292.789 602.008L286.813 604.872L273.068 601.748L278.745 608.777L272.77 611.641L265.897 601.227L247.97 598.103L247.671 597.843Z" fill="white"/>
<path d="M179.546 612.161V598.624L123.373 570.248L66.9009 598.624V612.161L123.373 640.538L179.546 612.161Z" fill="#0E1114"/>
<path d="M125.763 627H120.982V640.537H125.763V627Z" fill="white"/>
<path d="M123.373 629.343L65.7056 600.446L68.0959 596.802L123.373 624.657L178.351 596.802L180.741 600.446L123.373 629.343Z" fill="white"/>
<path d="M123.373 642.88L64.5105 613.463V597.582L123.373 568.165L182.235 597.582V613.463L123.373 642.88ZM122.775 627L177.454 599.925L123.373 572.851L69.2912 599.925L122.775 627Z" fill="white"/>
<path d="M107.537 598.103L128.452 609.037L123.074 611.901L102.158 600.967L95.5849 604.351L91.103 602.008L109.927 592.376L114.11 594.979L107.835 598.103H107.537Z" fill="white"/>
<path d="M110.823 591.595L116.799 588.731L128.452 591.335L123.97 585.347L129.946 582.483L135.325 591.855L155.941 595.76L149.965 598.624L136.221 595.5L141.898 602.529L135.922 605.393L129.05 594.979L111.122 591.855L110.823 591.595Z" fill="white"/>
<path d="M247.372 546.037V532.239L191.199 503.863L134.727 532.239V546.037L191.199 574.413L247.372 546.037Z" fill="#0E1114"/>
<path d="M193.589 560.615H188.809V574.152H193.589V560.615Z" fill="white"/>
<path d="M191.199 562.959L133.532 534.062L135.922 530.678L191.199 558.273L246.177 530.678L248.567 534.062L191.199 562.959Z" fill="white"/>
<path d="M191.199 576.756L132.337 547.339V531.458L191.199 502.041L250.061 531.458V547.339L191.199 576.756ZM190.601 560.876L245.281 533.801L191.199 506.727L137.117 533.801L190.601 560.876Z" fill="white"/>
<path d="M175.363 531.718L196.278 542.652L190.9 545.516L169.985 534.582L163.411 537.966L158.929 535.623L177.753 525.991L181.936 528.595L175.662 531.718H175.363Z" fill="white"/>
<path d="M178.65 525.21L184.626 522.347L196.278 524.95L191.797 518.962L197.772 516.099L203.151 525.471L223.767 529.376L217.792 532.239L204.047 529.115L209.724 536.144L203.748 539.008L196.876 528.595L178.948 525.471L178.65 525.21Z" fill="white"/>
<path d="M370.475 524.17V510.373L314.302 482.257L257.83 510.373V524.17L314.302 552.546L370.475 524.17Z" fill="#151A1F"/>
<path d="M316.692 538.748H311.912V552.285H316.692V538.748Z" fill="white"/>
<path d="M314.302 541.092L256.635 512.195L259.025 508.811L314.302 536.406L369.28 508.811L371.67 512.195L314.302 541.092Z" fill="white"/>
<path d="M314.302 554.889L255.44 525.472V509.591L314.302 480.174L373.164 509.591V525.472L314.302 554.889ZM313.704 539.009L368.384 511.934L314.302 484.86L260.22 511.934L313.704 539.009Z" fill="white"/>
<path d="M298.466 509.851L319.381 520.785L314.003 523.649L293.088 512.715L286.514 516.099L282.032 513.756L300.856 504.124L305.039 506.727L298.765 509.851H298.466Z" fill="white"/>
<path d="M301.753 503.343L307.729 500.479L319.381 503.083L314.9 497.095L320.875 494.231L326.254 503.603L346.87 507.508L340.895 510.372L327.15 507.248L332.827 514.277L326.851 517.141L319.979 506.727L302.051 503.603L301.753 503.343Z" fill="white"/>
</svg>
