<svg width="593" height="593" viewBox="0 0 593 593" fill="none" xmlns="http://www.w3.org/2000/svg">
<path fill-rule="evenodd" clip-rule="evenodd" d="M322.186 6.88433C305.58 -2.32871 285.384 -2.2925 268.811 6.97999L55.0275 126.593C37.7196 136.277 27 154.551 27 174.373V414.067C27 433.574 37.3843 451.607 54.2613 461.41L268.048 585.583C285.011 595.436 305.953 595.475 322.952 585.684L538.715 461.415C555.69 451.638 566.15 433.55 566.15 413.972V174.468C566.15 154.576 555.355 136.249 537.951 126.593L322.186 6.88433ZM279.967 36.1179L70.1203 153.528C62.5695 157.753 57.8929 165.725 57.8929 174.373V414.067C57.8929 422.577 62.4232 430.445 69.7861 434.721L283.572 558.895C288.748 561.9 294.771 562.813 300.462 561.629C300.619 561.347 300.776 561.065 300.934 560.783C320.883 525.014 348.386 475.699 346.851 417.924C345.112 352.477 318.727 323.012 292.38 293.589C266.484 264.671 240.625 235.793 238.234 172.834C236.281 121.398 262.34 66.5762 279.967 36.1179Z" fill="#F3F5F7"/>
</svg>
