<svg width="464" height="481" viewBox="0 0 464 481" fill="none" xmlns="http://www.w3.org/2000/svg">
<path d="M0 0H464V481H0V0Z" fill="#D9D9D9"/>
<path d="M406.297 89.1522L278.219 14.9825C264.615 7.13182 249.195 3 233.5 3C217.805 3 202.385 7.13182 188.781 14.9825L60.7192 89.1522C47.1402 97.0432 35.8636 108.37 28.0161 122.002C20.1687 135.633 16.0254 151.092 16 166.833V315.172C16.0271 330.913 20.1711 346.371 28.0184 360.002C35.8656 373.633 47.1413 384.961 60.7192 392.853L188.781 467.023C202.386 474.87 217.806 479 233.5 479C249.194 479 264.614 474.87 278.219 467.023L406.297 392.853C419.871 384.957 431.142 373.629 438.987 359.998C446.831 346.367 450.973 330.911 451 315.172V166.833C450.975 151.094 446.833 135.637 438.989 122.006C431.145 108.375 419.872 97.0466 406.297 89.1522ZM66.8661 382.152C55.1652 375.342 45.4497 365.574 38.69 353.82C31.9303 342.067 28.363 328.741 28.3439 315.172V166.833C28.3617 153.262 31.9285 139.933 38.6882 128.177C45.4478 116.421 55.1639 106.649 66.8661 99.8366L194.944 25.667C204.257 20.2884 214.589 16.9237 225.276 15.7889C211.226 37.8651 200.503 61.9012 193.454 87.1194C177.006 147.9 190.104 201.86 231.272 243.187C253.314 265.278 267.031 290.947 272.056 319.439C276.076 342.303 274.568 367.083 267.55 393.088C260.24 419.198 248.94 444.014 234.053 466.653C220.333 466.757 206.833 463.191 194.944 456.321L66.8661 382.152Z" fill="#151A1F"/>
</svg>
