<svg width="474" height="520" viewBox="0 0 474 520" fill="none" xmlns="http://www.w3.org/2000/svg">
<path d="M21.1111 136.755L231.142 17.4737L316.343 57.4985L311.984 389.585L258.089 497.771L231.142 505.697L21.1111 377.3V136.755Z" fill="#F3F5F7"/>
<path fill-rule="evenodd" clip-rule="evenodd" d="M258.865 9.94398C244.528 1.98938 227.09 2.02065 212.781 10.0266L28.1991 113.302C13.2554 121.663 4 137.441 4 154.555V361.508C4 378.35 12.9659 393.921 27.5376 402.384L212.122 509.596C226.769 518.104 244.849 518.137 259.527 509.683L445.818 402.388C460.474 393.947 469.505 378.329 469.505 361.426V154.637C469.505 137.462 460.185 121.638 445.158 113.301L258.865 9.94398ZM222.413 35.1844L41.2304 136.557C34.7109 140.205 30.6731 147.088 30.6731 154.555V361.508C30.6731 368.856 34.5846 375.649 40.9418 379.341L225.526 486.553C229.994 489.148 235.195 489.936 240.109 488.914C240.244 488.671 240.38 488.427 240.516 488.183C257.74 457.3 281.487 414.722 280.161 364.839C278.66 308.331 255.879 282.891 233.13 257.486C210.772 232.518 188.445 207.585 186.381 153.226C184.694 108.816 207.194 61.4823 222.413 35.1844Z" fill="#0E1114"/>
</svg>
