<svg width="104" height="112" viewBox="0 0 104 112" fill="none" xmlns="http://www.w3.org/2000/svg">
<path d="M92.4993 20.2711L62.1452 2.81941C58.921 0.972193 55.2665 0 51.5468 0C47.8272 0 44.1726 0.972193 40.9485 2.81941L10.5983 20.2711C7.38013 22.1278 4.7076 24.793 2.84778 28.0005C0.987967 31.2079 0.0060128 34.8452 0 38.5489V73.4523C0.0064122 77.1559 0.98854 80.7931 2.84832 84.0005C4.7081 87.2078 7.3804 89.8731 10.5983 91.7301L40.9485 109.182C44.1729 111.028 47.8273 112 51.5468 112C55.2663 112 58.9208 111.028 62.1452 109.182L92.4993 91.7301C95.7162 89.8723 98.3875 87.2067 100.247 83.9995C102.106 80.7922 103.087 77.1555 103.094 73.4523V38.5489C103.088 34.8457 102.106 31.2088 100.247 28.0014C98.388 24.7941 95.7164 22.1286 92.4993 20.2711ZM12.0551 89.2122C9.28203 87.61 6.97949 85.3114 5.37746 82.546C3.77544 79.7805 2.92999 76.6449 2.92546 73.4523V38.5489C2.92969 35.3557 3.77501 32.2195 5.37703 29.4533C6.97905 26.6872 9.28171 24.3879 12.0551 22.7851L42.4092 5.3334C44.6164 4.06787 47.0651 3.27616 49.5978 3.00914C46.268 8.20356 43.7267 13.8591 42.0559 19.7928C38.158 34.0941 41.262 46.7905 51.0189 56.5145C56.2426 61.7124 59.4936 67.7523 60.6844 74.4563C61.6371 79.8361 61.2798 85.6665 59.6166 91.7855C57.8842 97.929 55.2061 103.768 51.6778 109.095C48.4262 109.119 45.2268 108.28 42.4092 106.664L12.0551 89.2122Z" fill="#F3F5F7"/>
</svg>
