<svg width="160" height="28" viewBox="0 0 160 28" fill="none" xmlns="http://www.w3.org/2000/svg">
<path fill-rule="evenodd" clip-rule="evenodd" d="M11.171 0.322455C11.9366 -0.105906 12.8696 -0.107579 13.6367 0.318036L23.6044 5.8482C24.4084 6.29428 24.9071 7.14095 24.9071 8.05989V19.1243C24.9071 20.0287 24.4239 20.8643 23.6397 21.316L13.6721 27.0568C12.8868 27.5092 11.9194 27.5074 11.1357 27.0522L1.25939 21.3158C0.479724 20.8629 0 20.0298 0 19.1287V8.05551C0 7.13982 0.495215 6.29561 1.29479 5.84824L11.171 0.322455ZM1.99203 7.09255L11.6863 1.66854C10.872 3.07562 9.66814 5.60821 9.75838 7.98441C9.86884 10.8929 11.0635 12.227 12.2598 13.5629C13.4769 14.9222 14.6958 16.2834 14.7762 19.3069C14.8471 21.9759 13.5765 24.2541 12.6549 25.9065L12.6331 25.9456C12.3702 26.0003 12.092 25.9581 11.8529 25.8193L1.97659 20.0828C1.63645 19.8853 1.42716 19.5218 1.42716 19.1287V8.05551C1.42716 7.65602 1.64321 7.28772 1.99203 7.09255ZM51.7447 17.3394C51.7447 14.7379 50.3808 13.0456 47.4256 12.3131L41.6416 10.8734C40.5303 10.5703 40.2524 10.1409 40.2524 9.63576C40.2524 8.62544 41.1365 8.19606 42.8287 8.19606C45.2535 8.19606 46.3396 9.00431 46.3396 10.9239H51.0628C51.0628 7.05945 48.3097 4.43262 42.753 4.43262C38.0803 4.43262 35.504 6.27645 35.504 9.73679C35.504 11.9848 36.4638 13.7781 39.5452 14.6116L45.5061 16.1776C46.5164 16.4302 47.0215 16.9101 47.0215 17.5415C47.0215 18.6529 46.0617 19.1075 43.8138 19.1075C40.505 19.1075 39.52 18.173 39.52 15.6472H34.7715C34.7715 20.2694 37.4236 22.9467 43.7127 22.9467C49.421 22.9467 51.7447 20.724 51.7447 17.3394ZM52.2067 4.78623V8.80225H57.9402V22.5931H62.5119V8.80225H68.2454V4.78623H52.2067ZM71.2753 22.5931H66.4511L72.1594 4.78623H80.5702L86.2532 22.5931H81.3785L79.7114 17.2132H72.9424L71.2753 22.5931ZM76.3269 7.28055L74.2053 13.1971H78.4486L76.3269 7.28055ZM87.3991 22.5931H92.0213V16.5564L96.8998 16.5376C96.9464 16.5392 96.9941 16.5399 97.0429 16.5406C97.3477 16.545 97.6995 16.55 98.1442 16.7855C98.6602 17.0586 98.7512 17.6353 98.7512 17.7871C98.7512 19.5649 98.8119 22.5931 98.8119 22.5931H103.438V20.8829C103.438 20.4051 103.446 19.8773 103.454 19.3521V19.3519V19.3518V19.3516V19.3514V19.3511C103.471 18.3085 103.487 17.2758 103.438 16.6641C103.377 15.9053 102.606 14.1753 100.39 14.0539L99.4976 14.0054C101.341 13.6013 103.236 12.3636 103.236 9.50947C103.236 5.59448 99.2955 4.78623 95.2543 4.78623H87.3991V22.5931ZM92.0213 12.5657V8.80225H95.2543C97.1991 8.80225 98.6641 8.85276 98.6641 10.6966C98.6641 12.4899 97.3002 12.5657 95.2543 12.5657H92.0213ZM104.523 8.80225V4.78623H120.562V8.80225H114.828V22.5931H110.256V8.80225H104.523ZM120.879 13.677C120.879 18.956 124.44 22.9467 130.249 22.9467C136.033 22.9467 139.57 18.956 139.57 13.677C139.57 8.42338 136.033 4.43262 130.249 4.43262C124.44 4.43262 120.879 8.42338 120.879 13.677ZM125.627 13.677C125.627 10.4693 127.168 8.60018 130.249 8.60018C133.306 8.60018 134.846 10.444 134.846 13.677C134.846 16.9101 133.331 18.7792 130.249 18.7792C127.168 18.7792 125.627 16.9101 125.627 13.677ZM146.335 22.5931H141.738V4.78623H150.401L155.402 20.2151V4.78623H159.999V22.5931H151.336L146.335 7.22491V22.5931Z" fill="#EBEDEF"/>
</svg>
