<svg width="151" height="163" viewBox="0 0 151 163" fill="none" xmlns="http://www.w3.org/2000/svg">
<path d="M134.662 29.8884L90.6141 4.56358C85.9354 1.88302 80.6322 0.472229 75.2345 0.472229C69.8367 0.472229 64.5334 1.88302 59.8548 4.56358L15.8125 29.8884C11.1425 32.5827 7.26425 36.4503 4.56539 41.1048C1.86654 45.7592 0.441587 51.0374 0.432861 56.4121V107.062C0.442166 112.436 1.86737 117.714 4.56617 122.369C7.26496 127.023 11.1428 130.891 15.8125 133.585L59.8548 158.91C64.5338 161.59 69.8369 163 75.2345 163C80.632 163 85.9351 161.59 90.6141 158.91L134.662 133.585C139.33 130.889 143.207 127.021 145.904 122.367C148.602 117.713 150.027 112.436 150.036 107.062V56.4121C150.027 51.0381 148.603 45.7605 145.905 41.1062C143.207 36.4519 139.331 32.5839 134.662 29.8884ZM17.9265 129.931C13.9024 127.606 10.5611 124.271 8.23631 120.258C5.91155 116.245 4.68468 111.695 4.67811 107.062V56.4121C4.68425 51.7783 5.91092 47.2272 8.23567 43.2131C10.5604 39.199 13.9019 35.8625 17.9265 33.5366L61.9745 8.21173C65.1775 6.37527 68.7308 5.22639 72.4062 4.83891C67.5742 12.3767 63.8863 20.5837 61.4619 29.1943C55.8054 49.9475 60.3098 68.3718 74.4683 82.4826C82.0487 90.0255 86.7663 98.7903 88.4944 108.519C89.8768 116.325 89.3584 124.786 86.9449 133.666C84.4309 142.581 80.5446 151.054 75.4245 158.784C70.706 158.82 66.0633 157.602 61.9745 155.256L17.9265 129.931Z" fill="#151A1F"/>
</svg>
