<svg width="528" height="501" viewBox="0 0 528 501" fill="none" xmlns="http://www.w3.org/2000/svg">
<path d="M470.5 124L478 123.5L304 239.5L298.5 236L470.5 124Z" fill="white" stroke="white"/>
<path d="M134.724 44.4328C99.5602 63.3577 64.6314 116.412 49 147.953C51.3755 153.011 58.606 160.099 65.5992 163.173C84.9971 171.698 108.519 174.4 138.331 158.399C179.594 136.25 243 69.4191 243 58.2476C243 53.8568 187.278 16.1482 134.724 44.4328Z" fill="#F3F5F7" stroke="white" stroke-width="10"/>
<path d="M151.138 54.5348C117.758 73.4933 81.8736 130.981 67.0353 162.579C88.6107 177.64 116.06 190.513 154.562 168.704C193.732 146.516 239.806 72.3241 239.806 61.1327C239.806 56.7341 201.026 26.1997 151.138 54.5348Z" fill="#151A1F" stroke="white" stroke-width="3"/>
<mask id="path-4-inside-1_2040_8223" fill="white">
<path fill-rule="evenodd" clip-rule="evenodd" d="M126.328 155.288C140.639 164.555 164.205 151.829 179.868 127.641C195.207 102.641 192.117 74.9131 183.048 67.6956C170.002 59.4009 151.354 67.1878 136.435 84.4647C136.503 84.5043 136.571 84.5455 136.638 84.5881C139.129 86.5703 139.978 94.1852 135.765 101.051C131.655 107.398 125.564 110.871 121.601 108.948C114.037 129.149 116.791 149.113 126.328 155.288Z"/>
</mask>
<path fill-rule="evenodd" clip-rule="evenodd" d="M126.328 155.288C140.639 164.555 164.205 151.829 179.868 127.641C195.207 102.641 192.117 74.9131 183.048 67.6956C170.002 59.4009 151.354 67.1878 136.435 84.4647C136.503 84.5043 136.571 84.5455 136.638 84.5881C139.129 86.5703 139.978 94.1852 135.765 101.051C131.655 107.398 125.564 110.871 121.601 108.948C114.037 129.149 116.791 149.113 126.328 155.288Z" fill="#F3F5F7"/>
<path d="M179.868 127.641L180.707 128.184L180.714 128.174L180.72 128.164L179.868 127.641ZM126.328 155.288L125.784 156.127L126.328 155.288ZM183.048 67.6956L183.67 66.9132L183.629 66.8802L183.584 66.8518L183.048 67.6956ZM136.435 84.4647L135.678 83.8112L134.89 84.724L135.933 85.3295L136.435 84.4647ZM136.638 84.5881L137.261 83.8057L137.219 83.7727L137.175 83.7443L136.638 84.5881ZM135.765 101.051L136.604 101.594L136.611 101.584L136.617 101.574L135.765 101.051ZM121.601 108.948L122.038 108.048L121.05 107.569L120.665 108.597L121.601 108.948ZM179.028 127.097C171.27 139.078 161.583 148.173 152.127 153.124C142.651 158.086 133.6 158.805 126.871 154.449L125.784 156.127C133.368 161.038 143.255 160.027 153.055 154.896C162.876 149.754 172.802 140.392 180.707 128.184L179.028 127.097ZM182.425 68.4781C184.484 70.1168 186.293 73.0024 187.585 76.9055C188.871 80.7921 189.617 85.607 189.611 90.9988C189.6 101.781 186.585 114.781 179.015 127.118L180.72 128.164C188.49 115.5 191.6 102.137 191.611 91.0009C191.617 85.4335 190.848 80.4007 189.483 76.2772C188.124 72.1701 186.146 68.8832 183.67 66.9132L182.425 68.4781ZM137.192 85.1183C144.574 76.5696 152.834 70.4224 160.796 67.4267C168.747 64.4348 176.324 64.6056 182.511 68.5395L183.584 66.8518C176.726 62.4909 168.455 62.4078 160.091 65.5549C151.738 68.6982 143.215 75.083 135.678 83.8112L137.192 85.1183ZM135.933 85.3295C135.99 85.3624 136.046 85.3965 136.102 85.432L137.175 83.7443C137.096 83.6944 137.017 83.6463 136.937 83.5999L135.933 85.3295ZM136.015 85.3706C136.43 85.7004 136.865 86.3474 137.196 87.3453C137.52 88.3267 137.717 89.5701 137.715 90.9872C137.712 93.8201 136.919 97.2584 134.912 100.528L136.617 101.574C138.824 97.9777 139.712 94.1757 139.715 90.9892C139.717 89.3966 139.497 87.9354 139.094 86.717C138.696 85.5151 138.092 84.4669 137.261 83.8057L136.015 85.3706ZM134.925 100.507C132.942 103.571 130.503 105.901 128.138 107.229C125.75 108.569 123.603 108.808 122.038 108.048L121.165 109.848C123.561 111.011 126.442 110.475 129.117 108.973C131.816 107.458 134.478 104.878 136.604 101.594L134.925 100.507ZM126.871 154.449C122.468 151.597 119.466 145.423 118.545 137.265C117.63 129.151 118.805 119.268 122.538 109.299L120.665 108.597C116.834 118.829 115.603 129.028 116.558 137.49C117.508 145.908 120.651 152.804 125.784 156.127L126.871 154.449Z" fill="white" mask="url(#path-4-inside-1_2040_8223)"/>
<path d="M168.905 120.613C164.337 127.665 158.632 133.022 153.058 135.941C147.471 138.866 142.113 139.302 138.119 136.716C134.87 134.612 132.936 129.49 133.011 122.981C133.086 116.512 135.152 108.822 139.706 101.79C144.275 94.734 149.928 89.3927 155.527 86.5284C161.118 83.6682 166.584 83.3056 170.907 86.0407C172.127 87.0215 173.19 88.7296 173.949 91.0207C174.708 93.3164 175.148 96.1571 175.145 99.335C175.138 105.689 173.362 113.346 168.905 120.613Z" fill="#151A1F" stroke="white"/>
<path d="M193 152.5L295.305 224.272" stroke="white" stroke-width="3" stroke-dasharray="7 7"/>
<path d="M330.624 295.958L330.771 296.078C330.901 296.183 331.056 296.423 331.173 296.904C331.287 297.375 331.349 298.014 331.349 298.837C331.349 300.479 331.1 301.794 330.636 302.751C330.166 303.72 329.496 304.477 328.651 305.03C327.77 305.607 327.316 305.54 327.078 305.347C326.949 305.241 326.794 305.002 326.677 304.517C326.563 304.042 326.5 303.394 326.5 302.556C326.5 300.883 326.749 299.599 327.213 298.642C327.683 297.672 328.354 296.916 329.199 296.362C329.924 295.887 330.36 295.849 330.624 295.958ZM328.689 297.174C328.389 297.356 328.164 297.58 327.983 297.796H327.926L327.777 298.019C327.532 298.387 327.389 298.845 327.289 299.38C327.184 299.938 327.153 300.677 327.153 301.539V301.666V303.434L328.079 301.928L330.463 298.049L330.585 297.851L330.512 297.629C330.454 297.458 330.374 297.28 330.253 297.136C330.125 296.984 329.925 296.843 329.656 296.843C329.382 296.843 329.037 296.945 328.689 297.174ZM330.015 303.476L330.044 303.447L330.072 303.405C330.317 303.037 330.46 302.579 330.56 302.044C330.665 301.486 330.696 300.747 330.696 299.886V299.758V297.99L329.77 299.497L327.386 303.375L327.264 303.573L327.338 303.795C327.397 303.974 327.483 304.153 327.619 304.298C327.767 304.454 327.948 304.542 328.143 304.575L328.184 304.582H328.225C328.529 304.582 328.841 304.48 329.154 304.286C329.514 304.069 329.812 303.781 330.015 303.476Z" fill="white" stroke="white"/>
<path d="M334.745 301.018L336.403 297.458L336.567 297.106L336.267 296.86L334.513 295.423L335.598 294.734L336.618 295.729L337.132 296.231L337.424 295.575L338.666 292.788L339.067 292.534L337.534 295.727L337.367 296.074L337.66 296.324L339.531 297.92L338.469 298.6L337.328 297.41L336.808 296.867L336.509 297.557L335.107 300.786L334.745 301.018Z" fill="white" stroke="white"/>
<path d="M347.403 284.894V285.507L344.617 294.732L344.171 295.015L346.696 286.809L347.098 285.502L345.948 286.241L343.723 287.672L343.493 287.819V288.092V289.123L342.872 289.525V287.794L347.403 284.894Z" fill="white" stroke="white"/>
<path d="M350.736 289.386L351.613 288.824C351.718 288.977 351.865 289.103 352.068 289.171L352.222 288.708L352.068 289.171C352.493 289.312 352.924 289.128 353.322 288.863C353.806 288.564 354.151 288.183 354.382 287.759C354.624 287.315 354.729 286.78 354.729 286.185C354.729 285.905 354.703 285.645 354.637 285.423C354.572 285.202 354.453 284.972 354.234 284.818C354.003 284.656 353.739 284.633 353.502 284.68C353.278 284.724 353.059 284.832 352.851 284.966C352.47 285.197 352.197 285.471 351.969 285.812C351.815 286.043 351.687 286.273 351.597 286.524L350.957 286.738L351.396 282.376L354.683 280.292V280.728L352.054 282.393L351.853 282.521L351.825 282.757L351.602 284.665L351.393 286.461L352.495 285.028C352.777 284.662 353.112 284.355 353.532 284.102L353.543 284.096L353.553 284.09C353.961 283.817 354.3 283.706 354.577 283.697C354.784 283.705 354.938 283.788 355.059 283.96C355.198 284.16 355.318 284.55 355.318 285.136C355.318 286.029 355.089 286.866 354.621 287.685C354.153 288.504 353.512 289.174 352.725 289.67C351.907 290.173 351.451 290.242 351.208 290.161C351.048 290.108 350.847 289.926 350.736 289.386Z" fill="white" stroke="white"/>
<path d="M362.439 276.807C362.334 276.654 362.187 276.528 361.984 276.46C361.557 276.318 361.123 276.505 360.722 276.773C360.269 277.075 359.9 277.485 359.612 277.99C359.298 278.539 359.167 279.272 359.102 280.173L360.048 280.432C360.212 280.105 360.401 279.862 360.622 279.64C360.821 279.442 361.067 279.263 361.384 279.033C361.412 279.013 361.441 278.992 361.47 278.971C361.819 278.755 362.113 278.634 362.37 278.579H362.557C362.845 278.579 363.008 278.656 363.152 278.836C363.304 279.026 363.424 279.369 363.424 279.986C363.424 280.584 363.312 281.125 363.079 281.708C362.846 282.289 362.524 282.82 362.134 283.331C361.725 283.826 361.29 284.203 360.794 284.524C359.897 285.091 359.404 285.061 359.084 284.847C358.938 284.75 358.771 284.531 358.644 284.079C358.518 283.632 358.448 283.015 358.448 282.211C358.448 280.614 358.725 279.331 359.251 278.308C359.788 277.264 360.492 276.479 361.326 275.961C362.145 275.458 362.601 275.389 362.844 275.47C363.004 275.523 363.206 275.705 363.317 276.245L362.439 276.807ZM362.417 282.622L362.425 282.608L362.432 282.594C362.655 282.149 362.803 281.627 362.803 281.003C362.803 280.713 362.779 280.437 362.703 280.205C362.626 279.968 362.474 279.715 362.182 279.59C361.718 279.391 361.236 279.579 360.801 279.846C360.321 280.142 359.916 280.548 359.62 281.027C359.317 281.521 359.165 282.057 359.165 282.656C359.165 282.967 359.197 283.275 359.302 283.527C359.411 283.79 359.629 284.051 359.994 284.103C360.464 284.198 360.915 284.022 361.333 283.745C361.82 283.443 362.159 283.064 362.417 282.622Z" fill="white" stroke="white"/>
<path d="M370.483 271.69C370.378 271.536 370.231 271.41 370.028 271.343C369.601 271.2 369.167 271.388 368.766 271.655C368.313 271.957 367.944 272.368 367.656 272.872C367.342 273.421 367.21 274.154 367.146 275.055L368.092 275.315C368.256 274.987 368.444 274.744 368.666 274.523C368.865 274.324 369.111 274.145 369.427 273.916C369.456 273.895 369.484 273.874 369.514 273.853C369.862 273.637 370.157 273.516 370.414 273.461H370.601C370.889 273.461 371.052 273.538 371.196 273.719L371.587 273.406L371.196 273.719C371.348 273.908 371.468 274.251 371.468 274.869C371.468 275.466 371.355 276.007 371.122 276.59C370.89 277.172 370.568 277.702 370.178 278.213C369.769 278.708 369.334 279.085 368.837 279.406C367.941 279.974 367.448 279.943 367.127 279.729C366.982 279.632 366.815 279.414 366.688 278.961C366.562 278.514 366.492 277.897 366.492 277.094C366.492 275.497 366.768 274.213 367.295 273.19C367.831 272.146 368.536 271.361 369.37 270.844C370.188 270.34 370.644 270.271 370.888 270.352C371.048 270.405 371.249 270.587 371.36 271.127L370.483 271.69ZM370.461 277.505L370.469 277.491L370.476 277.476C370.699 277.031 370.847 276.51 370.847 275.886C370.847 275.595 370.822 275.32 370.747 275.087C370.67 274.851 370.518 274.598 370.226 274.473C369.761 274.273 369.28 274.461 368.845 274.729L369.107 275.155L368.845 274.729C368.365 275.024 367.959 275.43 367.664 275.91C367.36 276.403 367.208 276.939 367.208 277.539C367.208 277.849 367.241 278.157 367.346 278.41C367.455 278.672 367.673 278.933 368.037 278.986C368.507 279.081 368.959 278.905 369.377 278.627C369.864 278.326 370.203 277.946 370.461 277.505Z" fill="white" stroke="white"/>
<path d="M379.116 267.307L379.124 267.314L379.132 267.322C379.227 267.409 379.342 267.588 379.432 267.918C379.52 268.244 379.573 268.682 379.573 269.242C379.573 270.366 379.391 271.304 379.019 272.077L379.016 272.083L379.013 272.09C378.671 272.858 378.165 273.418 377.548 273.811L377.548 273.811L377.539 273.817C377.231 274.022 376.977 274.082 376.767 274.082C376.612 274.082 376.489 274.032 376.349 273.872L376.165 273.662C376.602 273.871 377.111 273.671 377.497 273.404C377.953 273.088 378.347 272.708 378.588 272.185C378.822 271.679 378.92 271.026 378.92 270.291C378.92 269.923 378.896 269.591 378.838 269.318C378.786 269.071 378.687 268.765 378.454 268.572C378.212 268.37 377.919 268.343 377.668 268.388C377.427 268.432 377.183 268.546 376.95 268.689C376.852 268.749 376.76 268.814 376.674 268.882C376.797 268.653 376.933 268.463 377.075 268.305C377.328 268.025 377.672 267.737 378.047 267.506L378.047 267.506L378.053 267.502C378.363 267.305 378.596 267.227 378.762 267.213C378.902 267.201 379.01 267.231 379.11 267.301L379.116 267.307ZM375.562 272.832C375.588 272.941 375.624 273.053 375.676 273.16L375.483 274.1L375.272 275.131L374.851 275.394V267.321L375.473 266.919V269.242L376.194 269.366C376.063 269.532 375.95 269.71 375.85 269.895L375.843 269.908L375.837 269.922C375.609 270.415 375.473 271.062 375.473 271.848C375.473 272.229 375.497 272.561 375.562 272.832Z" fill="white" stroke="white"/>
<path d="M385.654 265.467C385.365 265.724 385.108 265.951 384.797 266.149C384.345 266.431 383.984 266.553 383.678 266.58C383.402 266.577 383.243 266.499 383.102 266.323C382.95 266.133 382.83 265.791 382.83 265.173C382.83 264.576 382.943 264.034 383.176 263.452C383.409 262.87 383.731 262.339 384.121 261.828C384.529 261.334 384.965 260.957 385.461 260.635C386.358 260.068 386.85 260.099 387.171 260.312L387.303 260.401C387.411 260.526 387.521 260.729 387.611 261.049C387.736 261.496 387.807 262.113 387.807 262.916C387.807 264.513 387.53 265.796 387.004 266.82C386.467 267.864 385.762 268.649 384.928 269.166C384.11 269.67 383.654 269.739 383.41 269.658C383.25 269.604 383.049 269.422 382.938 268.883L383.815 268.32C383.92 268.474 384.068 268.6 384.27 268.667C384.695 268.809 385.126 268.624 385.525 268.36C386.016 268.055 386.418 267.61 386.706 267.106C387.022 266.553 387.152 265.784 387.185 264.906L386.238 264.663C386.067 265.005 385.88 265.266 385.654 265.467ZM383.806 262.537L383.798 262.551L383.79 262.565C383.568 263.011 383.42 263.532 383.42 264.156C383.42 264.447 383.444 264.722 383.52 264.954C383.595 265.187 383.744 265.436 384.027 265.563C384.259 265.674 384.511 265.667 384.727 265.617C384.952 265.565 385.186 265.458 385.421 265.313C385.901 265.018 386.307 264.612 386.602 264.132C386.906 263.639 387.058 263.103 387.058 262.503C387.058 262.192 387.025 261.885 386.921 261.632C386.812 261.369 386.594 261.108 386.229 261.056C385.759 260.961 385.308 261.137 384.89 261.414C384.403 261.716 384.063 262.095 383.806 262.537Z" fill="white" stroke="white"/>
<path d="M393.765 258.437C394.174 258.164 394.512 258.053 394.789 258.045C394.997 258.052 395.151 258.135 395.272 258.308C395.411 258.507 395.531 258.897 395.531 259.483C395.531 260.376 395.302 261.213 394.834 262.032C394.366 262.851 393.725 263.521 392.937 264.018C392.12 264.52 391.664 264.589 391.421 264.508C391.261 264.455 391.059 264.273 390.948 263.733L391.825 263.171C391.931 263.324 392.078 263.45 392.281 263.518C392.705 263.659 393.136 263.475 393.535 263.21C394.018 262.911 394.363 262.53 394.594 262.107C394.837 261.662 394.941 261.128 394.941 260.532C394.941 260.252 394.916 259.993 394.85 259.77C394.784 259.549 394.666 259.319 394.447 259.165C394.216 259.003 393.952 258.98 393.714 259.027C393.491 259.071 393.271 259.179 393.063 259.314C392.682 259.544 392.409 259.818 392.182 260.159C392.028 260.39 391.899 260.62 391.81 260.872L391.17 261.085L391.608 256.723L394.895 254.639V255.075L392.267 256.74L392.065 256.868L392.037 257.105L391.815 259.012L391.605 260.808L392.708 259.375C392.989 259.009 393.324 258.702 393.745 258.45L393.755 258.443L393.765 258.437Z" fill="white" stroke="white"/>
<path d="M402.653 251.154C402.548 251.001 402.401 250.875 402.198 250.807C401.771 250.665 401.337 250.853 400.936 251.12C400.483 251.422 400.114 251.833 399.826 252.337C399.512 252.886 399.381 253.619 399.316 254.52L400.262 254.779C400.426 254.452 400.615 254.209 400.836 253.988C401.035 253.789 401.281 253.61 401.598 253.38C401.626 253.36 401.655 253.339 401.684 253.318C402.033 253.102 402.327 252.981 402.584 252.926H402.771C403.059 252.926 403.222 253.003 403.366 253.183L403.757 252.871L403.366 253.183C403.518 253.373 403.638 253.716 403.638 254.333C403.638 254.931 403.526 255.472 403.293 256.055C403.06 256.637 402.738 257.167 402.348 257.678C401.939 258.173 401.504 258.55 401.008 258.871C400.111 259.439 399.618 259.408 399.298 259.194C399.152 259.097 398.985 258.879 398.858 258.426C398.732 257.979 398.662 257.362 398.662 256.559C398.662 254.961 398.939 253.678 399.465 252.655C400.002 251.611 400.706 250.826 401.54 250.308C402.359 249.805 402.815 249.736 403.058 249.817C403.218 249.87 403.42 250.052 403.531 250.592L402.653 251.154ZM402.631 256.969L402.639 256.955L402.646 256.941C402.869 256.496 403.017 255.975 403.017 255.351C403.017 255.06 402.993 254.784 402.917 254.552C402.84 254.315 402.688 254.062 402.396 253.937C401.932 253.738 401.45 253.926 401.015 254.194C400.535 254.489 400.13 254.895 399.834 255.375C399.531 255.868 399.379 256.404 399.379 257.004C399.379 257.314 399.411 257.622 399.516 257.875C399.625 258.137 399.843 258.398 400.208 258.45C400.678 258.546 401.129 258.369 401.547 258.092C402.034 257.791 402.373 257.411 402.631 256.969Z" fill="white" stroke="white"/>
<path d="M408.909 248.263C408.363 248.638 407.985 249.124 407.802 249.76L407.205 250.144C407.241 250.056 407.281 249.966 407.324 249.873C407.55 249.393 407.866 248.957 408.261 248.5C408.658 248.074 409.033 247.733 409.45 247.483L409.45 247.483L409.457 247.478C409.933 247.181 410.33 247.035 410.63 247.012C410.944 246.988 411.083 247.063 411.169 247.161C411.292 247.301 411.395 247.523 411.395 247.944V250.455H411.585C411.395 250.455 411.395 250.455 411.395 250.455V250.455L411.395 250.456L411.395 250.457L411.395 250.458L411.395 250.463L411.395 250.475C411.395 250.485 411.395 250.498 411.396 250.513C411.398 250.541 411.401 250.585 411.409 250.633C411.416 250.673 411.432 250.755 411.474 250.84C411.507 250.905 411.647 251.146 411.958 251.146C411.961 251.146 411.964 251.146 411.967 251.146V251.768L410.845 252.472C410.745 252.528 410.671 252.567 410.614 252.593L410.43 251.948C410.581 251.614 410.646 251.233 410.646 250.837V250.646V249.728L409.875 250.226L408.89 250.862L408.883 250.866L408.876 250.871C408.469 251.153 408.08 251.451 407.864 251.754L407.855 251.766L407.847 251.78C407.685 252.038 407.516 252.335 407.516 252.712C407.516 252.864 407.537 253.036 407.623 253.198C407.716 253.373 407.855 253.477 407.983 253.541L408.207 253.094L407.983 253.541C408.209 253.654 408.445 253.622 408.608 253.571C408.776 253.52 408.94 253.429 409.093 253.316C409.178 253.263 409.26 253.209 409.337 253.155C409.22 253.32 409.095 253.469 408.966 253.598C408.654 253.91 408.372 254.16 408.109 254.318L408.101 254.322L408.093 254.327C407.479 254.727 407.141 254.771 406.955 254.714L406.938 254.708L406.921 254.704C406.87 254.693 406.825 254.669 406.779 254.58C406.723 254.472 406.672 254.276 406.672 253.952C406.672 253.348 406.879 252.783 407.304 252.217L407.304 252.218L407.311 252.208C407.732 251.617 408.433 251.023 409.426 250.402L409.426 250.402L409.432 250.399L410.417 249.763L410.646 249.615V249.343V249.057C410.646 248.685 410.514 248.207 410.018 248.042C409.61 247.906 409.219 248.069 408.927 248.251L408.918 248.257L408.909 248.263Z" fill="white" stroke="white"/>
<path d="M415.076 248.348L415.954 247.785C416.059 247.939 416.206 248.065 416.409 248.132L416.563 247.67L416.409 248.132C416.833 248.274 417.264 248.089 417.663 247.825C418.147 247.525 418.491 247.145 418.722 246.721C418.965 246.276 419.069 245.742 419.069 245.147C419.069 244.866 419.044 244.607 418.978 244.384C418.912 244.164 418.794 243.934 418.575 243.78C418.344 243.618 418.08 243.595 417.842 243.641C417.619 243.685 417.399 243.793 417.192 243.928C416.81 244.158 416.537 244.433 416.31 244.774C416.156 245.005 416.027 245.235 415.938 245.486L415.298 245.699L415.737 241.338L419.023 239.253V239.69L416.395 241.355L416.193 241.482L416.165 241.719L415.943 243.626L415.733 245.422L416.836 243.989C417.117 243.624 417.452 243.317 417.873 243.064L417.883 243.058L417.893 243.051C418.302 242.779 418.64 242.667 418.917 242.659C419.125 242.666 419.279 242.75 419.4 242.922C419.539 243.121 419.659 243.512 419.659 244.098C419.659 244.991 419.43 245.828 418.962 246.647C418.494 247.466 417.853 248.136 417.065 248.632C416.248 249.135 415.792 249.204 415.549 249.123C415.389 249.069 415.187 248.887 415.076 248.348Z" fill="white" stroke="white"/>
<path d="M426.78 235.769C426.675 235.616 426.528 235.49 426.325 235.422C425.898 235.28 425.464 235.467 425.063 235.735C424.61 236.037 424.241 236.447 423.953 236.952C423.639 237.501 423.507 238.233 423.443 239.135L424.389 239.394C424.553 239.067 424.741 238.824 424.963 238.602C425.162 238.403 425.408 238.225 425.725 237.995C425.753 237.975 425.781 237.954 425.811 237.933C426.159 237.716 426.454 237.596 426.711 237.541H426.898C427.186 237.541 427.349 237.618 427.493 237.798C427.645 237.988 427.765 238.33 427.765 238.948C427.765 239.546 427.653 240.087 427.419 240.67C427.187 241.251 426.865 241.782 426.475 242.293C426.066 242.788 425.631 243.165 425.134 243.486C424.238 244.053 423.745 244.023 423.424 243.809C423.279 243.712 423.112 243.493 422.985 243.041C422.859 242.593 422.789 241.977 422.789 241.173C422.789 239.576 423.065 238.293 423.592 237.27C424.128 236.226 424.833 235.441 425.667 234.923C426.485 234.42 426.942 234.351 427.185 234.432C427.345 234.485 427.546 234.667 427.657 235.206L426.78 235.769ZM426.758 241.584L426.766 241.57L426.773 241.556C426.996 241.111 427.144 240.589 427.144 239.965C427.144 239.675 427.119 239.399 427.044 239.167C426.967 238.93 426.815 238.677 426.523 238.552C426.058 238.353 425.577 238.541 425.142 238.808C424.662 239.104 424.256 239.509 423.961 239.989C423.657 240.483 423.505 241.019 423.505 241.618C423.505 241.929 423.538 242.237 423.643 242.489C423.752 242.752 423.97 243.013 424.334 243.065C424.804 243.16 425.256 242.984 425.674 242.707C426.161 242.405 426.5 242.026 426.758 241.584Z" fill="white" stroke="white"/>
<path d="M432.669 238.129L435.904 236.049V236.48L431.214 239.467V239.425C431.214 238.563 431.362 237.802 431.652 237.106C431.946 236.4 432.426 235.644 433.049 234.834L433.05 234.833L433.876 233.752L433.876 233.752L433.879 233.749L433.879 233.749L433.879 233.749L433.879 233.749L433.879 233.749L433.88 233.748L433.881 233.746L433.887 233.739L433.908 233.711C433.926 233.687 433.951 233.654 433.977 233.621C434.004 233.586 434.031 233.552 434.054 233.524C434.072 233.502 434.082 233.49 434.086 233.486C434.088 233.483 434.088 233.483 434.087 233.484L434.109 233.462L434.128 233.438C434.351 233.151 434.552 232.884 434.69 232.677C434.822 232.479 434.977 232.217 435.064 231.931C435.188 231.625 435.219 231.274 435.219 231.001C435.219 230.817 435.185 230.609 435.074 230.421C434.956 230.221 434.77 230.078 434.538 230.012C434.101 229.887 433.687 230.049 433.289 230.336C432.88 230.61 432.49 230.949 432.246 231.397C432.05 231.756 431.915 232.163 431.858 232.653L431.182 233.092C431.327 232.521 431.564 231.994 431.893 231.501C432.429 230.696 433.076 230.053 433.861 229.588L433.861 229.588L433.871 229.581C434.346 229.284 434.744 229.139 435.043 229.116C435.37 229.09 435.535 229.173 435.614 229.264L435.625 229.277L435.637 229.288C435.756 229.408 435.84 229.599 435.84 230.016C435.84 230.5 435.754 230.976 435.59 231.388C435.415 231.824 435.18 232.238 434.939 232.599C434.698 232.96 434.298 233.485 433.728 234.181L433.728 234.181L433.721 234.19L432.931 235.201C432.585 235.618 432.344 236.032 432.174 236.372L431.812 237.096H432.01C431.966 237.272 431.932 237.453 431.904 237.632L431.735 238.729L432.669 238.129Z" fill="white" stroke="white"/>
<path d="M441.171 233.293C441.035 233.389 440.934 233.427 440.867 233.441L440.791 233.419C440.787 233.402 440.781 233.371 440.781 233.322C440.781 233.14 440.854 232.918 441.053 232.605C441.239 232.313 441.471 232.085 441.715 231.938C441.852 231.856 441.962 231.807 442.044 231.784C442.083 231.773 442.109 231.769 442.126 231.768C442.13 231.786 442.134 231.816 442.134 231.859C442.134 232.041 442.062 232.263 441.862 232.576C441.678 232.866 441.439 233.106 441.171 233.293Z" fill="white" stroke="white"/>
<path d="M449.213 228.144C449.077 228.239 448.976 228.278 448.91 228.292L448.833 228.27C448.829 228.252 448.824 228.221 448.824 228.172C448.824 227.991 448.896 227.768 449.095 227.455C449.281 227.163 449.513 226.935 449.757 226.789C449.894 226.707 450.004 226.658 450.086 226.634C450.125 226.623 450.152 226.619 450.168 226.618C450.172 226.637 450.176 226.666 450.176 226.71C450.176 226.891 450.104 227.113 449.905 227.427C449.72 227.716 449.482 227.956 449.213 228.144Z" fill="white" stroke="white"/>
<path d="M457.257 223.026C457.121 223.121 457.02 223.16 456.953 223.174L456.877 223.152C456.873 223.134 456.867 223.103 456.867 223.054C456.867 222.873 456.939 222.651 457.139 222.337C457.325 222.045 457.557 221.817 457.801 221.671C457.938 221.589 458.047 221.54 458.13 221.516C458.169 221.505 458.195 221.501 458.212 221.5C458.216 221.519 458.22 221.548 458.22 221.592C458.22 221.773 458.148 221.995 457.948 222.309C457.764 222.599 457.525 222.838 457.257 223.026Z" fill="white" stroke="white"/>
<path d="M331.482 314.3L331.629 314.419C331.759 314.525 331.914 314.764 332.031 315.246C332.145 315.716 332.208 316.356 332.208 317.178C332.208 318.82 331.959 320.136 331.495 321.092C331.025 322.062 330.354 322.818 329.509 323.372C328.628 323.949 328.175 323.882 327.937 323.688C327.807 323.583 327.652 323.344 327.535 322.859C327.421 322.384 327.359 321.736 327.359 320.897C327.359 319.224 327.607 317.94 328.071 316.983C328.541 316.014 329.212 315.257 330.057 314.704C330.783 314.228 331.218 314.19 331.482 314.3ZM329.547 315.516C329.248 315.698 329.022 315.921 328.841 316.138H328.784L328.636 316.36C328.391 316.729 328.248 317.187 328.147 317.722C328.043 318.28 328.012 319.019 328.012 319.88V320.007V321.775L328.937 320.269L331.322 316.391L331.444 316.192L331.37 315.971C331.313 315.799 331.232 315.621 331.111 315.477C330.983 315.326 330.783 315.184 330.514 315.184C330.241 315.184 329.896 315.286 329.547 315.516ZM330.874 321.817L330.903 321.788L330.93 321.747C331.176 321.379 331.319 320.921 331.419 320.386C331.524 319.828 331.555 319.088 331.555 318.227V318.1V316.332L330.629 317.838L328.245 321.716L328.122 321.915L328.196 322.136C328.256 322.316 328.341 322.494 328.478 322.639C328.626 322.796 328.806 322.884 329.002 322.916L329.042 322.923H329.084C329.388 322.923 329.7 322.822 330.012 322.627C330.372 322.411 330.671 322.123 330.874 321.817Z" fill="white" stroke="white"/>
<path d="M335.604 319.359L337.262 315.8L337.426 315.448L337.125 315.202L335.371 313.765L336.456 313.076L337.477 314.071L337.99 314.572L338.282 313.917L339.524 311.13L339.925 310.875L338.392 314.069L338.226 314.416L338.518 314.666L340.389 316.262L339.327 316.941L338.187 315.751L337.666 315.208L337.367 315.898L335.966 319.128L335.604 319.359Z" fill="white" stroke="white"/>
<path d="M348.293 303.235V303.849L345.507 313.073L345.061 313.357L347.586 305.15L347.989 303.843L346.838 304.583L344.613 306.013L344.383 306.161V306.434V307.465L343.762 307.867V306.135L348.293 303.235Z" fill="white" stroke="white"/>
<path d="M354.411 302.4C354.82 302.127 355.158 302.016 355.435 302.007C355.643 302.014 355.797 302.098 355.918 302.27C356.057 302.469 356.177 302.86 356.177 303.446C356.177 304.339 355.948 305.176 355.48 305.995C355.012 306.814 354.371 307.484 353.583 307.98C352.766 308.483 352.31 308.552 352.067 308.471C351.907 308.417 351.705 308.235 351.594 307.696L352.471 307.133C352.577 307.287 352.724 307.413 352.927 307.48C353.351 307.622 353.782 307.437 354.181 307.173C354.664 306.873 355.009 306.493 355.24 306.069C355.483 305.625 355.587 305.09 355.587 304.495C355.587 304.214 355.562 303.955 355.496 303.732C355.43 303.512 355.312 303.282 355.093 303.128C354.862 302.966 354.598 302.943 354.36 302.989C354.137 303.034 353.917 303.142 353.709 303.276C353.328 303.506 353.055 303.781 352.828 304.122C352.674 304.353 352.545 304.583 352.456 304.834L351.816 305.048L352.254 300.686L355.541 298.601V299.038L352.913 300.703L352.711 300.83L352.683 301.067L352.461 302.975L352.251 304.771L353.354 303.337C353.635 302.972 353.97 302.665 354.391 302.412L354.401 302.406L354.411 302.4Z" fill="white" stroke="white"/>
<path d="M363.298 295.117C363.193 294.964 363.046 294.838 362.843 294.77C362.415 294.628 361.982 294.815 361.581 295.083C361.128 295.385 360.759 295.795 360.47 296.3C360.157 296.848 360.025 297.581 359.961 298.483L360.907 298.742C361.07 298.415 361.259 298.172 361.481 297.95C361.68 297.751 361.926 297.573 362.242 297.343C362.27 297.323 362.299 297.302 362.328 297.281C362.677 297.064 362.972 296.944 363.228 296.889H363.416C363.704 296.889 363.867 296.966 364.011 297.146C364.163 297.336 364.283 297.678 364.283 298.296C364.283 298.894 364.17 299.435 363.937 300.018C363.705 300.599 363.382 301.13 362.992 301.641C362.584 302.136 362.148 302.513 361.652 302.834C360.756 303.401 360.263 303.37 359.942 303.157C359.797 303.06 359.63 302.841 359.502 302.388C359.377 301.941 359.307 301.325 359.307 300.521C359.307 298.924 359.583 297.641 360.109 296.617C360.646 295.574 361.351 294.789 362.185 294.271C363.003 293.768 363.459 293.698 363.703 293.78C363.863 293.833 364.064 294.015 364.175 294.554L363.298 295.117ZM363.276 300.932L363.284 300.918L363.291 300.904C363.514 300.458 363.662 299.937 363.662 299.313C363.662 299.023 363.637 298.747 363.562 298.515C363.485 298.278 363.333 298.025 363.041 297.9C362.576 297.701 362.095 297.889 361.66 298.156C361.18 298.452 360.774 298.857 360.479 299.337C360.175 299.831 360.023 300.367 360.023 300.966C360.023 301.277 360.056 301.585 360.161 301.837C360.27 302.1 360.488 302.361 360.852 302.413C361.322 302.508 361.773 302.332 362.192 302.055C362.679 301.753 363.018 301.374 363.276 300.932Z" fill="white" stroke="white"/>
<path d="M371.342 289.999C371.236 289.846 371.089 289.72 370.887 289.652C370.459 289.51 370.026 289.697 369.625 289.965C369.171 290.267 368.802 290.677 368.514 291.182C368.201 291.731 368.069 292.463 368.005 293.365L368.95 293.624C369.114 293.297 369.303 293.054 369.524 292.832C369.723 292.633 369.97 292.455 370.286 292.225C370.314 292.205 370.343 292.184 370.372 292.163C370.721 291.946 371.015 291.826 371.272 291.771H371.46C371.747 291.771 371.911 291.848 372.055 292.028L372.445 291.716L372.055 292.028C372.207 292.218 372.327 292.56 372.327 293.178C372.327 293.776 372.214 294.317 371.981 294.9C371.748 295.481 371.426 296.012 371.036 296.523C370.627 297.018 370.192 297.395 369.696 297.716C368.799 298.283 368.306 298.253 367.986 298.039C367.84 297.942 367.673 297.723 367.546 297.271C367.42 296.823 367.35 296.207 367.35 295.403C367.35 293.806 367.627 292.523 368.153 291.499C368.69 290.456 369.395 289.671 370.228 289.153C371.047 288.65 371.503 288.581 371.747 288.662C371.906 288.715 372.108 288.897 372.219 289.436L371.342 289.999ZM371.319 295.814L371.327 295.8L371.335 295.786C371.557 295.341 371.705 294.819 371.705 294.195C371.705 293.905 371.681 293.629 371.605 293.397C371.528 293.16 371.376 292.907 371.084 292.782C370.62 292.583 370.138 292.771 369.704 293.038C369.224 293.334 368.818 293.739 368.522 294.219C368.219 294.713 368.067 295.249 368.067 295.848C368.067 296.159 368.1 296.467 368.204 296.719C368.313 296.982 368.531 297.243 368.896 297.295C369.366 297.39 369.817 297.214 370.235 296.937C370.722 296.635 371.062 296.256 371.319 295.814Z" fill="white" stroke="white"/>
<path d="M379.974 285.648L379.982 285.656L379.99 285.663C380.086 285.751 380.201 285.93 380.29 286.26C380.379 286.586 380.432 287.023 380.432 287.583C380.432 288.707 380.249 289.646 379.878 290.418L379.874 290.425L379.871 290.432C379.53 291.199 379.024 291.76 378.407 292.152L378.406 292.152L378.398 292.158C378.09 292.363 377.836 292.424 377.626 292.424C377.47 292.424 377.348 292.373 377.207 292.213L377.024 292.003C377.461 292.212 377.969 292.013 378.356 291.746C378.812 291.43 379.206 291.049 379.447 290.527C379.68 290.021 379.779 289.367 379.779 288.632C379.779 288.264 379.754 287.933 379.697 287.659C379.645 287.412 379.545 287.107 379.313 286.913C379.07 286.711 378.778 286.685 378.527 286.73C378.285 286.773 378.041 286.888 377.809 287.03C377.711 287.091 377.619 287.155 377.533 287.224C377.655 286.994 377.792 286.804 377.934 286.646C378.186 286.366 378.53 286.079 378.905 285.848L378.905 285.848L378.912 285.844C379.222 285.646 379.454 285.569 379.62 285.554C379.761 285.542 379.869 285.573 379.969 285.643L379.974 285.648ZM376.421 291.173C376.447 291.283 376.483 291.395 376.534 291.502L376.341 292.442L376.13 293.472L375.71 293.736V285.662L376.331 285.26V287.583L377.053 287.707C376.921 287.874 376.808 288.052 376.709 288.236L376.702 288.25L376.695 288.264C376.468 288.757 376.331 289.404 376.331 290.19C376.331 290.571 376.355 290.902 376.421 291.173Z" fill="white" stroke="white"/>
<path d="M386.512 283.777C386.223 284.034 385.966 284.261 385.656 284.459C385.204 284.741 384.842 284.863 384.536 284.89C384.261 284.887 384.101 284.809 383.961 284.633C383.809 284.443 383.689 284.101 383.689 283.483C383.689 282.885 383.801 282.344 384.034 281.761C384.267 281.18 384.589 280.649 384.979 280.138C385.388 279.643 385.823 279.266 386.319 278.945C387.216 278.378 387.709 278.408 388.029 278.622L388.162 278.71C388.27 278.836 388.379 279.039 388.469 279.359C388.595 279.806 388.665 280.423 388.665 281.226C388.665 282.823 388.388 284.106 387.862 285.13C387.325 286.174 386.621 286.958 385.787 287.476C384.968 287.98 384.512 288.049 384.269 287.967C384.109 287.914 383.907 287.732 383.796 287.193L384.674 286.63C384.779 286.783 384.926 286.91 385.129 286.977C385.554 287.119 385.984 286.934 386.383 286.669C386.874 286.365 387.276 285.92 387.565 285.416C387.881 284.862 388.011 284.094 388.043 283.215L387.097 282.973C386.926 283.315 386.738 283.576 386.512 283.777ZM384.664 280.847L384.656 280.861L384.649 280.875C384.426 281.32 384.278 281.842 384.278 282.466C384.278 282.756 384.303 283.032 384.378 283.264C384.454 283.497 384.603 283.746 384.886 283.873C385.118 283.984 385.369 283.976 385.586 283.926C385.81 283.875 386.044 283.768 386.28 283.623C386.76 283.327 387.166 282.922 387.461 282.442C387.765 281.948 387.917 281.412 387.917 280.813C387.917 280.502 387.884 280.194 387.779 279.942C387.67 279.679 387.452 279.418 387.088 279.366C386.618 279.271 386.166 279.447 385.748 279.724C385.261 280.026 384.922 280.405 384.664 280.847Z" fill="white" stroke="white"/>
<path d="M394.624 276.747C395.032 276.474 395.371 276.363 395.648 276.354C395.855 276.362 396.009 276.445 396.13 276.617C396.269 276.817 396.389 277.207 396.389 277.793C396.389 278.686 396.16 279.523 395.692 280.342C395.224 281.161 394.583 281.831 393.796 282.327C392.978 282.83 392.523 282.899 392.279 282.818C392.119 282.765 391.918 282.583 391.807 282.043L392.684 281.48C392.789 281.634 392.936 281.76 393.139 281.828C393.564 281.969 393.995 281.785 394.394 281.52C394.877 281.221 395.222 280.84 395.453 280.416C395.695 279.972 395.8 279.437 395.8 278.842C395.8 278.562 395.774 278.302 395.708 278.08C395.643 277.859 395.524 277.629 395.305 277.475C395.074 277.313 394.81 277.29 394.573 277.337C394.349 277.381 394.13 277.489 393.922 277.623C393.541 277.854 393.268 278.128 393.04 278.469C392.886 278.7 392.758 278.93 392.668 279.181L392.028 279.395L392.467 275.033L395.754 272.949V273.385L393.125 275.05L392.924 275.178L392.896 275.414L392.673 277.322L392.464 279.118L393.566 277.685C393.848 277.319 394.183 277.012 394.603 276.759L394.614 276.753L394.624 276.747Z" fill="white" stroke="white"/>
<path d="M403.512 269.464C403.407 269.311 403.26 269.185 403.057 269.117C402.629 268.975 402.196 269.162 401.795 269.43C401.342 269.732 400.973 270.142 400.684 270.647C400.371 271.196 400.239 271.929 400.175 272.83L401.121 273.089C401.284 272.762 401.473 272.519 401.695 272.297C401.894 272.099 402.14 271.92 402.456 271.69C402.485 271.67 402.513 271.649 402.543 271.628C402.891 271.412 403.186 271.291 403.442 271.236H403.63C403.918 271.236 404.081 271.313 404.225 271.493C404.377 271.683 404.497 272.026 404.497 272.643C404.497 273.241 404.384 273.782 404.151 274.365C403.919 274.946 403.596 275.477 403.206 275.988C402.798 276.483 402.362 276.86 401.866 277.181C400.97 277.748 400.477 277.718 400.156 277.504C400.011 277.407 399.844 277.188 399.716 276.736C399.591 276.289 399.521 275.672 399.521 274.868C399.521 273.271 399.797 271.988 400.323 270.965C400.86 269.921 401.565 269.136 402.399 268.618C403.217 268.115 403.673 268.046 403.917 268.127C404.077 268.18 404.278 268.362 404.389 268.902L403.512 269.464ZM403.49 275.279L403.498 275.265L403.505 275.251C403.728 274.806 403.876 274.284 403.876 273.66C403.876 273.37 403.851 273.094 403.776 272.862C403.699 272.625 403.547 272.372 403.255 272.247C402.79 272.048 402.309 272.236 401.874 272.503C401.394 272.799 400.988 273.205 400.693 273.684C400.389 274.178 400.237 274.714 400.237 275.313C400.237 275.624 400.27 275.932 400.375 276.184C400.484 276.447 400.702 276.708 401.066 276.76C401.536 276.855 401.987 276.679 402.406 276.402C402.893 276.1 403.232 275.721 403.49 275.279Z" fill="white" stroke="white"/>
<path d="M409.768 266.573C409.222 266.948 408.843 267.434 408.66 268.07L408.063 268.454C408.099 268.366 408.139 268.276 408.183 268.183C408.409 267.702 408.725 267.267 409.12 266.81C409.517 266.383 409.891 266.042 410.308 265.792L410.308 265.792L410.316 265.788C410.791 265.491 411.188 265.345 411.488 265.322C411.803 265.298 411.942 265.373 412.027 265.47C412.15 265.611 412.253 265.833 412.253 266.254V268.765V268.765L412.753 268.765C412.253 268.765 412.253 268.765 412.253 268.765V268.765L412.253 268.766L412.253 268.766L412.253 268.768L412.253 268.773L412.253 268.785C412.254 268.795 412.254 268.808 412.255 268.823C412.256 268.851 412.26 268.894 412.268 268.943C412.274 268.983 412.29 269.065 412.333 269.15C412.365 269.215 412.506 269.456 412.817 269.456C412.819 269.456 412.822 269.456 412.825 269.456V270.078L411.704 270.782C411.603 270.838 411.53 270.877 411.473 270.903L411.288 270.258C411.439 269.924 411.505 269.542 411.505 269.146V268.956V268.038L410.734 268.536L409.748 269.171L409.741 269.176L409.735 269.18C409.327 269.462 408.938 269.761 408.722 270.064L408.713 270.076L408.705 270.089C408.543 270.348 408.375 270.645 408.375 271.022C408.375 271.174 408.395 271.346 408.481 271.508C408.575 271.683 408.713 271.786 408.842 271.851L409.066 271.403L408.842 271.851C409.068 271.964 409.303 271.932 409.467 271.881C409.634 271.83 409.799 271.738 409.952 271.626C410.037 271.572 410.118 271.519 410.196 271.465C410.079 271.63 409.953 271.779 409.825 271.908C409.513 272.22 409.23 272.47 408.967 272.628L408.959 272.632L408.952 272.637C408.337 273.037 407.999 273.081 407.814 273.023L407.797 273.018L407.779 273.014C407.728 273.002 407.684 272.978 407.638 272.89C407.582 272.782 407.531 272.585 407.531 272.262C407.531 271.658 407.738 271.093 408.162 270.527L408.162 270.527L408.169 270.518C408.591 269.927 409.291 269.333 410.284 268.712L410.284 268.712L410.29 268.708L411.276 268.073L411.505 267.925V267.652V267.366C411.505 266.994 411.372 266.517 410.877 266.352C410.468 266.215 410.077 266.379 409.786 266.561L409.777 266.567L409.768 266.573Z" fill="white" stroke="white"/>
<path d="M418.752 261.361C419.16 261.089 419.499 260.977 419.776 260.969C419.984 260.976 420.138 261.06 420.258 261.232C420.398 261.431 420.517 261.822 420.517 262.407C420.517 263.301 420.288 264.138 419.82 264.957C419.352 265.775 418.711 266.446 417.924 266.942C417.106 267.445 416.651 267.514 416.407 267.432C416.247 267.379 416.046 267.197 415.935 266.658L416.812 266.095C416.917 266.248 417.065 266.374 417.267 266.442C417.692 266.584 418.123 266.399 418.522 266.134C419.005 265.835 419.35 265.455 419.581 265.031C419.823 264.586 419.928 264.052 419.928 263.456C419.928 263.176 419.902 262.917 419.836 262.694C419.771 262.473 419.652 262.243 419.433 262.09C419.202 261.927 418.938 261.904 418.701 261.951C418.477 261.995 418.258 262.103 418.05 262.238C417.669 262.468 417.396 262.742 417.168 263.084C417.014 263.315 416.886 263.545 416.796 263.796L416.156 264.009L416.595 259.648L419.882 257.563V258L417.253 259.664L417.052 259.792L417.024 260.029L416.801 261.936L416.592 263.732L417.694 262.299C417.976 261.933 418.311 261.626 418.732 261.374L418.742 261.368L418.752 261.361Z" fill="white" stroke="white"/>
<path d="M427.639 254.079C427.533 253.926 427.386 253.799 427.184 253.732C426.756 253.589 426.323 253.777 425.922 254.045C425.468 254.347 425.099 254.757 424.811 255.262C424.498 255.81 424.366 256.543 424.302 257.445L425.247 257.704C425.411 257.377 425.6 257.134 425.821 256.912C426.02 256.713 426.267 256.534 426.583 256.305C426.611 256.285 426.64 256.264 426.669 256.242C427.018 256.026 427.312 255.906 427.569 255.851H427.757C428.044 255.851 428.208 255.928 428.352 256.108L428.742 255.796L428.352 256.108C428.504 256.298 428.624 256.64 428.624 257.258C428.624 257.856 428.511 258.397 428.278 258.979C428.045 259.561 427.723 260.092 427.333 260.603C426.924 261.097 426.489 261.474 425.993 261.796C425.096 262.363 424.603 262.332 424.283 262.119C424.137 262.022 423.97 261.803 423.843 261.35C423.717 260.903 423.647 260.286 423.647 259.483C423.647 257.886 423.924 256.603 424.45 255.579C424.987 254.535 425.692 253.751 426.525 253.233C427.344 252.729 427.8 252.66 428.044 252.742C428.203 252.795 428.405 252.977 428.516 253.516L427.639 254.079ZM427.616 259.894L427.624 259.88L427.632 259.866C427.854 259.42 428.002 258.899 428.002 258.275C428.002 257.984 427.978 257.709 427.902 257.477C427.825 257.24 427.673 256.987 427.381 256.862C426.917 256.663 426.435 256.851 426 257.118C425.521 257.413 425.115 257.819 424.819 258.299C424.516 258.792 424.364 259.328 424.364 259.928C424.364 260.239 424.397 260.546 424.501 260.799C424.61 261.062 424.828 261.323 425.193 261.375C425.663 261.47 426.114 261.294 426.532 261.017C427.019 260.715 427.359 260.336 427.616 259.894Z" fill="white" stroke="white"/>
<path d="M433.527 256.439L436.762 254.359V254.79L432.072 257.777V257.735C432.072 256.872 432.22 256.112 432.51 255.416C432.805 254.709 433.285 253.954 433.908 253.144L433.908 253.143L434.735 252.062L434.735 252.062L434.738 252.059L434.738 252.059L434.738 252.059L434.738 252.059L434.738 252.059L434.738 252.058L434.739 252.056L434.745 252.049L434.767 252.02C434.785 251.997 434.809 251.964 434.836 251.93C434.862 251.896 434.889 251.862 434.912 251.834C434.93 251.812 434.941 251.8 434.945 251.796C434.947 251.793 434.947 251.793 434.946 251.794L434.968 251.772L434.987 251.748C435.21 251.461 435.41 251.194 435.548 250.987C435.68 250.789 435.835 250.527 435.922 250.241C436.046 249.935 436.077 249.584 436.077 249.311C436.077 249.127 436.044 248.919 435.932 248.731C435.814 248.53 435.628 248.388 435.397 248.322C434.96 248.197 434.545 248.359 434.147 248.646C433.738 248.92 433.349 249.259 433.104 249.707C432.909 250.066 432.774 250.473 432.717 250.963L432.04 251.402C432.185 250.831 432.422 250.304 432.751 249.811C433.288 249.006 433.935 248.363 434.72 247.897L434.72 247.897L434.73 247.891C435.205 247.594 435.602 247.448 435.902 247.425C436.229 247.4 436.393 247.483 436.473 247.574L436.484 247.586L436.496 247.598C436.615 247.717 436.699 247.908 436.699 248.325C436.699 248.81 436.613 249.286 436.448 249.697C436.274 250.133 436.038 250.547 435.797 250.909C435.557 251.27 435.156 251.795 434.587 252.491L434.586 252.491L434.58 252.5L433.79 253.511C433.443 253.928 433.202 254.342 433.032 254.682L432.67 255.406H432.869C432.825 255.582 432.79 255.763 432.763 255.942L432.594 257.039L433.527 256.439Z" fill="white" stroke="white"/>
<path d="M442.029 251.603C441.893 251.699 441.793 251.737 441.726 251.751L441.65 251.729C441.645 251.711 441.64 251.68 441.64 251.631C441.64 251.45 441.712 251.228 441.912 250.914C442.097 250.622 442.33 250.395 442.573 250.248C442.71 250.166 442.82 250.117 442.903 250.094C442.941 250.083 442.968 250.079 442.984 250.078C442.988 250.096 442.992 250.126 442.992 250.169C442.992 250.351 442.92 250.573 442.721 250.886C442.537 251.176 442.298 251.415 442.029 251.603Z" fill="white" stroke="white"/>
<path d="M450.072 246.485C449.935 246.581 449.835 246.619 449.768 246.633L449.692 246.611C449.687 246.594 449.682 246.563 449.682 246.514C449.682 246.332 449.754 246.11 449.954 245.797C450.14 245.505 450.372 245.277 450.616 245.13C450.753 245.048 450.862 244.999 450.945 244.976C450.984 244.965 451.01 244.961 451.027 244.96C451.031 244.978 451.035 245.008 451.035 245.051C451.035 245.233 450.963 245.455 450.763 245.768C450.579 246.058 450.34 246.297 450.072 246.485Z" fill="white" stroke="white"/>
<path d="M458.115 241.336C457.979 241.431 457.879 241.469 457.812 241.483L457.735 241.462C457.731 241.444 457.726 241.413 457.726 241.364C457.726 241.182 457.798 240.96 457.997 240.647C458.183 240.355 458.416 240.127 458.659 239.981C458.796 239.898 458.906 239.85 458.989 239.826C459.027 239.815 459.054 239.811 459.07 239.81C459.074 239.829 459.078 239.858 459.078 239.902C459.078 240.083 459.006 240.305 458.807 240.619C458.622 240.908 458.384 241.148 458.115 241.336Z" fill="white" stroke="white"/>
<path d="M332.341 336.297L332.488 336.416C332.618 336.522 332.773 336.762 332.89 337.243C333.004 337.713 333.066 338.353 333.066 339.175C333.066 340.817 332.817 342.133 332.353 343.09C331.884 344.059 331.213 344.815 330.368 345.369C329.487 345.946 329.033 345.879 328.795 345.685C328.666 345.58 328.511 345.341 328.394 344.856C328.28 344.381 328.217 343.733 328.217 342.894C328.217 341.221 328.466 339.937 328.93 338.98C329.4 338.011 330.071 337.254 330.916 336.701C331.641 336.225 332.077 336.187 332.341 336.297ZM330.406 337.513C330.106 337.695 329.881 337.918 329.7 338.135H329.643L329.494 338.357C329.249 338.726 329.106 339.184 329.006 339.719C328.901 340.277 328.87 341.016 328.87 341.877V342.004V343.772L329.796 342.266L332.18 338.388L332.302 338.189L332.229 337.968C332.171 337.796 332.091 337.618 331.97 337.474C331.842 337.323 331.642 337.181 331.373 337.181C331.099 337.181 330.754 337.283 330.406 337.513ZM331.732 343.814L331.761 343.785L331.789 343.744C332.034 343.376 332.177 342.918 332.277 342.383C332.382 341.825 332.413 341.085 332.413 340.224V340.097V338.329L331.487 339.835L329.103 343.713L328.981 343.912L329.055 344.133C329.114 344.313 329.2 344.492 329.336 344.636C329.484 344.793 329.665 344.881 329.86 344.913L329.901 344.92H329.942C330.246 344.92 330.558 344.819 330.871 344.624C331.231 344.408 331.529 344.12 331.732 343.814Z" fill="white" stroke="white"/>
<path d="M336.462 341.356L338.12 337.797L338.284 337.445L337.984 337.199L336.23 335.762L337.315 335.073L338.335 336.068L338.849 336.569L339.141 335.914L340.383 333.127L340.784 332.873L339.251 336.066L339.084 336.413L339.377 336.663L341.248 338.259L340.186 338.938L339.045 337.749L338.525 337.206L338.226 337.895L336.824 341.125L336.462 341.356Z" fill="white" stroke="white"/>
<path d="M349.152 325.233V325.846L346.366 335.07L345.92 335.354L348.445 327.148L348.847 325.84L347.697 326.58L345.471 328.01L345.242 328.158V328.431V329.462L344.62 329.864V328.132L349.152 325.233Z" fill="white" stroke="white"/>
<path d="M355.27 324.429C355.678 324.156 356.017 324.045 356.294 324.036C356.501 324.043 356.655 324.127 356.776 324.299C356.915 324.498 357.035 324.889 357.035 325.475C357.035 326.368 356.806 327.205 356.338 328.024C355.87 328.843 355.229 329.513 354.442 330.009C353.624 330.512 353.169 330.581 352.925 330.5C352.765 330.447 352.564 330.264 352.453 329.725L353.33 329.162C353.435 329.316 353.582 329.442 353.785 329.509C354.21 329.651 354.641 329.466 355.04 329.202C355.523 328.902 355.868 328.522 356.099 328.098C356.341 327.654 356.446 327.119 356.446 326.524C356.446 326.243 356.42 325.984 356.354 325.762C356.289 325.541 356.17 325.311 355.951 325.157C355.72 324.995 355.456 324.972 355.219 325.019C354.995 325.063 354.776 325.171 354.568 325.305C354.187 325.535 353.914 325.81 353.686 326.151C353.532 326.382 353.404 326.612 353.314 326.863L352.674 327.077L353.113 322.715L356.4 320.63V321.067L353.771 322.732L353.57 322.859L353.542 323.096L353.319 325.004L353.11 326.8L354.212 325.366C354.494 325.001 354.829 324.694 355.249 324.441L355.26 324.435L355.27 324.429Z" fill="white" stroke="white"/>
<path d="M364.156 317.146C364.051 316.993 363.904 316.867 363.701 316.799C363.274 316.657 362.841 316.844 362.439 317.112C361.986 317.414 361.617 317.824 361.329 318.329C361.015 318.878 360.884 319.61 360.819 320.512L361.765 320.771C361.929 320.444 362.118 320.201 362.339 319.979C362.538 319.78 362.784 319.602 363.101 319.372C363.129 319.352 363.158 319.331 363.187 319.31C363.536 319.093 363.83 318.973 364.087 318.918H364.274C364.562 318.918 364.725 318.995 364.869 319.175L365.26 318.863L364.869 319.175C365.021 319.365 365.141 319.707 365.141 320.325C365.141 320.923 365.029 321.464 364.796 322.047C364.563 322.628 364.241 323.159 363.851 323.67C363.442 324.165 363.007 324.542 362.511 324.863C361.614 325.43 361.121 325.4 360.801 325.186C360.655 325.089 360.488 324.87 360.361 324.417C360.235 323.97 360.165 323.354 360.165 322.55C360.165 320.953 360.442 319.67 360.968 318.646C361.505 317.603 362.21 316.818 363.043 316.3C363.862 315.797 364.318 315.728 364.561 315.809C364.721 315.862 364.923 316.044 365.034 316.583L364.156 317.146ZM364.134 322.961L364.142 322.947L364.149 322.933C364.372 322.488 364.52 321.966 364.52 321.342C364.52 321.052 364.496 320.776 364.42 320.544C364.343 320.307 364.191 320.054 363.899 319.929L363.721 320.346L363.899 319.929C363.435 319.73 362.953 319.918 362.518 320.185L362.78 320.611L362.518 320.185C362.038 320.481 361.633 320.886 361.337 321.366C361.034 321.86 360.882 322.396 360.882 322.995C360.882 323.306 360.914 323.614 361.019 323.866C361.128 324.129 361.346 324.39 361.711 324.442C362.181 324.537 362.632 324.361 363.05 324.084C363.537 323.782 363.876 323.403 364.134 322.961Z" fill="white" stroke="white"/>
<path d="M372.2 311.996C372.095 311.843 371.948 311.717 371.745 311.649C371.318 311.507 370.884 311.695 370.483 311.962C370.03 312.264 369.661 312.675 369.373 313.179C369.059 313.728 368.927 314.461 368.863 315.362L369.809 315.622C369.973 315.294 370.161 315.051 370.383 314.83C370.582 314.631 370.828 314.452 371.145 314.222C371.173 314.202 371.201 314.181 371.231 314.16C371.579 313.944 371.874 313.823 372.131 313.768H372.318C372.606 313.768 372.769 313.845 372.913 314.025C373.065 314.215 373.185 314.558 373.185 315.175C373.185 315.773 373.073 316.314 372.839 316.897C372.607 317.479 372.285 318.009 371.895 318.52C371.486 319.015 371.051 319.392 370.555 319.713C369.658 320.281 369.165 320.25 368.844 320.036C368.699 319.939 368.532 319.721 368.405 319.268C368.279 318.821 368.209 318.204 368.209 317.401C368.209 315.803 368.485 314.52 369.012 313.497C369.549 312.453 370.253 311.668 371.087 311.15C371.905 310.647 372.362 310.578 372.605 310.659C372.765 310.712 372.966 310.894 373.077 311.434L372.2 311.996ZM372.178 317.811L372.186 317.798L372.193 317.783C372.416 317.338 372.564 316.817 372.564 316.193C372.564 315.902 372.539 315.627 372.464 315.394C372.387 315.158 372.235 314.904 371.943 314.779C371.478 314.58 370.997 314.768 370.562 315.036C370.082 315.331 369.676 315.737 369.381 316.217C369.077 316.71 368.925 317.246 368.925 317.846C368.925 318.156 368.958 318.464 369.063 318.717C369.172 318.979 369.39 319.24 369.754 319.292C370.224 319.388 370.676 319.212 371.094 318.934C371.581 318.633 371.92 318.253 372.178 317.811Z" fill="white" stroke="white"/>
<path d="M380.865 307.646L380.873 307.653L380.881 307.661C380.976 307.748 381.091 307.927 381.181 308.257C381.269 308.583 381.322 309.021 381.322 309.581C381.322 310.705 381.14 311.643 380.768 312.415L380.765 312.422L380.761 312.429C380.42 313.197 379.914 313.757 379.297 314.15L379.297 314.15L379.288 314.155C378.98 314.361 378.726 314.421 378.516 314.421C378.361 314.421 378.238 314.371 378.098 314.21L377.914 314.001C378.351 314.209 378.86 314.01 379.246 313.743C379.702 313.427 380.096 313.047 380.337 312.524C380.571 312.018 380.669 311.364 380.669 310.63C380.669 310.262 380.645 309.93 380.587 309.657C380.535 309.409 380.436 309.104 380.203 308.911C379.961 308.708 379.668 308.682 379.417 308.727C379.176 308.77 378.932 308.885 378.699 309.028C378.601 309.088 378.509 309.153 378.423 309.221C378.546 308.992 378.682 308.802 378.824 308.644C379.077 308.364 379.421 308.076 379.796 307.845L379.796 307.845L379.802 307.841C380.112 307.644 380.344 307.566 380.511 307.552C380.651 307.54 380.759 307.57 380.859 307.64L380.865 307.646ZM377.311 313.171C377.337 313.28 377.373 313.392 377.425 313.499L377.232 314.439L377.02 315.47L376.6 315.733V307.659L377.222 307.257V309.581L377.943 309.704C377.812 309.871 377.699 310.049 377.599 310.234L377.592 310.247L377.585 310.261C377.358 310.754 377.222 311.401 377.222 312.187C377.222 312.568 377.246 312.9 377.311 313.171Z" fill="white" stroke="white"/>
<path d="M387.371 305.774C387.082 306.031 386.825 306.258 386.514 306.456C386.062 306.738 385.701 306.86 385.395 306.887C385.119 306.884 384.96 306.806 384.819 306.63C384.667 306.44 384.547 306.098 384.547 305.48C384.547 304.883 384.66 304.342 384.893 303.759C385.126 303.177 385.448 302.646 385.838 302.136C386.246 301.641 386.682 301.264 387.178 300.942C388.075 300.375 388.567 300.406 388.888 300.619L389.02 300.708C389.128 300.834 389.238 301.037 389.328 301.356C389.453 301.803 389.524 302.42 389.524 303.223C389.524 304.82 389.247 306.104 388.721 307.127C388.184 308.171 387.479 308.956 386.645 309.473C385.827 309.977 385.371 310.046 385.127 309.965C384.967 309.912 384.766 309.73 384.655 309.19L385.532 308.627C385.637 308.781 385.785 308.907 385.987 308.974C386.412 309.116 386.843 308.932 387.242 308.667C387.733 308.363 388.135 307.917 388.423 307.413C388.739 306.86 388.869 306.091 388.902 305.213L387.955 304.971C387.784 305.312 387.597 305.573 387.371 305.774ZM385.523 302.844L385.515 302.858L385.507 302.873C385.285 303.318 385.137 303.839 385.137 304.463C385.137 304.754 385.161 305.029 385.237 305.261C385.312 305.494 385.461 305.743 385.744 305.87C385.976 305.982 386.228 305.974 386.444 305.924C386.669 305.872 386.903 305.765 387.139 305.62C387.618 305.325 388.024 304.919 388.32 304.439C388.623 303.946 388.775 303.41 388.775 302.81C388.775 302.499 388.742 302.192 388.638 301.939C388.529 301.676 388.311 301.416 387.946 301.363C387.476 301.268 387.025 301.444 386.607 301.721C386.12 302.023 385.78 302.402 385.523 302.844Z" fill="white" stroke="white"/>
<path d="M395.482 298.776C395.891 298.503 396.229 298.392 396.506 298.383C396.714 298.391 396.868 298.474 396.989 298.646C397.128 298.846 397.248 299.236 397.248 299.822C397.248 300.715 397.019 301.552 396.551 302.371C396.083 303.19 395.442 303.86 394.654 304.356C393.837 304.859 393.381 304.928 393.138 304.847C392.978 304.794 392.776 304.612 392.665 304.072L393.543 303.51C393.648 303.663 393.795 303.789 393.998 303.857C394.422 303.998 394.853 303.814 395.252 303.549C395.736 303.25 396.08 302.869 396.311 302.446C396.554 302.001 396.658 301.467 396.658 300.871C396.658 300.591 396.633 300.331 396.567 300.109C396.501 299.888 396.383 299.658 396.164 299.504C395.933 299.342 395.669 299.319 395.431 299.366C395.208 299.41 394.988 299.518 394.781 299.652C394.399 299.883 394.126 300.157 393.899 300.498C393.745 300.729 393.616 300.959 393.527 301.211L392.887 301.424L393.326 297.062L396.612 294.978V295.414L393.984 297.079L393.782 297.207L393.754 297.444L393.532 299.351L393.322 301.147L394.425 299.714C394.706 299.348 395.041 299.041 395.462 298.788L395.472 298.782L395.482 298.776Z" fill="white" stroke="white"/>
<path d="M404.369 291.493C404.264 291.34 404.117 291.214 403.914 291.146C403.486 291.004 403.053 291.191 402.652 291.459C402.199 291.761 401.83 292.171 401.542 292.676C401.228 293.225 401.096 293.958 401.032 294.859L401.978 295.118C402.141 294.791 402.33 294.548 402.552 294.326C402.751 294.128 402.997 293.949 403.313 293.719C403.342 293.699 403.37 293.678 403.4 293.657C403.748 293.441 404.043 293.32 404.299 293.265H404.487C404.775 293.265 404.938 293.342 405.082 293.522L405.472 293.21L405.082 293.522C405.234 293.712 405.354 294.055 405.354 294.672C405.354 295.27 405.241 295.811 405.008 296.394C404.776 296.975 404.453 297.506 404.064 298.017C403.655 298.512 403.219 298.889 402.723 299.21C401.827 299.777 401.334 299.747 401.013 299.533C400.868 299.436 400.701 299.217 400.573 298.765C400.448 298.318 400.378 297.701 400.378 296.897C400.378 295.3 400.654 294.017 401.18 292.994C401.717 291.95 402.422 291.165 403.256 290.647C404.074 290.144 404.53 290.075 404.774 290.156C404.934 290.209 405.135 290.391 405.246 290.931L404.369 291.493ZM404.347 297.308L404.355 297.294L404.362 297.28C404.585 296.835 404.733 296.314 404.733 295.689C404.733 295.399 404.708 295.123 404.633 294.891C404.556 294.654 404.404 294.401 404.112 294.276C403.647 294.077 403.166 294.265 402.731 294.532C402.251 294.828 401.845 295.234 401.55 295.713C401.246 296.207 401.094 296.743 401.094 297.342C401.094 297.653 401.127 297.961 401.232 298.213C401.341 298.476 401.559 298.737 401.923 298.789C402.393 298.884 402.844 298.708 403.263 298.431C403.75 298.13 404.089 297.75 404.347 297.308Z" fill="white" stroke="white"/>
<path d="M410.626 288.57C410.08 288.946 409.702 289.432 409.519 290.067L408.922 290.451C408.958 290.363 408.998 290.273 409.041 290.181C409.268 289.7 409.583 289.264 409.978 288.808C410.375 288.381 410.75 288.04 411.167 287.79L411.167 287.79L411.174 287.785C411.65 287.488 412.047 287.342 412.347 287.319C412.661 287.295 412.8 287.37 412.886 287.468C413.009 287.609 413.112 287.83 413.112 288.251V290.762H413.302C413.112 290.762 413.112 290.762 413.112 290.762V290.763L413.112 290.763L413.112 290.764L413.112 290.766L413.112 290.77L413.112 290.782C413.112 290.792 413.112 290.805 413.113 290.82C413.115 290.848 413.118 290.892 413.126 290.94C413.133 290.98 413.149 291.062 413.191 291.147C413.224 291.212 413.364 291.453 413.675 291.453C413.678 291.453 413.681 291.453 413.684 291.453V292.075L412.562 292.779C412.462 292.835 412.388 292.874 412.331 292.901L412.147 292.256C412.298 291.921 412.363 291.54 412.363 291.144V290.953V290.035L411.592 290.533L410.607 291.169L410.6 291.173L410.593 291.178C410.186 291.46 409.797 291.758 409.581 292.061L409.572 292.074L409.564 292.087C409.402 292.345 409.233 292.643 409.233 293.019C409.233 293.171 409.254 293.343 409.34 293.505C409.433 293.68 409.572 293.784 409.7 293.848L409.924 293.401L409.7 293.848C409.927 293.961 410.162 293.929 410.325 293.879C410.493 293.827 410.657 293.736 410.81 293.623C410.895 293.57 410.977 293.516 411.055 293.462C410.937 293.627 410.812 293.777 410.683 293.905C410.371 294.217 410.089 294.467 409.826 294.625L409.818 294.63L409.81 294.634C409.196 295.034 408.858 295.078 408.672 295.021L408.655 295.016L408.638 295.012C408.587 295 408.542 294.976 408.496 294.887C408.44 294.779 408.39 294.583 408.39 294.259C408.39 293.655 408.596 293.09 409.021 292.525L409.021 292.525L409.028 292.515C409.449 291.925 410.15 291.33 411.143 290.709L411.143 290.71L411.149 290.706L412.134 290.07L412.363 289.922V289.65V289.364C412.363 288.992 412.231 288.514 411.735 288.349C411.327 288.213 410.936 288.376 410.645 288.558L410.635 288.564L410.626 288.57Z" fill="white" stroke="white"/>
<path d="M419.61 283.359C420.019 283.086 420.357 282.975 420.634 282.966C420.842 282.973 420.996 283.057 421.117 283.229C421.256 283.428 421.376 283.819 421.376 284.405C421.376 285.298 421.147 286.135 420.679 286.954C420.211 287.773 419.57 288.443 418.782 288.939C417.965 289.442 417.509 289.511 417.266 289.43C417.106 289.376 416.904 289.194 416.793 288.655L417.671 288.092C417.776 288.246 417.923 288.372 418.126 288.439C418.551 288.581 418.981 288.396 419.38 288.132C419.864 287.832 420.208 287.452 420.439 287.028C420.682 286.584 420.786 286.049 420.786 285.454C420.786 285.173 420.761 284.914 420.695 284.691C420.63 284.471 420.511 284.241 420.292 284.087C420.061 283.925 419.797 283.902 419.559 283.948C419.336 283.993 419.116 284.101 418.909 284.235C418.527 284.465 418.254 284.74 418.027 285.081C417.873 285.312 417.744 285.542 417.655 285.793L417.015 286.007L417.454 281.645L420.74 279.56V279.997L418.112 281.662L417.91 281.789L417.882 282.026L417.66 283.934L417.45 285.73L418.553 284.296C418.834 283.931 419.169 283.624 419.59 283.371L419.6 283.365L419.61 283.359Z" fill="white" stroke="white"/>
<path d="M428.497 276.108C428.392 275.955 428.245 275.829 428.042 275.761C427.615 275.618 427.181 275.806 426.78 276.074C426.327 276.376 425.958 276.786 425.67 277.291C425.356 277.839 425.224 278.572 425.16 279.474L426.106 279.733C426.27 279.406 426.458 279.163 426.68 278.941C426.879 278.742 427.125 278.564 427.442 278.334C427.47 278.314 427.498 278.293 427.528 278.271C427.876 278.055 428.171 277.935 428.428 277.88H428.615C428.903 277.88 429.066 277.957 429.21 278.137C429.362 278.327 429.482 278.669 429.482 279.287C429.482 279.885 429.37 280.426 429.136 281.009C428.904 281.59 428.582 282.121 428.192 282.632C427.783 283.126 427.348 283.503 426.852 283.825C425.955 284.392 425.462 284.361 425.141 284.148C424.996 284.051 424.829 283.832 424.702 283.379C424.576 282.932 424.506 282.316 424.506 281.512C424.506 279.915 424.782 278.632 425.309 277.608C425.846 276.565 426.55 275.78 427.384 275.262C428.202 274.759 428.659 274.689 428.902 274.771C429.062 274.824 429.263 275.006 429.374 275.545L428.497 276.108ZM428.475 281.923L428.483 281.909L428.49 281.895C428.713 281.449 428.861 280.928 428.861 280.304C428.861 280.014 428.836 279.738 428.761 279.506C428.684 279.269 428.532 279.016 428.24 278.891C427.775 278.692 427.294 278.88 426.859 279.147C426.379 279.443 425.973 279.848 425.678 280.328C425.374 280.822 425.222 281.358 425.222 281.957C425.222 282.268 425.255 282.575 425.36 282.828C425.469 283.091 425.687 283.352 426.051 283.404C426.521 283.499 426.973 283.323 427.391 283.046C427.878 282.744 428.217 282.365 428.475 281.923Z" fill="white" stroke="white"/>
<path d="M434.386 278.436L437.621 276.356V276.787L432.931 279.774V279.732C432.931 278.87 433.079 278.109 433.369 277.413C433.663 276.707 434.143 275.951 434.766 275.142L434.767 275.14L435.593 274.06L435.593 274.06L435.596 274.056L435.596 274.056L435.596 274.056L435.596 274.056L435.596 274.056L435.597 274.055L435.598 274.054L435.604 274.046L435.625 274.018C435.643 273.994 435.668 273.962 435.694 273.928C435.721 273.894 435.748 273.859 435.771 273.831C435.789 273.809 435.799 273.797 435.803 273.793C435.805 273.791 435.805 273.79 435.804 273.792L435.826 273.77L435.845 273.745C436.068 273.458 436.269 273.191 436.407 272.984C436.539 272.786 436.694 272.524 436.781 272.238C436.905 271.932 436.936 271.581 436.936 271.308C436.936 271.124 436.902 270.916 436.791 270.728C436.673 270.528 436.487 270.385 436.255 270.319C435.818 270.194 435.404 270.356 435.006 270.643C434.597 270.917 434.207 271.256 433.963 271.705C433.767 272.063 433.632 272.47 433.575 272.961L432.899 273.4C433.044 272.828 433.281 272.301 433.61 271.808C434.146 271.003 434.793 270.36 435.578 269.895L435.578 269.895L435.588 269.889C436.063 269.592 436.461 269.446 436.76 269.423C437.087 269.398 437.252 269.48 437.331 269.571L437.342 269.584L437.354 269.596C437.473 269.715 437.557 269.906 437.557 270.323C437.557 270.807 437.471 271.283 437.307 271.695C437.133 272.131 436.897 272.545 436.656 272.906C436.415 273.267 436.015 273.792 435.445 274.488L435.445 274.488L435.438 274.497L434.648 275.508C434.302 275.925 434.061 276.339 433.891 276.679L433.529 277.403H433.727C433.683 277.58 433.649 277.76 433.621 277.939L433.453 279.036L434.386 278.436Z" fill="white" stroke="white"/>
<path d="M442.888 273.6C442.752 273.696 442.651 273.734 442.584 273.748L442.508 273.726C442.504 273.709 442.499 273.678 442.499 273.629C442.499 273.447 442.571 273.225 442.77 272.912C442.956 272.62 443.188 272.392 443.432 272.245C443.569 272.163 443.679 272.114 443.761 272.091C443.8 272.08 443.826 272.076 443.843 272.075C443.847 272.093 443.851 272.123 443.851 272.166C443.851 272.348 443.779 272.57 443.579 272.883C443.395 273.173 443.156 273.412 442.888 273.6Z" fill="white" stroke="white"/>
<path d="M450.93 268.483C450.794 268.578 450.693 268.616 450.627 268.63L450.55 268.609C450.546 268.591 450.541 268.56 450.541 268.511C450.541 268.329 450.613 268.107 450.812 267.794C450.998 267.502 451.23 267.274 451.474 267.128C451.611 267.045 451.721 266.997 451.803 266.973C451.842 266.962 451.869 266.958 451.885 266.957C451.889 266.976 451.893 267.005 451.893 267.049C451.893 267.23 451.821 267.452 451.622 267.766C451.437 268.055 451.199 268.295 450.93 268.483Z" fill="white" stroke="white"/>
<path d="M458.974 263.365C458.838 263.46 458.737 263.499 458.67 263.513L458.594 263.491C458.59 263.473 458.584 263.442 458.584 263.393C458.584 263.211 458.657 262.989 458.856 262.676C459.042 262.384 459.274 262.156 459.518 262.01C459.655 261.928 459.765 261.879 459.847 261.855C459.886 261.844 459.912 261.84 459.929 261.839C459.933 261.858 459.937 261.887 459.937 261.931C459.937 262.112 459.865 262.334 459.665 262.648C459.481 262.937 459.242 263.177 458.974 263.365Z" fill="white" stroke="white"/>
<path d="M332.341 358.294L332.488 358.414C332.618 358.519 332.773 358.759 332.89 359.24C333.004 359.711 333.066 360.35 333.066 361.173C333.066 362.815 332.817 364.13 332.353 365.087C331.884 366.056 331.213 366.813 330.368 367.366C329.487 367.943 329.033 367.876 328.795 367.682C328.666 367.577 328.511 367.338 328.394 366.853C328.28 366.378 328.217 365.73 328.217 364.892C328.217 363.219 328.466 361.935 328.93 360.977C329.4 360.008 330.071 359.252 330.916 358.698C331.641 358.223 332.077 358.185 332.341 358.294ZM330.406 359.51C330.106 359.692 329.881 359.916 329.7 360.132H329.643L329.494 360.355C329.249 360.723 329.106 361.181 329.006 361.716C328.901 362.274 328.87 363.013 328.87 363.875V364.002V365.77L329.796 364.264L332.18 360.385L332.302 360.187L332.229 359.965C332.171 359.794 332.091 359.616 331.97 359.472C331.842 359.32 331.642 359.179 331.373 359.179C331.099 359.179 330.754 359.281 330.406 359.51ZM331.732 365.812L331.761 365.782L331.789 365.741C332.034 365.373 332.177 364.915 332.277 364.38C332.382 363.822 332.413 363.083 332.413 362.222V362.094V360.326L331.487 361.833L329.103 365.711L328.981 365.909L329.055 366.131C329.114 366.31 329.2 366.489 329.336 366.634C329.484 366.79 329.665 366.878 329.86 366.911L329.901 366.918H329.942C330.246 366.918 330.558 366.816 330.871 366.621C331.231 366.405 331.529 366.117 331.732 365.812Z" fill="white" stroke="white"/>
<path d="M336.462 363.354L338.12 359.794L338.284 359.442L337.984 359.196L336.23 357.759L337.315 357.07L338.335 358.066L338.849 358.567L339.141 357.911L340.383 355.125L340.784 354.87L339.251 358.064L339.084 358.41L339.377 358.66L341.248 360.257L340.186 360.936L339.045 359.746L338.525 359.203L338.226 359.893L336.824 363.122L336.462 363.354Z" fill="white" stroke="white"/>
<path d="M349.152 347.23V347.843L346.366 357.068L345.92 357.352L348.445 349.145L348.847 347.838L347.697 348.577L345.471 350.008L345.242 350.155V350.428V351.46L344.62 351.862V350.13L349.152 347.23Z" fill="white" stroke="white"/>
<path d="M355.27 346.426C355.678 346.153 356.017 346.042 356.294 346.034C356.501 346.041 356.655 346.124 356.776 346.297C356.915 346.496 357.035 346.886 357.035 347.472C357.035 348.366 356.806 349.202 356.338 350.021C355.87 350.84 355.229 351.51 354.442 352.007C353.624 352.509 353.169 352.578 352.925 352.497C352.765 352.444 352.564 352.262 352.453 351.722L353.33 351.16C353.435 351.313 353.582 351.439 353.785 351.507C354.21 351.648 354.641 351.464 355.04 351.199C355.523 350.9 355.868 350.519 356.099 350.096C356.341 349.651 356.446 349.117 356.446 348.521C356.446 348.241 356.42 347.982 356.354 347.759C356.289 347.538 356.17 347.308 355.951 347.154C355.72 346.992 355.456 346.969 355.219 347.016C354.995 347.06 354.776 347.168 354.568 347.303C354.187 347.533 353.914 347.807 353.686 348.148C353.532 348.379 353.404 348.609 353.314 348.861L352.674 349.074L353.113 344.712L356.4 342.628V343.065L353.771 344.729L353.57 344.857L353.542 345.094L353.319 347.001L353.11 348.797L354.212 347.364C354.494 346.998 354.829 346.691 355.249 346.439L355.26 346.433L355.27 346.426Z" fill="white" stroke="white"/>
<path d="M364.156 339.143C364.051 338.99 363.904 338.864 363.701 338.796C363.274 338.654 362.84 338.842 362.439 339.109C361.986 339.411 361.617 339.822 361.329 340.326C361.015 340.875 360.884 341.608 360.819 342.509L361.765 342.769C361.929 342.441 362.118 342.198 362.339 341.977C362.538 341.778 362.784 341.599 363.101 341.369C363.129 341.349 363.158 341.328 363.187 341.307C363.536 341.091 363.83 340.97 364.087 340.915H364.274C364.562 340.915 364.725 340.992 364.869 341.172L365.26 340.86L364.869 341.172C365.021 341.362 365.141 341.705 365.141 342.322C365.141 342.92 365.029 343.461 364.796 344.044C364.563 344.626 364.241 345.156 363.851 345.667C363.442 346.162 363.007 346.539 362.511 346.86C361.614 347.428 361.121 347.397 360.801 347.183C360.655 347.086 360.488 346.868 360.361 346.415C360.235 345.968 360.165 345.351 360.165 344.548C360.165 342.95 360.442 341.667 360.968 340.644C361.505 339.6 362.21 338.815 363.043 338.297C363.862 337.794 364.318 337.725 364.561 337.806C364.721 337.859 364.923 338.041 365.034 338.581L364.156 339.143ZM364.134 344.958L364.142 344.944L364.149 344.93C364.372 344.485 364.52 343.964 364.52 343.34C364.52 343.049 364.496 342.774 364.42 342.541C364.343 342.305 364.191 342.051 363.899 341.926L363.721 342.343L363.899 341.926C363.435 341.727 362.953 341.915 362.518 342.183C362.038 342.478 361.633 342.884 361.337 343.364C361.034 343.857 360.882 344.393 360.882 344.993C360.882 345.303 360.914 345.611 361.019 345.864C361.128 346.126 361.346 346.387 361.711 346.439C362.181 346.535 362.632 346.359 363.05 346.081C363.537 345.78 363.876 345.4 364.134 344.958Z" fill="white" stroke="white"/>
<path d="M372.2 334.025C372.095 333.872 371.948 333.746 371.745 333.678C371.318 333.536 370.884 333.724 370.483 333.991C370.03 334.293 369.661 334.704 369.373 335.208C369.059 335.757 368.927 336.49 368.863 337.391L369.809 337.651C369.973 337.323 370.161 337.08 370.383 336.859C370.582 336.66 370.828 336.481 371.145 336.252C371.173 336.231 371.201 336.21 371.231 336.189C371.579 335.973 371.874 335.852 372.131 335.797H372.318C372.606 335.797 372.769 335.874 372.913 336.055C373.065 336.244 373.185 336.587 373.185 337.204C373.185 337.802 373.073 338.343 372.839 338.926C372.607 339.508 372.285 340.038 371.895 340.549C371.486 341.044 371.051 341.421 370.555 341.742C369.658 342.31 369.165 342.279 368.844 342.065C368.699 341.968 368.532 341.75 368.405 341.297C368.279 340.85 368.209 340.233 368.209 339.43C368.209 337.833 368.485 336.549 369.012 335.526C369.549 334.482 370.253 333.697 371.087 333.179C371.905 332.676 372.362 332.607 372.605 332.688C372.765 332.741 372.966 332.923 373.077 333.463L372.2 334.025ZM372.178 339.84L372.186 339.827L372.193 339.812C372.416 339.367 372.564 338.846 372.564 338.222C372.564 337.931 372.539 337.656 372.464 337.423C372.387 337.187 372.235 336.934 371.943 336.808C371.478 336.609 370.997 336.797 370.562 337.065C370.082 337.36 369.676 337.766 369.381 338.246C369.077 338.739 368.925 339.275 368.925 339.875C368.925 340.185 368.958 340.493 369.063 340.746C369.172 341.008 369.39 341.269 369.754 341.322C370.224 341.417 370.676 341.241 371.094 340.963C371.581 340.662 371.92 340.282 372.178 339.84Z" fill="white" stroke="white"/>
<path d="M380.865 329.643L380.873 329.651L380.881 329.658C380.976 329.745 381.091 329.924 381.181 330.254C381.269 330.58 381.322 331.018 381.322 331.578C381.322 332.702 381.14 333.64 380.768 334.413L380.765 334.42L380.761 334.427C380.42 335.194 379.914 335.754 379.297 336.147L379.297 336.147L379.288 336.153C378.98 336.358 378.726 336.418 378.516 336.418C378.361 336.418 378.238 336.368 378.098 336.208L377.914 335.998C378.351 336.207 378.86 336.008 379.246 335.74C379.702 335.424 380.096 335.044 380.337 334.521C380.571 334.016 380.669 333.362 380.669 332.627C380.669 332.259 380.645 331.927 380.587 331.654C380.535 331.407 380.436 331.102 380.203 330.908C379.961 330.706 379.668 330.679 379.417 330.724C379.176 330.768 378.932 330.882 378.699 331.025C378.601 331.085 378.509 331.15 378.423 331.218C378.546 330.989 378.682 330.799 378.824 330.641C379.077 330.361 379.421 330.073 379.796 329.842L379.796 329.842L379.802 329.838C380.112 329.641 380.344 329.563 380.511 329.549C380.651 329.537 380.759 329.567 380.859 329.637L380.865 329.643ZM377.311 335.168C377.337 335.277 377.373 335.39 377.425 335.497L377.232 336.437L377.02 337.467L376.6 337.731V329.657L377.222 329.255V331.578L377.943 331.702C377.812 331.868 377.699 332.046 377.599 332.231L377.592 332.245L377.585 332.259C377.358 332.752 377.222 333.399 377.222 334.185C377.222 334.565 377.246 334.897 377.311 335.168Z" fill="white" stroke="white"/>
<path d="M387.371 327.803C387.082 328.06 386.825 328.287 386.514 328.485C386.062 328.767 385.701 328.889 385.395 328.916C385.119 328.913 384.96 328.835 384.819 328.659C384.667 328.469 384.547 328.127 384.547 327.509C384.547 326.912 384.66 326.371 384.893 325.788C385.126 325.206 385.448 324.676 385.838 324.165C386.246 323.67 386.682 323.293 387.178 322.971C388.075 322.404 388.567 322.435 388.888 322.649L389.02 322.737C389.128 322.863 389.238 323.066 389.328 323.385C389.453 323.832 389.524 324.449 389.524 325.252C389.524 326.849 389.247 328.133 388.721 329.156C388.184 330.2 387.479 330.985 386.645 331.503C385.827 332.006 385.371 332.075 385.127 331.994C384.967 331.941 384.766 331.759 384.655 331.219L385.532 330.656C385.637 330.81 385.785 330.936 385.987 331.003C386.412 331.145 386.843 330.961 387.242 330.696C387.733 330.392 388.135 329.946 388.423 329.442C388.739 328.889 388.869 328.12 388.902 327.242L387.955 327C387.784 327.341 387.597 327.602 387.371 327.803ZM385.523 324.873L385.515 324.887L385.507 324.902C385.285 325.347 385.137 325.868 385.137 326.492C385.137 326.783 385.161 327.058 385.237 327.29C385.312 327.523 385.461 327.772 385.744 327.899C385.976 328.011 386.228 328.003 386.445 327.953C386.669 327.901 386.903 327.794 387.139 327.649C387.618 327.354 388.024 326.948 388.32 326.468C388.623 325.975 388.775 325.439 388.775 324.839C388.775 324.528 388.742 324.221 388.638 323.968C388.529 323.705 388.311 323.445 387.946 323.392C387.476 323.297 387.025 323.473 386.607 323.751C386.12 324.052 385.78 324.432 385.523 324.873Z" fill="white" stroke="white"/>
<path d="M395.482 320.773C395.891 320.501 396.229 320.389 396.506 320.381C396.714 320.388 396.868 320.472 396.989 320.644C397.128 320.843 397.248 321.234 397.248 321.819C397.248 322.713 397.019 323.55 396.551 324.369C396.083 325.187 395.442 325.858 394.654 326.354C393.837 326.856 393.381 326.925 393.138 326.844C392.978 326.791 392.776 326.609 392.665 326.07L393.543 325.507C393.648 325.66 393.795 325.786 393.998 325.854C394.422 325.996 394.853 325.811 395.252 325.546C395.736 325.247 396.08 324.867 396.311 324.443C396.554 323.998 396.658 323.464 396.658 322.868C396.658 322.588 396.633 322.329 396.567 322.106C396.501 321.885 396.383 321.655 396.164 321.501C395.933 321.339 395.669 321.316 395.431 321.363C395.208 321.407 394.988 321.515 394.781 321.65C394.399 321.88 394.126 322.154 393.899 322.496C393.745 322.727 393.616 322.956 393.527 323.208L392.887 323.421L393.326 319.06L396.612 316.975V317.412L393.984 319.076L393.782 319.204L393.754 319.441L393.532 321.348L393.322 323.144L394.425 321.711C394.706 321.345 395.041 321.038 395.462 320.786L395.472 320.78L395.482 320.773Z" fill="white" stroke="white"/>
<path d="M404.369 313.491C404.264 313.337 404.117 313.211 403.914 313.144C403.486 313.001 403.053 313.189 402.652 313.456C402.199 313.758 401.83 314.169 401.542 314.673C401.228 315.222 401.096 315.955 401.032 316.856L401.978 317.116C402.141 316.788 402.33 316.545 402.552 316.324C402.751 316.125 402.997 315.946 403.313 315.717C403.341 315.696 403.37 315.675 403.4 315.654C403.748 315.438 404.043 315.317 404.299 315.262H404.487C404.775 315.262 404.938 315.34 405.082 315.52L405.472 315.207L405.082 315.52C405.234 315.709 405.354 316.052 405.354 316.67C405.354 317.267 405.241 317.808 405.008 318.391C404.776 318.973 404.453 319.503 404.064 320.014C403.655 320.509 403.219 320.886 402.723 321.207C401.827 321.775 401.334 321.744 401.013 321.53C400.868 321.433 400.701 321.215 400.573 320.762C400.448 320.315 400.378 319.698 400.378 318.895C400.378 317.298 400.654 316.014 401.18 314.991C401.717 313.947 402.422 313.162 403.256 312.645C404.074 312.141 404.53 312.072 404.774 312.153C404.934 312.206 405.135 312.388 405.246 312.928L404.369 313.491ZM404.347 319.306L404.355 319.292L404.362 319.277C404.585 318.832 404.733 318.311 404.733 317.687C404.733 317.396 404.708 317.121 404.633 316.889C404.556 316.652 404.404 316.399 404.112 316.274C403.647 316.074 403.166 316.262 402.731 316.53C402.251 316.825 401.845 317.231 401.55 317.711C401.246 318.204 401.094 318.74 401.094 319.34C401.094 319.65 401.127 319.958 401.232 320.211C401.341 320.473 401.559 320.734 401.923 320.787C402.393 320.882 402.844 320.706 403.263 320.428C403.75 320.127 404.089 319.747 404.347 319.306Z" fill="white" stroke="white"/>
<path d="M410.626 310.599C410.08 310.975 409.702 311.461 409.519 312.096L408.922 312.48C408.958 312.392 408.998 312.302 409.041 312.21C409.268 311.729 409.583 311.293 409.978 310.837C410.375 310.41 410.75 310.069 411.167 309.819L411.167 309.819L411.174 309.814C411.65 309.517 412.047 309.371 412.347 309.348C412.661 309.324 412.8 309.399 412.886 309.497C413.009 309.638 413.112 309.859 413.112 310.28V312.791H413.302C413.112 312.791 413.112 312.791 413.112 312.791V312.792L413.112 312.792L413.112 312.793L413.112 312.795L413.112 312.799L413.112 312.811C413.112 312.821 413.112 312.834 413.113 312.849C413.115 312.877 413.118 312.921 413.126 312.969C413.133 313.009 413.149 313.091 413.191 313.176C413.224 313.241 413.364 313.482 413.675 313.482C413.678 313.482 413.681 313.482 413.684 313.482V314.104L412.562 314.808C412.462 314.864 412.388 314.903 412.331 314.93L412.147 314.285C412.298 313.95 412.363 313.569 412.363 313.173V312.982V312.064L411.592 312.562L410.607 313.198L410.6 313.202L410.593 313.207C410.186 313.489 409.797 313.787 409.581 314.09L409.572 314.103L409.564 314.116C409.402 314.375 409.233 314.672 409.233 315.048C409.233 315.2 409.254 315.372 409.34 315.534C409.433 315.709 409.572 315.813 409.7 315.877C409.927 315.99 410.162 315.958 410.325 315.908C410.493 315.856 410.657 315.765 410.81 315.652C410.895 315.599 410.977 315.545 411.055 315.491C410.937 315.656 410.812 315.806 410.683 315.934C410.371 316.247 410.089 316.496 409.826 316.654L409.818 316.659L409.81 316.664C409.196 317.063 408.858 317.107 408.672 317.05L408.655 317.045L408.638 317.041C408.587 317.029 408.542 317.005 408.496 316.916C408.44 316.808 408.39 316.612 408.39 316.288C408.39 315.684 408.596 315.119 409.021 314.554L409.021 314.554L409.028 314.544C409.449 313.954 410.15 313.359 411.143 312.739L411.143 312.739L411.149 312.735L412.134 312.099L412.363 311.951V311.679V311.393C412.363 311.021 412.231 310.543 411.735 310.378C411.327 310.242 410.936 310.405 410.645 310.587L410.635 310.593L410.626 310.599Z" fill="white" stroke="white"/>
<path d="M419.61 305.388C420.019 305.115 420.357 305.004 420.634 304.995C420.842 305.002 420.996 305.086 421.117 305.258C421.256 305.457 421.376 305.848 421.376 306.434C421.376 307.327 421.147 308.164 420.679 308.983C420.211 309.802 419.57 310.472 418.782 310.968C417.965 311.471 417.509 311.54 417.266 311.459C417.106 311.406 416.904 311.223 416.793 310.684L417.671 310.121C417.776 310.275 417.923 310.401 418.126 310.468C418.551 310.61 418.981 310.425 419.38 310.161C419.864 309.861 420.208 309.481 420.439 309.057C420.682 308.613 420.786 308.078 420.786 307.483C420.786 307.202 420.761 306.943 420.695 306.721C420.63 306.5 420.511 306.27 420.292 306.116C420.061 305.954 419.797 305.931 419.559 305.978C419.336 306.022 419.116 306.13 418.909 306.264C418.527 306.494 418.254 306.769 418.027 307.11C417.873 307.341 417.744 307.571 417.655 307.822L417.015 308.036L417.454 303.674L420.74 301.589V302.026L418.112 303.691L417.91 303.818L417.882 304.055L417.66 305.963L417.45 307.759L418.553 306.325C418.834 305.96 419.169 305.653 419.59 305.4L419.6 305.394L419.61 305.388Z" fill="white" stroke="white"/>
<path d="M428.497 298.105C428.392 297.952 428.245 297.826 428.042 297.758C427.615 297.616 427.181 297.804 426.78 298.071C426.327 298.373 425.958 298.783 425.67 299.288C425.356 299.837 425.224 300.57 425.16 301.471L426.106 301.73C426.27 301.403 426.458 301.16 426.68 300.939C426.879 300.74 427.125 300.561 427.442 300.331C427.47 300.311 427.498 300.29 427.528 300.269C427.876 300.053 428.171 299.932 428.428 299.877H428.615C428.903 299.877 429.066 299.954 429.21 300.134C429.362 300.324 429.482 300.667 429.482 301.284C429.482 301.882 429.37 302.423 429.136 303.006C428.904 303.587 428.582 304.118 428.192 304.629C427.783 305.124 427.348 305.501 426.852 305.822C425.955 306.389 425.462 306.359 425.141 306.145C424.996 306.048 424.829 305.829 424.702 305.377C424.576 304.93 424.506 304.313 424.506 303.509C424.506 301.912 424.782 300.629 425.309 299.606C425.846 298.562 426.55 297.777 427.384 297.259C428.202 296.756 428.659 296.687 428.902 296.768C429.062 296.821 429.263 297.003 429.374 297.543L428.497 298.105ZM428.475 303.92L428.483 303.906L428.49 303.892C428.713 303.447 428.861 302.926 428.861 302.302C428.861 302.011 428.836 301.735 428.761 301.503C428.684 301.266 428.532 301.013 428.24 300.888C427.775 300.689 427.294 300.877 426.859 301.145C426.379 301.44 425.973 301.846 425.678 302.326C425.374 302.819 425.222 303.355 425.222 303.954C425.222 304.265 425.255 304.573 425.36 304.825C425.469 305.088 425.687 305.349 426.051 305.401C426.521 305.497 426.973 305.32 427.391 305.043C427.878 304.742 428.217 304.362 428.475 303.92Z" fill="white" stroke="white"/>
<path d="M434.386 300.465L437.621 298.386V298.817L432.931 301.803V301.761C432.931 300.899 433.079 300.138 433.369 299.442C433.663 298.736 434.143 297.98 434.766 297.171L434.767 297.169L435.593 296.089L435.593 296.089L435.596 296.085L435.596 296.085L435.596 296.085L435.596 296.085L435.596 296.085L435.597 296.084L435.598 296.083L435.604 296.075L435.625 296.047C435.643 296.023 435.668 295.991 435.694 295.957C435.721 295.923 435.748 295.888 435.771 295.86C435.789 295.838 435.799 295.826 435.803 295.822C435.805 295.82 435.805 295.819 435.804 295.821L435.826 295.799L435.845 295.774C436.068 295.487 436.269 295.22 436.407 295.013C436.539 294.815 436.694 294.553 436.781 294.267C436.905 293.961 436.936 293.61 436.936 293.337C436.936 293.153 436.902 292.945 436.791 292.757C436.673 292.557 436.487 292.414 436.255 292.348C435.818 292.223 435.404 292.385 435.006 292.672C434.597 292.946 434.207 293.285 433.963 293.734C433.767 294.092 433.632 294.499 433.575 294.99L432.899 295.429C433.044 294.857 433.281 294.33 433.61 293.837C434.146 293.032 434.793 292.389 435.578 291.924L435.578 291.924L435.588 291.918C436.063 291.621 436.461 291.475 436.76 291.452C437.087 291.427 437.252 291.509 437.331 291.6L437.342 291.613L437.354 291.625C437.473 291.744 437.557 291.935 437.557 292.352C437.557 292.836 437.471 293.312 437.307 293.724C437.133 294.16 436.897 294.574 436.656 294.935C436.415 295.296 436.015 295.821 435.445 296.517L435.445 296.517L435.438 296.526L434.648 297.537C434.302 297.954 434.061 298.368 433.891 298.708L433.529 299.432H433.727C433.683 299.609 433.649 299.789 433.621 299.968L433.453 301.065L434.386 300.465Z" fill="white" stroke="white"/>
<path d="M442.888 295.63C442.752 295.725 442.651 295.763 442.584 295.777L442.508 295.756C442.504 295.738 442.499 295.707 442.499 295.658C442.499 295.476 442.571 295.254 442.77 294.941C442.956 294.649 443.188 294.421 443.432 294.275C443.569 294.192 443.679 294.144 443.761 294.12C443.8 294.109 443.826 294.105 443.843 294.104C443.847 294.123 443.851 294.152 443.851 294.196C443.851 294.377 443.779 294.599 443.579 294.913C443.395 295.202 443.156 295.442 442.888 295.63Z" fill="white" stroke="white"/>
<path d="M450.93 290.48C450.794 290.575 450.693 290.614 450.627 290.628L450.55 290.606C450.546 290.588 450.541 290.557 450.541 290.508C450.541 290.327 450.613 290.105 450.812 289.791C450.998 289.499 451.23 289.271 451.474 289.125C451.611 289.043 451.721 288.994 451.803 288.97C451.842 288.959 451.869 288.956 451.885 288.954C451.889 288.973 451.893 289.002 451.893 289.046C451.893 289.227 451.821 289.449 451.622 289.763C451.437 290.053 451.199 290.292 450.93 290.48Z" fill="white" stroke="white"/>
<path d="M458.974 285.362C458.838 285.458 458.737 285.496 458.67 285.51L458.594 285.488C458.59 285.47 458.584 285.439 458.584 285.39C458.584 285.209 458.657 284.987 458.856 284.673C459.042 284.381 459.274 284.153 459.518 284.007C459.655 283.925 459.765 283.876 459.847 283.852C459.886 283.841 459.912 283.838 459.929 283.837C459.933 283.855 459.937 283.884 459.937 283.928C459.937 284.109 459.865 284.332 459.665 284.645C459.481 284.935 459.242 285.174 458.974 285.362Z" fill="white" stroke="white"/>
<path d="M466.833 145.702C466.953 145.771 467.16 146.004 467.17 146.617C467.18 147.207 466.989 147.977 466.541 148.753C466.093 149.529 465.521 150.08 465.006 150.366C464.47 150.664 464.164 150.601 464.044 150.532C463.924 150.463 463.717 150.229 463.707 149.616C463.697 149.027 463.888 148.256 464.336 147.48C464.784 146.704 465.356 146.153 465.871 145.867C466.407 145.57 466.713 145.632 466.833 145.702Z" fill="white" stroke="white" stroke-width="2"/>
<path d="M457.894 151.074C458.014 151.143 458.221 151.377 458.231 151.989C458.241 152.579 458.05 153.349 457.602 154.125C457.154 154.902 456.582 155.452 456.067 155.738C455.531 156.036 455.225 155.973 455.105 155.904C454.985 155.835 454.778 155.601 454.768 154.988C454.758 154.399 454.949 153.628 455.397 152.852C455.845 152.076 456.417 151.525 456.932 151.239C457.468 150.942 457.774 151.004 457.894 151.074Z" fill="white" stroke="white" stroke-width="2"/>
<path d="M448.247 157.431C448.367 157.5 448.574 157.733 448.584 158.346C448.594 158.936 448.403 159.706 447.955 160.482C447.507 161.258 446.935 161.809 446.419 162.095C445.884 162.393 445.578 162.33 445.458 162.261C445.338 162.192 445.131 161.958 445.12 161.345C445.111 160.756 445.301 159.985 445.75 159.209C446.198 158.433 446.77 157.882 447.285 157.596C447.821 157.299 448.127 157.361 448.247 157.431Z" fill="white" stroke="white" stroke-width="2"/>
<path d="M478.284 352.333L304 466V239.424L478.284 125V352.333Z" stroke="white" stroke-width="2" stroke-miterlimit="10"/>
<path d="M304.001 267.5L478.501 154" stroke="white" stroke-width="2" stroke-miterlimit="10"/>
<path d="M464 123.5H478L303 238V468L295.5 462V233L464 123.5Z" fill="white" stroke="white"/>
</svg>
