<svg width="369" height="470" viewBox="0 0 369 470" fill="none" xmlns="http://www.w3.org/2000/svg">
<path d="M124.66 156.02L239.56 90.3199L244.56 93.2199V300.12L129.86 365.92L124.66 362.82V156.02Z" fill="white"/>
<path d="M130.76 159.62L243.16 95.52V299.32L131.06 363.52L130.76 159.62Z" fill="#262C33"/>
<path d="M137.58 238.03V242.33L236.25 185.46L236.35 181.36L137.58 238.03Z" fill="#F5F6F8"/>
<path d="M137.58 246.64V250.94L236.25 194.07L236.35 189.97L137.58 246.64Z" fill="#F5F6F8"/>
<path d="M137.58 255.7V260L236.25 203.13L236.35 199.03L137.58 255.7Z" fill="#F5F6F8"/>
<path d="M137.58 264.77V269.07L236.25 212.2L236.35 208.1L137.58 264.77Z" fill="#F5F6F8"/>
<path d="M137.58 273.06V277.26L163.48 262.36L163.58 258.26L137.58 273.06Z" fill="#F5F6F8"/>
<path d="M210.35 293.01V297.21L236.25 282.31L236.35 278.21L210.35 293.01Z" fill="#F5F6F8"/>
<path d="M262.47 109.1L185.08 153.24V114.39L262.47 69.9399V109.1Z" fill="white"/>
<path d="M187.72 115.94V149.2L260.14 107.55V74.45L187.72 115.94Z" fill="#262C33"/>
<path d="M242.501 99.5835C244.11 97.4629 244.416 94.986 243.184 94.0513C241.952 93.1165 239.649 94.0779 238.04 96.1986C236.431 98.3192 236.125 100.796 237.357 101.731C238.589 102.666 240.892 101.704 242.501 99.5835Z" fill="white"/>
<path d="M253.658 93.1443C255.267 91.0237 255.573 88.5468 254.341 87.612C253.109 86.6773 250.806 87.6387 249.197 89.7593C247.588 91.88 247.282 94.3569 248.514 95.2916C249.746 96.2263 252.049 95.265 253.658 93.1443Z" fill="white"/>
<path d="M228.94 107.415C230.549 105.294 230.855 102.817 229.623 101.883C228.391 100.948 226.088 101.909 224.479 104.03C222.87 106.15 222.564 108.627 223.796 109.562C225.028 110.497 227.331 109.535 228.94 107.415Z" fill="white"/>
<path d="M137.58 169.21L174.88 147.61L179.88 150.61V193.51L142.88 215.11L137.58 212.01V169.21Z" fill="#F5F6F8"/>
<path d="M143.68 172.81L178.48 152.81V192.71L143.98 212.81L143.68 172.81Z" fill="#262C33"/>
<path d="M91.6801 277.65L126.48 256.72" stroke="white" stroke-miterlimit="10"/>
<path d="M91.6801 277.65L128.41 264.37" stroke="white" stroke-miterlimit="10"/>
<path d="M127.66 272.32L91.6801 277.65" stroke="white" stroke-miterlimit="10"/>
<path d="M90.72 185.88L125.52 164.95" stroke="white" stroke-miterlimit="10"/>
<path d="M90.72 185.88L127.45 172.6" stroke="white" stroke-miterlimit="10"/>
<path d="M126.7 180.55L90.72 185.88" stroke="white" stroke-miterlimit="10"/>
<path d="M278.5 261.18L243.7 282.11" stroke="white" stroke-miterlimit="10"/>
<path d="M279.56 260.54L243.55 273.45" stroke="white" stroke-miterlimit="10"/>
<path d="M243.59 265.88L279.56 260.54" stroke="white" stroke-miterlimit="10"/>
<path d="M279.56 164.95L243.94 186.3" stroke="white" stroke-miterlimit="10"/>
<path d="M279.56 164.95L243.55 177.97" stroke="white" stroke-miterlimit="10"/>
<path d="M243.59 170.28L279.56 164.95" stroke="white" stroke-miterlimit="10"/>
<path d="M142.85 376.67V341.27L173.13 323.49L183.63 329.57L183.68 364.96L153.17 382.87L142.85 376.67Z" fill="white"/>
<path d="M183.02 329.76L152.82 346.97L143.44 341.36L173.36 324.06L183.02 329.76Z" fill="#262C33"/>
<path d="M165.25 375.17C165.36 375.11 165.47 375.05 165.58 374.99C166.43 374.49 167.28 373.99 168.13 373.49C170.89 371.89 173.65 370.31 176.41 368.72C176.44 368.7 176.47 368.69 176.51 368.67C177.63 368.01 178.76 367.36 179.89 366.7C180.94 366.09 181.98 365.49 183.04 364.89C183.2 364.8 183.28 364.7 183.25 364.52C183.25 364.42 183.24 364.32 183.24 364.21C183.24 359.45 183.25 341.08 183.25 340.81V340.7C183.23 338.44 183.22 336.18 183.25 333.91V330.11C182.98 330.26 182.74 330.4 182.5 330.54C178.5 332.85 153.94 346.85 153.48 347.1C153.26 347.22 153.19 347.4 153.2 347.63V363.53C153.2 365.72 153.2 367.91 153.2 370.09C153.2 370.34 153.35 381.04 153.35 381.7C153.35 381.9 153.44 381.95 153.62 381.85C154.05 381.61 154.48 381.37 154.9 381.12C155.96 380.5 157.01 379.88 158.08 379.27C158.8 378.85 159.53 378.44 160.26 378.03C161.39 377.37 162.52 376.71 163.65 376.05C164.19 375.74 164.73 375.43 165.27 375.12L165.25 375.17Z" fill="#262C33"/>
<path d="M179.26 353.44C179.36 352.79 179.32 352.14 179.26 351.49C179.09 349.96 178.62 348.54 177.65 347.33C176.59 345.99 175.19 345.22 173.51 344.94C173.08 344.87 172.67 344.69 172.25 344.59C171.34 344.4 170.44 344.38 169.53 344.49C169.36 344.52 168.84 344.61 168.74 344.65C167.82 344.81 166.96 345.14 166.14 345.55C163.73 346.75 161.85 348.55 160.33 350.76C160.05 351.18 159.77 351.59 159.55 352.05L159.5 352.11C158.51 353.91 157.84 355.83 157.63 357.89C157.46 359.52 157.56 361.12 158.15 362.65C159.08 365.06 160.79 366.54 163.37 366.97C163.63 367.01 163.89 367.12 164.15 367.19C164.23 367.21 164.3 367.24 164.38 367.26C164.48 367.29 164.59 367.31 164.69 367.33C164.71 367.33 164.72 367.33 164.74 367.33C164.85 367.34 165.17 367.39 165.36 367.4C166.14 367.51 166.91 367.45 167.67 367.3C170.09 366.82 172.14 365.62 173.92 363.96C176.46 361.6 178.19 358.74 178.98 355.34C179.12 354.72 179.24 354.09 179.24 353.45L179.26 353.44ZM178.68 353.93C178.28 357.02 176.96 359.7 174.98 362.07C173.76 363.53 172.33 364.75 170.64 365.64C169.39 366.3 168.06 366.77 166.63 366.86C166.35 366.88 166.07 366.9 165.79 366.92C165.77 366.92 165.75 366.94 165.73 366.96C165.7 366.91 165.65 366.87 165.58 366.87C165.27 366.83 164.96 366.79 164.65 366.74C164.58 366.73 164.53 366.74 164.48 366.78C164.48 366.78 164.48 366.76 164.47 366.76C164.29 366.62 164.06 366.58 163.85 366.51C162.65 366.06 161.73 365.28 161.02 364.22C160.93 364.09 160.63 363.51 160.57 363.39C160.16 362.47 159.92 361.51 159.84 360.5C159.67 358.46 160.07 356.51 160.82 354.62C161.68 352.41 162.99 350.49 164.7 348.86C166.22 347.41 167.95 346.3 170 345.74C171.63 345.3 173.25 345.25 174.83 345.9C176.57 346.62 177.67 347.94 178.28 349.69C178.62 350.67 178.77 351.68 178.73 352.72C178.72 353.05 178.7 353.39 178.75 353.72C178.68 353.76 178.67 353.85 178.66 353.94L178.68 353.93Z" fill="white"/>
<path d="M164.41 366.83C164.86 366.9 165.31 366.97 165.76 367.04C168.34 367.07 170.57 366.1 172.56 364.56C175.59 362.21 177.61 359.17 178.55 355.43C178.69 354.86 178.77 354.28 178.86 353.7C178.92 352.52 178.92 351.33 178.59 350.18C177.87 347.66 176.33 345.97 173.71 345.41C172.04 345.05 170.43 345.35 168.87 345.96C166.71 346.81 164.95 348.21 163.46 349.96C161.68 352.06 160.45 354.44 159.91 357.15C159.52 359.08 159.53 361 160.21 362.88C160.33 363.19 160.47 363.5 160.61 363.8C160.64 363.83 160.61 363.89 160.67 363.91C161.26 364.89 162.01 365.71 163.02 366.27C163.46 366.52 163.94 366.68 164.41 366.83Z" fill="#262C33"/>
<path d="M168.57 358.47C168.57 360.23 168.57 361.99 168.58 363.74C168.58 363.9 168.53 364.1 168.79 364.11C169.13 363.92 171.03 362.74 171.26 362.61C171.4 362.53 171.38 362.39 171.38 362.26C171.38 360.55 171.38 358.85 171.38 357.13C171.38 356.91 171.45 356.75 171.59 356.58C172.48 355.58 173.13 354.46 173.36 353.12C173.43 352.68 173.44 352.23 173.32 351.79C173.06 350.81 172.17 350.33 171.07 350.58C170.25 350.77 169.56 351.2 168.94 351.76C167.77 352.82 166.95 354.1 166.64 355.66C166.32 356.76 166.55 359.16 168.57 358.44V358.47Z" fill="white"/>
<path d="M150.27 330.36C150.27 330.55 150.27 330.75 150.27 330.95C150.27 331.99 150.27 333.03 150.28 334.08C150.33 334.91 150.29 335.74 150.3 336.56C150.3 336.71 150.3 336.86 150.32 337V341.2L154.28 342.99C154.28 342.99 155.46 339.53 155.46 339.33C155.42 334.9 155.23 330.2 155.23 325.77C155.23 321.66 155.88 317.97 158.23 314.57C159.13 313.26 159.32 311.81 160.78 311.11C162.12 310.47 163.46 310.37 164.8 311.13C164.91 311.19 165.01 311.28 165.12 311.35C165.14 311.41 165.19 311.43 165.24 311.45C166.06 312.06 166.58 312.89 166.97 313.8C167.56 315.14 167.79 316.56 167.84 318.01C167.87 318.85 167.84 319.68 167.84 320.53C167.81 320.57 167.81 320.61 167.84 320.65C167.84 321.85 167.85 323.05 167.85 324.25C167.85 325.81 167.76 331.62 167.76 331.62L171.82 332.63C171.82 332.63 171.92 328.69 171.92 328.52C171.92 324.31 171.96 320.38 171.92 316.17C171.89 313.72 173.34 310.68 172.3 308.43C171.62 306.97 169.44 305.71 168.05 304.84C166.61 303.92 163.99 304.13 162.36 304.54C162.3 304.55 162.25 304.56 162.2 304.57C161.8 304.69 161.39 304.81 161.03 305C160.31 305.36 159.62 305.78 158.99 306.28C157.26 307.64 155.9 309.33 154.75 311.18C154.14 312.15 153.63 313.18 153.13 314.21C153.11 314.22 153.09 314.24 153.09 314.27C152.83 314.92 152.55 315.57 152.3 316.23C151.79 317.6 151.36 319.01 151.05 320.44C151.05 320.48 150.65 322.36 150.55 323.16C150.42 324.13 150.32 325.1 150.27 326.08C150.26 326.4 150.27 329.48 150.27 330.37V330.36Z" fill="white"/>
<path d="M154.33 332.13C154.33 332.32 154.33 332.52 154.33 332.72C154.33 333.76 154.33 334.8 154.34 335.85C154.39 336.68 154.35 337.51 154.36 338.33C154.36 338.48 154.36 338.63 154.38 338.77V342.83C154.98 342.52 155.5 342.24 156.02 341.96C156.61 341.65 157.2 341.32 157.8 341.02C157.98 340.93 158.03 340.82 158.02 340.63C157.98 336.2 157.92 331.77 157.92 327.34C157.92 323.23 159.02 319.43 161.37 316.03C162.27 314.72 163.37 313.6 164.83 312.89C166.17 312.25 167.51 312.15 168.85 312.91C168.96 312.97 169.06 313.06 169.17 313.13C169.19 313.19 169.24 313.21 169.29 313.23C170.11 313.84 170.63 314.67 171.02 315.58C171.61 316.92 171.84 318.34 171.89 319.79C171.92 320.63 171.89 321.46 171.89 322.31C171.86 322.35 171.86 322.39 171.89 322.43C171.89 323.63 171.9 324.83 171.9 326.03V330.72C171.9 330.72 171.87 330.79 171.9 330.83V332.47C172.3 332.26 172.64 332.09 172.98 331.91C173.76 331.49 174.54 331.07 175.33 330.66C175.48 330.58 175.54 330.49 175.54 330.31C175.54 326.1 175.56 321.9 175.51 317.69C175.48 315.24 175.08 312.85 174.03 310.6C173.35 309.14 172.44 307.86 171.05 306.98C169.61 306.06 168.04 305.9 166.41 306.32C166.35 306.33 166.3 306.34 166.25 306.35C165.85 306.47 165.44 306.59 165.08 306.78C164.36 307.14 163.67 307.56 163.04 308.06C161.31 309.42 159.95 311.11 158.8 312.96C158.19 313.93 157.68 314.96 157.18 315.99C157.16 316 157.14 316.02 157.14 316.05C156.88 316.7 156.6 317.35 156.35 318.01C155.84 319.38 155.41 320.79 155.1 322.22C155.1 322.26 154.7 324.14 154.6 324.94C154.47 325.91 154.37 326.88 154.32 327.86C154.31 328.18 154.32 331.26 154.32 332.15L154.33 332.13Z" fill="#262C33" stroke="white" stroke-width="0.25" stroke-miterlimit="10"/>
<path d="M154.26 343.01V338.76C154.24 338.62 154.24 338.46 154.24 338.32C154.24 338.07 154.24 337.81 154.24 337.56C154.24 337 154.25 336.42 154.22 335.85V332.72L154.21 332.53C154.21 332.4 154.21 332.27 154.21 332.14C154.2 331.21 154.19 328.17 154.21 327.84C154.26 326.89 154.35 325.9 154.49 324.91C154.6 324.1 154.99 322.19 154.99 322.18C155.29 320.81 155.71 319.39 156.25 317.96C156.42 317.51 156.61 317.05 156.79 316.61C156.87 316.41 156.95 316.21 157.04 316.01C157.04 315.97 157.07 315.93 157.1 315.9C157.55 314.97 158.09 313.89 158.71 312.89C160.01 310.79 161.41 309.18 162.98 307.96C163.59 307.48 164.26 307.06 165.04 306.67C165.35 306.51 165.7 306.4 166.04 306.3L166.3 306.23C166.3 306.23 166.36 306.23 166.4 306.21C168.14 305.77 169.74 306 171.14 306.89C172.39 307.69 173.38 308.89 174.16 310.56C175.13 312.66 175.62 314.99 175.65 317.69C175.68 320.5 175.68 323.36 175.68 326.13V330.32C175.68 330.54 175.6 330.67 175.41 330.77C174.91 331.03 174.41 331.3 173.9 331.57C173.62 331.72 173.34 331.87 173.06 332.02C172.83 332.14 172.6 332.26 172.36 332.39L171.81 332.68V330.88C171.77 330.82 171.78 330.75 171.81 330.69V329.26C171.81 328.19 171.81 327.12 171.81 326.05C171.81 325.22 171.81 324.4 171.81 323.57V322.48C171.78 322.42 171.78 322.36 171.81 322.3C171.81 322.05 171.81 321.81 171.81 321.56C171.81 320.99 171.82 320.4 171.81 319.83C171.75 318.21 171.47 316.85 170.95 315.66C170.49 314.61 169.96 313.88 169.27 313.37C169.19 313.35 169.13 313.31 169.1 313.24C169.07 313.22 169.05 313.2 169.03 313.18C168.96 313.13 168.89 313.08 168.82 313.04C167.61 312.35 166.33 312.35 164.92 313.03C163.62 313.65 162.51 314.66 161.5 316.13C159.23 319.43 158.08 323.21 158.07 327.38C158.07 330.67 158.1 334.02 158.13 337.26C158.13 338.4 158.15 339.54 158.16 340.67C158.16 340.88 158.11 341.04 157.87 341.16C157.47 341.36 157.06 341.59 156.67 341.79C156.48 341.89 156.29 341.99 156.1 342.1C155.72 342.3 155.34 342.51 154.92 342.72L154.29 343.05L154.26 343.01ZM157.25 316.05C157.16 316.27 157.08 316.48 157 316.68C156.82 317.12 156.63 317.57 156.47 318.02C155.94 319.44 155.52 320.85 155.22 322.21C155.22 322.23 154.82 324.13 154.72 324.93C154.59 325.92 154.49 326.9 154.45 327.84C154.44 328.16 154.45 331.2 154.45 332.12V335.83C154.5 336.4 154.49 336.99 154.48 337.55C154.48 337.8 154.48 338.06 154.48 338.31C154.48 338.45 154.48 338.59 154.5 338.74V342.62L154.8 342.47C155.21 342.25 155.6 342.05 155.97 341.85C156.16 341.75 156.35 341.65 156.54 341.54C156.93 341.33 157.34 341.11 157.75 340.9C157.88 340.84 157.91 340.78 157.91 340.62C157.91 339.48 157.89 338.34 157.88 337.21C157.85 333.97 157.82 330.62 157.82 327.33C157.82 323.12 158.99 319.29 161.28 315.95C162.31 314.45 163.46 313.42 164.79 312.77C166.28 312.05 167.63 312.06 168.91 312.79C168.99 312.84 169.07 312.89 169.14 312.95C169.17 312.97 169.2 313 169.24 313.02L169.27 313.04V313.08C169.27 313.08 169.28 313.08 169.33 313.1L169.38 313.12C170.11 313.66 170.67 314.42 171.15 315.52C171.68 316.74 171.97 318.12 172.03 319.77C172.05 320.35 172.04 320.94 172.03 321.51C172.03 321.77 172.03 322.03 172.03 322.29V322.35V322.37V323.53C172.03 324.36 172.05 325.18 172.05 326.01V330.76V332.26L172.26 332.15C172.51 332.03 172.73 331.9 172.96 331.78C173.24 331.63 173.52 331.48 173.8 331.33C174.3 331.06 174.8 330.79 175.31 330.53C175.42 330.47 175.45 330.42 175.45 330.29V326.1C175.45 323.33 175.45 320.48 175.42 317.67C175.39 315 174.91 312.7 173.95 310.63C173.19 309 172.23 307.83 171.02 307.06C169.66 306.2 168.17 305.98 166.46 306.41C166.42 306.41 166.38 306.42 166.34 306.43H166.29L166.11 306.49C165.78 306.59 165.44 306.7 165.15 306.85C164.38 307.24 163.72 307.65 163.12 308.12C161.58 309.33 160.2 310.92 158.91 312.99C158.29 313.99 157.75 315.07 157.3 316.01L157.27 316.05H157.25Z" fill="#262C33" stroke="white" stroke-width="0.25" stroke-miterlimit="10"/>
<path d="M156.46 173.13C157.58 174.72 158.14 178.13 158.14 183.38C158.14 188.63 157.58 192.73 156.46 195.68C155.34 198.64 153.76 200.74 151.72 201.99C149.66 203.25 148.07 203.09 146.96 201.51C145.85 199.93 145.3 196.5 145.3 191.23C145.3 185.96 145.85 181.85 146.96 178.91C148.07 175.97 149.66 173.87 151.72 172.61C153.76 171.36 155.34 171.53 156.46 173.12V173.13ZM150.11 179.36C149.71 180.09 149.41 181.22 149.2 182.74C148.99 184.26 148.89 186.38 148.89 189.08V189.5L154.09 178.95C153.89 177.98 153.6 177.43 153.23 177.28C152.85 177.13 152.35 177.25 151.71 177.64C151.04 178.05 150.5 178.62 150.1 179.35L150.11 179.36ZM153.35 195.24C153.75 194.51 154.04 193.39 154.24 191.87C154.44 190.35 154.54 188.24 154.54 185.53V185.16L149.34 195.66C149.56 196.59 149.86 197.13 150.25 197.28C150.64 197.44 151.13 197.33 151.72 196.97C152.41 196.55 152.96 195.97 153.36 195.24H153.35Z" fill="white"/>
<path d="M172.58 188.85L169.37 183.24L166.16 192.78L161.88 195.4L167.14 181.13L162.15 173.89L166.52 171.22L169.37 175.96L172.22 167.73L176.59 165.06L171.6 178.41L176.86 186.24L172.58 188.86V188.85Z" fill="white"/>
<path d="M93.42 183.48L77.11 174.06L60.8 183.48L59.76 184.08V204.09L76.08 213.45L77.12 214.05L78.16 213.45L94.47 204.09V184.08L93.43 183.48H93.42ZM77.11 176.46L91.34 184.68L77.11 192.89L62.87 184.68L77.11 176.46ZM92.38 202.89L78.14 211.06V194.69L92.38 186.48V202.9V202.89Z" fill="white"/>
<path d="M95.31 274.7L79 265.28L62.69 274.7L61.65 275.3V295.31L77.97 304.67L79.01 305.27L80.05 304.67L96.36 295.31V275.3L95.32 274.7H95.31ZM79 267.68L93.23 275.9L79 284.11L64.76 275.9L79 267.68ZM94.27 294.11L80.03 302.28V285.91L94.27 277.7V294.12V294.11Z" fill="white"/>
<path d="M308.42 146.52L292.11 137.1L275.8 146.52L274.76 147.12V167.13L291.08 176.49L292.12 177.09L293.16 176.49L309.47 167.13V147.12L308.43 146.52H308.42ZM292.11 139.5L306.34 147.72L292.11 155.93L277.87 147.72L292.11 139.5ZM307.38 165.93L293.14 174.1V157.73L307.38 149.52V165.94V165.93Z" fill="white"/>
<path d="M308.14 241.85L291.83 232.43L275.52 241.85L274.48 242.45V262.46L290.8 271.82L291.84 272.42L292.88 271.82L309.19 262.46V242.45L308.15 241.85H308.14ZM291.83 234.83L306.06 243.05L291.83 251.26L277.59 243.05L291.83 234.83ZM307.1 261.26L292.86 269.43V253.06L307.1 244.85V261.27V261.26Z" fill="white"/>
<path d="M222.94 257.63L222.86 256.92L222.15 257L222.07 256.29L221.36 256.37L221.28 255.66L220.57 255.74L220.49 255.03L219.78 255.11L219.7 254.4L218.99 254.48L218.91 253.77L218.2 253.85L218.12 253.14L217.41 253.22L217.33 252.51L216.62 252.59L216.54 251.88L215.83 251.96L215.75 251.25L215.04 251.33L214.96 250.62L214.25 250.7L215.63 262.74L216.34 262.66L217.05 262.58L216.97 261.87L217.68 261.79L217.6 261.08L218.31 261L218.23 260.29L218.94 260.21L219.11 261.63L219.82 261.55L219.99 262.97L220.7 262.89L220.78 263.6L222.2 263.43L222.12 262.72L222.83 262.64L222.66 261.22L221.95 261.3L221.78 259.88L221.07 259.96L220.99 259.25L223.83 258.94L223.75 258.23L223.67 257.52L223 257.6L222.94 257.63Z" fill="#151A1F"/>
<path d="M214.961 250.67L214.255 250.75L215.622 262.783L216.328 262.703L214.961 250.67Z" fill="white"/>
<path d="M215.756 251.299L215.05 251.379L215.13 252.084L215.836 252.004L215.756 251.299Z" fill="white"/>
<path d="M216.548 251.906L215.843 251.986L215.923 252.691L216.628 252.611L216.548 251.906Z" fill="white"/>
<path d="M217.346 252.551L216.641 252.632L216.721 253.337L217.427 253.257L217.346 252.551Z" fill="white"/>
<path d="M218.141 253.168L217.436 253.248L217.516 253.954L218.222 253.874L218.141 253.168Z" fill="white"/>
<path d="M218.907 253.807L218.202 253.887L218.282 254.593L218.988 254.513L218.907 253.807Z" fill="white"/>
<path d="M219.704 254.433L218.998 254.513L219.078 255.219L219.784 255.139L219.704 254.433Z" fill="white"/>
<path d="M220.498 255.05L219.793 255.13L219.873 255.835L220.579 255.755L220.498 255.05Z" fill="white"/>
<path d="M221.284 255.687L220.579 255.767L220.659 256.472L221.365 256.392L221.284 255.687Z" fill="white"/>
<path d="M222.059 256.306L221.354 256.386L221.434 257.091L222.14 257.011L222.059 256.306Z" fill="white"/>
<path d="M222.855 256.932L222.15 257.012L222.23 257.717L222.936 257.637L222.855 256.932Z" fill="white"/>
<path d="M223.652 257.558L222.946 257.639L223.026 258.344L223.732 258.264L223.652 257.558Z" fill="white"/>
<path d="M223.749 258.27L220.202 258.673L220.282 259.379L223.829 258.976L223.749 258.27Z" fill="white"/>
<path d="M220.974 259.289L220.268 259.369L220.349 260.074L221.054 259.994L220.974 259.289Z" fill="white"/>
<path d="M218.846 259.547L218.14 259.628L218.22 260.333L218.926 260.253L218.846 259.547Z" fill="white"/>
<path d="M219.64 260.17L218.935 260.25L219.095 261.661L219.801 261.581L219.64 260.17Z" fill="white"/>
<path d="M220.516 261.502L219.811 261.582L219.971 262.993L220.676 262.913L220.516 261.502Z" fill="white"/>
<path d="M222.073 262.762L220.662 262.922L220.742 263.628L222.153 263.468L222.073 262.762Z" fill="white"/>
<path d="M221.769 259.911L221.063 259.991L221.223 261.402L221.929 261.322L221.769 259.911Z" fill="white"/>
<path d="M222.624 261.255L221.919 261.336L222.079 262.747L222.785 262.666L222.624 261.255Z" fill="white"/>
<path d="M218.219 260.334L217.513 260.414L217.594 261.119L218.299 261.039L218.219 260.334Z" fill="white"/>
<path d="M217.6 261.099L216.894 261.179L216.974 261.884L217.68 261.804L217.6 261.099Z" fill="white"/>
<path d="M216.964 261.905L216.259 261.985L216.339 262.69L217.044 262.61L216.964 261.905Z" fill="white"/>
</svg>
