<svg width="364" height="452" viewBox="0 0 364 452" fill="none" xmlns="http://www.w3.org/2000/svg">
<g clip-path="url(#clip0_2040_8000)">
<path d="M1.11523 161.851C1.11523 156.166 3.7917 151.819 7.80641 147.917C10.0368 145.688 12.7133 144.016 15.5013 142.344C96.0184 95.862 176.647 49.3801 257.276 2.78674C263.075 -0.557283 268.874 -0.780217 274.896 1.5606C277.238 2.45234 279.468 3.45554 281.81 4.34728C283.706 5.01608 284.487 6.24222 284.375 8.24864C284.152 13.7105 284.04 19.1724 283.706 24.6343C283.706 26.3063 284.152 27.1981 285.713 27.8669C290.62 30.0962 295.415 32.437 300.211 34.7779C301.661 35.5581 302.776 35.4467 304.114 34.6664C309.132 31.5453 314.374 28.5357 319.392 25.4146C320.953 24.4114 322.292 24.2999 323.965 25.0802C327.199 26.7522 330.656 28.0898 333.778 29.8733C339.466 33.1059 343.146 37.0072 343.034 44.587C342.588 67.2149 343.034 89.8427 343.034 112.582C343.034 114.477 343.592 115.48 345.265 116.372C349.726 118.824 353.963 121.722 358.424 123.952C362.327 125.958 363.665 128.856 363.665 132.981C363.665 151.707 363.665 170.434 363.665 189.16C363.665 193.284 363.665 197.409 363.665 201.533C363.665 208.221 360.654 213.237 354.855 216.693C351.844 218.476 348.722 220.371 345.599 221.932C343.703 222.935 343.146 224.161 343.146 226.167C343.257 246.12 343.257 266.073 343.48 286.025C343.48 293.605 340.358 298.955 333.778 302.745C250.585 350.676 167.502 398.719 84.4204 446.65C79.8481 449.213 75.2758 451.554 69.9228 451.889C65.6851 452.223 61.7819 451.22 58.1018 448.99C43.3812 439.739 28.6606 430.598 13.94 421.458C4.57234 415.439 3.63681e-05 406.298 3.63681e-05 395.375C-0.223003 356.696 1.00371 200.976 1.00371 161.851H1.11523Z" fill="black"/>
<path d="M338.127 226.613V272.983C338.127 277.442 338.127 282.012 338.127 286.471C338.239 291.71 335.897 295.388 331.436 297.952C291.512 320.914 251.7 343.988 211.776 366.95C168.506 391.919 125.237 416.888 81.9669 441.856C78.8443 443.64 75.6103 445.312 71.9301 446.092C66.1311 447.318 61.4473 445.646 57.8787 441.076C53.9755 435.949 51.7451 430.152 51.7451 423.687C51.522 348.781 51.299 273.987 50.9644 199.081C50.9644 196.182 51.7451 195.402 54.5331 195.291C62.2279 194.845 69.3652 192.281 76.1679 188.714C90.3309 181.469 103.936 173.109 117.653 165.195C189.695 123.729 261.737 82.1514 333.778 40.5741C334.224 40.3512 334.67 40.1282 335.005 39.9053C336.789 38.6791 337.347 39.3479 337.347 41.2429C337.347 47.8195 337.347 54.2846 337.347 60.8611C337.347 78.1386 337.347 95.416 337.57 112.693C337.57 114.811 336.901 115.926 335.116 116.929C316.158 127.742 296.977 138.331 278.353 149.812C253.93 164.749 241.105 187.265 238.429 215.578C237.871 221.151 238.875 226.725 240.994 231.963C243.113 237.202 246.458 241.327 251.477 244.225C255.937 246.789 260.51 249.241 264.859 252.028C271.996 256.709 279.58 256.932 287.498 254.48C291.289 253.254 294.746 251.47 298.092 249.464C310.471 242.33 322.849 235.196 335.228 228.062C336.009 227.616 336.678 227.282 338.016 226.613H338.127Z" fill="#FEFEFE"/>
<path d="M6.69118 177.679C16.5049 188.491 28.549 193.284 42.1544 194.845C44.9424 195.179 45.9461 195.959 45.9461 198.969C45.9461 250.356 46.1691 301.853 46.2806 353.24C46.2806 376.425 46.5037 399.499 46.5037 422.573C46.5037 427.143 47.5074 431.49 49.0686 436.283C48.065 435.837 47.3958 435.614 46.8382 435.168C36.69 428.926 26.6532 422.573 16.5049 416.33C9.03309 411.649 5.35295 404.292 5.46447 395.932C5.6875 323.924 6.13358 252.028 6.46814 180.02C6.46814 179.351 6.46814 178.682 6.69118 177.567V177.679Z" fill="#FEFEFE"/>
<path d="M275.342 7.80279C257.053 18.2807 239.321 28.5357 221.478 38.7907C157.466 75.5749 93.4534 112.359 29.4412 149.255C27.4338 150.37 25.538 151.596 23.8652 153.268C18.6238 158.618 18.6238 165.418 23.8652 170.657C29.1066 176.007 35.7978 178.125 42.9351 179.24C55.5368 181.134 67.2463 179.017 78.5098 172.329C157.02 126.738 235.752 81.4827 313.816 35.1123C320.619 31.0995 325.86 29.9848 331.882 35.4467C331.659 36.1155 330.656 36.3384 329.875 36.7843C246.904 84.7152 163.934 132.535 80.8517 180.354C72.8223 184.924 64.5699 189.383 55.2022 189.94C40.0355 190.832 25.761 187.711 13.94 177.345C12.4902 176.118 11.152 174.669 10.1483 173.109C4.34927 163.969 5.24143 156.277 13.7169 150.258C20.7427 145.242 28.549 141.341 36.0208 137.105C110.627 93.7441 185.346 50.7177 259.952 7.57985C265.082 4.57023 269.877 5.0161 275.342 7.80279Z" fill="#FDFDFD"/>
<path d="M358.536 167.424C358.536 178.571 358.536 189.718 358.536 200.864C358.536 205.992 356.528 209.67 352.067 212.234C332.551 223.492 313.036 234.75 293.52 246.009C291.178 247.346 288.724 248.461 286.159 249.353C273.111 253.588 263.075 247.569 260.844 233.97C258.837 221.709 261.736 210.339 266.755 199.304C274.004 183.587 284.598 170.88 300.099 162.408C318.388 152.264 336.343 141.564 354.409 131.086C357.866 129.079 358.201 129.302 358.201 133.204V167.424H358.424H358.536Z" fill="#FEFEFE"/>
<path d="M278.353 12.373V25.6377C278.353 27.4211 276.792 27.6441 275.676 28.3129C250.027 43.138 224.377 57.8517 198.616 72.6769C143.749 104.222 88.8811 135.767 34.125 167.313C31.7831 168.65 29.9988 169.653 27.7684 166.978C25.315 163.969 24.6458 161.405 26.4302 158.618C27.7684 156.5 29.8873 155.051 32.1177 153.825C67.9155 133.315 103.602 112.694 139.288 92.1837C184.565 66.1003 229.842 40.0169 275.119 14.0451C276.123 13.4877 277.238 12.9304 278.241 12.373H278.353Z" fill="#FEFEFE"/>
<path d="M321.065 206.661C320.061 217.027 314.82 227.059 304.114 233.636C299.207 236.645 294.077 236.98 288.947 233.636C286.94 232.298 284.71 231.072 282.479 229.846C277.684 227.394 275.342 223.269 275.453 218.142C275.453 204.766 281.476 194.399 292.962 187.488C297.646 184.702 302.553 184.59 307.348 187.823C309.244 189.049 311.251 190.275 313.259 191.278C318.835 193.953 320.953 198.635 320.953 206.661H321.065Z" fill="black"/>
<path d="M312.143 192.281C307.571 189.271 302.776 189.606 298.315 192.281C288.39 198.412 283.483 207.664 282.591 217.25C282.591 224.607 284.487 228.954 289.728 231.518C294.3 234.527 299.096 234.193 303.556 231.518C313.482 225.387 318.388 216.135 319.281 206.549C319.281 199.192 317.385 194.845 312.143 192.281Z" fill="#FEFEFE"/>
<path d="M51.5221 304.64V310.882L147.652 255.372V249.129L51.5221 304.64Z" fill="black"/>
<path d="M51.1875 372.078V378.32L147.317 322.809V316.567L51.1875 372.078Z" fill="black"/>
<path d="M49.0686 343.765V350.007L109.512 315.118L110.07 308.542L49.0686 343.765Z" fill="black"/>
<path d="M49.0686 399.276V405.63L109.512 370.74L110.07 364.164L49.0686 399.276Z" fill="black"/>
<path d="M210.661 331.727L214.006 335.962L241.551 320.246L242.109 313.669L210.661 331.727Z" fill="black"/>
<path d="M138.619 372.635L141.964 376.871L169.51 361.043L170.067 354.466L138.619 372.635Z" fill="black"/>
<path d="M115.869 302.634C113.973 301.408 111.966 301.519 110.07 302.634C105.832 305.197 103.825 309.099 103.49 313.112C103.49 316.233 104.271 318.016 106.501 319.131C108.397 320.357 110.404 320.246 112.3 319.131C116.538 316.567 118.545 312.666 118.88 308.653C118.88 305.532 118.099 303.748 115.869 302.634Z" fill="black"/>
<path d="M246.793 309.433C244.897 308.207 242.89 308.319 240.994 309.433C236.756 311.997 234.749 315.898 234.414 319.911C234.414 323.032 235.195 324.816 237.425 325.93C239.321 327.157 241.328 327.045 243.224 325.93C247.462 323.367 249.469 319.465 249.804 315.452C249.804 312.331 249.023 310.548 246.793 309.433Z" fill="black"/>
<path d="M173.078 349.673C171.183 348.447 169.175 348.558 167.279 349.673C163.042 352.237 161.034 356.138 160.7 360.151C160.7 363.272 161.48 365.055 163.711 366.17C165.607 367.396 167.614 367.285 169.51 366.17C173.748 363.606 175.755 359.705 176.089 355.692C176.089 352.571 175.309 350.788 173.078 349.673Z" fill="black"/>
<path d="M152.336 243.891C150.44 242.664 148.433 242.776 146.537 243.891C142.299 246.454 140.292 250.356 139.957 254.368C139.957 257.49 140.738 259.273 142.968 260.388C144.864 261.614 146.871 261.502 148.767 260.388C153.005 257.824 155.012 253.923 155.347 249.91C155.347 246.789 154.566 245.005 152.336 243.891Z" fill="black"/>
<path d="M215.01 330.723L214.006 335.962L147.317 322.809V316.567L215.01 330.723Z" fill="black"/>
<path d="M143.303 371.186L142.188 376.871L109.512 370.74L110.07 364.164L143.303 371.186Z" fill="black"/>
</g>
<defs>
<clipPath id="clip0_2040_8000">
<rect width="364" height="452" fill="white"/>
</clipPath>
</defs>
</svg>
