<?xml version="1.0" encoding="UTF-8"?><svg id="Calque_1" xmlns="http://www.w3.org/2000/svg" viewBox="0 0 549.78 511.45"><defs><style>.cls-1{fill:#fff;}.cls-2{fill:#c3c7d6;}.cls-3,.cls-4,.cls-5{fill:#1f272e;}.cls-6{fill:#393943;}.cls-4{stroke-width:.5px;}.cls-4,.cls-5{stroke:#fff;stroke-miterlimit:10;}</style></defs><g id="key"><path class="cls-3" d="M503.76,429.96c-11.56,0-22.41,2.59-30.54,7.28-6.73,3.88-10.99,8.93-12,14.21-.78,4.08,.39,8.24,3.4,12.05l1.28,1.63-40.12,23.17c-2.35,1.36-3.65,3.06-3.65,4.79,0,1.71,1.27,3.4,3.58,4.74,5.41,3.14,14.57,3.14,20.01,0l38.97-22.5,.72,.19c8.06,2.15,16.94,2.82,25.66,1.92,8.72-.9,16.65-3.29,22.93-6.92,7.85-4.53,12.18-10.46,12.19-16.7,0-6.19-4.25-12.07-11.99-16.57-8.08-4.69-18.89-7.28-30.45-7.28Z"/><path class="cls-3" d="M430.17,493.63c-.62,0-1.22-.32-1.55-.9-.49-.86-.2-1.95,.66-2.45l39.91-23,7.43,3.3c.9,.4,1.31,1.46,.91,2.37-.4,.9-1.46,1.31-2.37,.91l-5.76-2.56-38.33,22.09c-.28,.16-.59,.24-.89,.24Z"/></g><g id="key-2"><path class="cls-1" d="M435.7,511.45c-4.44,0-8.62-1.01-11.79-2.85-4.69-2.73-5.38-6.11-5.37-7.88v-7.74h3.58l1.85,6.66,3.23,1.75c2.63,1.53,4.34,.88,8.15,.88,3.81,0,6.38-.58,9.03-2.11l40.71-22.41,4.38,.55c8.06,2.15,10.1,2.21,18.83,1.31,8.72-.9,15.93-2.06,22.22-5.69,7.82-4.52,15.64-6.17,15.67-12.39v-7.76h3.58v7.77c-.04,7.55-5.01,14.55-13.98,19.73-6.72,3.88-15.14,6.43-24.36,7.38-8.9,.92-17.95,.29-26.24-1.83l-37.69,21.76c-3.19,1.84-7.38,2.85-11.82,2.85Z"/><path class="cls-1" d="M435.7,503.78c-4.25,0-8.49-.96-11.79-2.88-4.67-2.72-5.37-6.08-5.37-7.85,0-1.77,.71-5.16,5.44-7.89l36.61-21.14c-2.76-4.2-3.76-8.75-2.9-13.27,1.21-6.31,6.09-12.22,13.73-16.64,8.67-5,20.15-7.76,32.33-7.76,12.18,0,23.64,2.76,32.25,7.76,8.89,5.17,13.78,12.15,13.77,19.67-.01,7.57-4.98,14.6-13.98,19.8-6.72,3.88-15.14,6.43-24.36,7.38-8.9,.92-17.95,.29-26.24-1.83l-37.69,21.76c-3.32,1.92-7.57,2.87-11.82,2.87Zm68.06-73.84c-11.56,0-22.41,2.59-30.54,7.28-6.73,3.88-10.99,8.93-12,14.21-.78,4.08,.39,8.24,3.4,12.05l1.28,1.63-40.12,23.17c-2.35,1.36-3.65,3.06-3.65,4.79,0,1.71,1.27,3.4,3.58,4.74,5.41,3.14,14.57,3.14,20.01,0l38.97-22.5,.72,.19c8.06,2.15,16.94,2.82,25.66,1.92,8.72-.9,16.65-3.29,22.93-6.92,7.85-4.53,12.18-10.46,12.19-16.7,0-6.19-4.25-12.07-11.99-16.57-8.08-4.69-18.89-7.28-30.45-7.28Z"/><path class="cls-1" d="M430.17,493.62c-.62,0-1.22-.32-1.55-.9-.49-.86-.2-1.95,.66-2.45l39.91-23,7.43,3.3c.9,.4,1.31,1.46,.91,2.37-.4,.9-1.46,1.31-2.37,.91l-5.76-2.56-38.33,22.09c-.28,.16-.59,.24-.89,.24Z"/><path class="cls-1" d="M506.63,449.18l-.58-1.1-1.51-1.76,.24-.21,.18-.09c6.39-3.39,16.38-3.39,22.73,0l-1.69,3.16c-5.23-2.79-14.1-2.79-19.37,0Z"/><path class="cls-1" d="M516.27,453.17c-3.29,0-6.58-.68-9.14-2.05-1.19-.63-2.15-1.38-2.87-2.22-1.21-1.41-1.7-3.09-1.39-4.72,.27-1.4,1.23-3.41,4.32-5.05,5.14-2.73,13.18-2.72,18.3,0h0c3.06,1.63,4.01,3.63,4.27,5.03,.31,1.64-.2,3.32-1.42,4.74-.73,.85-1.71,1.6-2.91,2.23-2.57,1.36-5.87,2.04-9.16,2.04Zm.08-12.49c-2.72,0-5.45,.54-7.48,1.61-1.41,.75-2.31,1.68-2.48,2.55-.11,.56,.09,1.14,.59,1.72,.43,.5,1.05,.97,1.84,1.39,4.03,2.15,10.87,2.15,14.93,0,.8-.43,1.43-.9,1.87-1.41,.51-.59,.71-1.17,.61-1.74-.16-.86-1.05-1.78-2.43-2.52-2.02-1.07-4.73-1.61-7.45-1.61Z"/></g><g><g><path class="cls-1" d="M340.18,224.36L283.48,9.76c-1.02-3.85-3.16-6.63-5.8-8.02l.23-1.24-4.4-.35v.02c-1.46,.07-2.95,.5-4.41,1.35L7.87,152.34c-6.05,3.49-9.3,12.58-7.26,20.3l56.7,214.6c1.15,4.37,4.21,6.92,7.59,6.85h0s.07,0,.07,0h0s4.13,.35,4.13,.35l-.29-1.18L334.66,239.78c4.6-2.66,7.06-9.56,5.52-15.42Z"/><path class="cls-5" d="M273.07,1.87L11.84,152.69c-6.05,3.49-9.3,12.58-7.26,20.3l56.7,214.6c1.55,5.86,6.53,8.47,11.13,5.82L338.89,239.55c4.6-2.66,7.06-9.56,5.52-15.43L287.71,9.52c-2.04-7.71-8.59-11.14-14.64-7.65h0Z"/><polygon class="cls-4" points="280.19 7.64 9.25 164.06 64.62 373.66 335.56 217.23 280.19 7.64"/><g><path class="cls-4" d="M64.57,216.6l-9.27,5.35c-.66,.38-1.36,.25-1.74-.33l-.28-.43c-.38-.58-1.08-.72-1.74-.33l-8.34,4.81c-.69,.4-1.17,1.26-1.18,2.12v1.58c-.02,.17,0,.34,.04,.5l3.86,16.05c.17,.71,.82,.99,1.46,.63l21.81-12.59c.63-.37,1.01-1.24,.84-1.95l-3.5-14.55c-.23-.96-1.11-1.33-1.96-.84Z"/><path class="cls-4" d="M65.34,217.91l-21.81,12.59c-.63,.37-1.01,1.24-.84,1.95l3.24,13.46c.17,.71,.82,.99,1.46,.63l21.81-12.59c.63-.37,1.01-1.24,.84-1.95l-3.24-13.46c-.17-.71-.82-.99-1.46-.63Z"/></g><g><path class="cls-4" d="M53.25,179.17l-9.27,5.35c-.66,.38-1.36,.25-1.74-.33l-.28-.43c-.38-.58-1.08-.72-1.74-.33l-8.34,4.81c-.69,.4-1.17,1.26-1.18,2.12v1.58c-.02,.17,0,.34,.04,.5l3.86,16.05c.17,.71,.82,.99,1.46,.63l21.81-12.59c.63-.37,1.01-1.24,.84-1.95l-3.5-14.55c-.23-.96-1.11-1.33-1.96-.84Z"/><path class="cls-4" d="M54.01,180.47l-21.81,12.59c-.63,.37-1.01,1.24-.84,1.95l3.24,13.46c.17,.71,.82,.99,1.46,.63l21.81-12.59c.63-.37,1.01-1.24,.84-1.95l-3.24-13.46c-.17-.71-.82-.99-1.46-.63Z"/></g><g><path class="cls-4" d="M274.42,43.28l-9.27,5.35c-.66,.38-1.36,.25-1.74-.33l-.28-.43c-.38-.58-1.08-.72-1.74-.33l-8.34,4.81c-.69,.4-1.17,1.26-1.18,2.12v1.58c-.02,.17,0,.34,.04,.5l3.86,16.05c.17,.71,.82,.99,1.46,.63l21.81-12.59c.63-.37,1.01-1.24,.84-1.95l-3.5-14.55c-.23-.96-1.11-1.33-1.96-.84Z"/><path class="cls-4" d="M275.18,44.59l-21.81,12.59c-.63,.37-1.01,1.24-.84,1.95l3.24,13.46c.17,.71,.82,.99,1.46,.63l21.81-12.59c.63-.37,1.01-1.24,.84-1.95l-3.24-13.46c-.17-.71-.82-.99-1.46-.63Z"/></g><g><polygon class="cls-5" points="278.74 216.87 115.29 311.24 80.28 178.73 74.97 158.65 238.43 64.28 243.73 84.36 278.74 216.87"/><polygon class="cls-5" points="243.73 84.36 80.28 178.73 74.97 158.65 238.43 64.28 243.73 84.36"/><polygon class="cls-1" points="84.14 171.16 94.94 164.92 92.74 156.56 81.93 162.8 84.14 171.16 84.14 171.16"/></g></g><g><g><path class="cls-1" d="M525.39,344.58v-10.07l-8.19,.97-162.36-93.74c-5.18-2.99-13.54-2.98-18.67,0L86.73,386.69l-17.08,2.03v10.79h.02c-.11,2.06,1.17,4.13,3.88,5.69l165.22,95.39c7.08,4.09,18.53,4.09,25.57,0l255.8-148.66c3.41-1.98,5.14-4.56,5.23-7.16h.02v-.2Z"/><path class="cls-5" d="M520.06,327.19l-165.22-95.39c-5.18-2.99-13.54-2.98-18.67,0L73.5,384.46c-5.14,2.99-5.12,7.83,.06,10.82l165.22,95.39c7.08,4.09,18.53,4.09,25.57,0l255.8-148.66c7.04-4.09,7-10.72-.08-14.81h0Z"/><path class="cls-4" d="M439.17,375.85l-48.46-27.98c-2.84-1.64-7.42-1.64-10.24,0l-106.46,61.86c-2.82,1.64-2.8,4.29,.03,5.93l48.46,27.98c2.84,1.64,7.42,1.64,10.24,0l106.46-61.86c2.82-1.64,2.8-4.29-.03-5.93h0Z"/><path class="cls-2" d="M274.01,411.22l106.46-61.86c2.82-1.64,7.41-1.64,10.24,0l48.46,27.98c1.1,.64,1.76,1.42,2.01,2.25,.41-1.31-.26-2.72-2.01-3.73l-48.46-27.98c-2.84-1.64-7.42-1.64-10.24,0l-106.46,61.86c-1.72,1-2.37,2.38-1.98,3.68,.25-.8,.91-1.57,1.98-2.2Z"/></g><path class="cls-6" d="M112.81,384.45h0v-1.42l-.86,.25s-.02-.02-.04-.03l-3.21-1.85c-1.2-.69-3.13-.7-4.32,0l-13.65,7.93-1.94,.55v1.46h.02c.06,.4,.34,.79,.88,1.1l3.21,1.85c1.2,.69,3.14,.69,4.32,0l14.72-8.55c.62-.36,.9-.83,.88-1.3Z"/><g><path class="cls-4" d="M127.73,394.38l-11.92-6.88c-1.2-.69-3.13-.69-4.31,0l-11.85,6.89c-1.18,.69-1.18,1.81,.01,2.5l11.92,6.88c1.2,.69,3.14,.69,4.32,0l11.85-6.89c1.18-.69,1.18-1.81-.02-2.5h0Z"/><path class="cls-4" d="M146.29,383.6l-11.92-6.88c-1.2-.69-3.13-.69-4.31,0l-11.85,6.89c-1.18,.69-1.19,1.81,.01,2.5l11.92,6.88c1.2,.69,3.14,.69,4.32,0l11.85-6.89c1.18-.69,1.18-1.81-.02-2.5h0Z"/><path class="cls-4" d="M164.86,372.81l-11.92-6.88c-1.2-.69-3.13-.69-4.31,0l-11.85,6.89c-1.18,.69-1.19,1.81,.01,2.5l11.92,6.88c1.2,.69,3.14,.69,4.32,0l11.85-6.89c1.18-.69,1.18-1.81-.02-2.5h0Z"/><path class="cls-4" d="M183.42,362.02l-11.92-6.88c-1.2-.69-3.13-.69-4.32,0l-11.84,6.88c-1.18,.69-1.19,1.81,.01,2.5l11.92,6.88c1.2,.69,3.14,.69,4.32,0l11.84-6.88c1.19-.69,1.19-1.82-.01-2.51h0Z"/><path class="cls-4" d="M201.98,351.23l-11.92-6.88c-1.2-.69-3.13-.69-4.32,0l-11.84,6.88c-1.18,.69-1.19,1.81,.01,2.5l11.92,6.88c1.2,.69,3.14,.69,4.32,0l11.84-6.88c1.19-.69,1.18-1.82-.01-2.51h0Z"/><path class="cls-4" d="M220.55,340.44l-11.92-6.88c-1.2-.69-3.13-.69-4.32,0l-11.84,6.88c-1.19,.69-1.18,1.81,.01,2.5l11.92,6.88c1.2,.69,3.13,.7,4.32,0l11.84-6.88c1.19-.69,1.19-1.82-.01-2.51h0Z"/><path class="cls-4" d="M239.11,329.66l-11.92-6.88c-1.2-.69-3.13-.69-4.32,0l-11.84,6.88c-1.19,.69-1.19,1.81,.01,2.5l11.92,6.88c1.2,.69,3.13,.7,4.32,0l11.84-6.88c1.19-.69,1.19-1.82-.01-2.51h0Z"/><path class="cls-4" d="M257.67,318.87l-11.92-6.88c-1.2-.69-3.12-.69-4.31,0l-11.84,6.88c-1.19,.69-1.19,1.81,.01,2.5l11.92,6.88c1.2,.69,3.13,.7,4.32,0l11.84-6.88c1.19-.69,1.18-1.81-.02-2.5h0Z"/><path class="cls-4" d="M276.23,308.08l-11.92-6.88c-1.2-.69-3.12-.69-4.31,0l-11.84,6.88c-1.19,.69-1.18,1.81,.01,2.5l11.92,6.88c1.2,.69,3.13,.7,4.32,0l11.84-6.88c1.19-.69,1.18-1.81-.02-2.5h0Z"/><path class="cls-4" d="M294.79,297.3l-11.92-6.88c-1.2-.69-3.12-.69-4.31,0l-11.84,6.88c-1.19,.69-1.19,1.81,.01,2.5l11.92,6.88c1.2,.69,3.13,.7,4.32,0l11.84-6.88c1.19-.69,1.18-1.81-.02-2.5h0Z"/><path class="cls-4" d="M313.36,286.51l-11.92-6.88c-1.2-.69-3.12-.69-4.31,0l-11.84,6.88c-1.19,.69-1.19,1.81,.01,2.5l11.92,6.88c1.2,.69,3.13,.7,4.32,0l11.84-6.88c1.19-.69,1.18-1.81-.02-2.5h0Z"/><path class="cls-4" d="M194.03,377.5l-11.92-6.88c-1.2-.69-3.13-.69-4.31,0l-11.85,6.89c-1.18,.69-1.19,1.81,.01,2.5l11.92,6.88c1.2,.69,3.14,.69,4.32,0l11.85-6.89c1.18-.69,1.18-1.81-.02-2.5h0Z"/><path class="cls-4" d="M212.59,366.71l-11.92-6.88c-1.2-.69-3.13-.69-4.31,0l-11.85,6.89c-1.18,.69-1.19,1.81,.01,2.5l11.92,6.88c1.2,.69,3.14,.69,4.32,0l11.85-6.89c1.18-.69,1.18-1.81-.02-2.5h0Z"/><path class="cls-4" d="M231.16,355.92l-11.92-6.88c-1.2-.69-3.13-.69-4.32,0l-11.84,6.88c-1.18,.69-1.18,1.81,.01,2.5l11.92,6.88c1.2,.69,3.14,.69,4.32,0l11.84-6.88c1.19-.69,1.18-1.82-.01-2.51h0Z"/><path class="cls-4" d="M249.72,345.14l-11.92-6.88c-1.2-.69-3.13-.69-4.32,0l-11.84,6.88c-1.18,.69-1.19,1.81,.01,2.5l11.92,6.88c1.2,.69,3.14,.69,4.32,0l11.84-6.88c1.19-.69,1.19-1.82-.01-2.51h0Z"/><path class="cls-4" d="M268.28,334.35l-11.92-6.88c-1.2-.69-3.13-.69-4.32,0l-11.84,6.88c-1.19,.69-1.19,1.81,.01,2.5l11.92,6.88c1.2,.69,3.13,.7,4.32,0l11.84-6.88c1.19-.69,1.18-1.82-.01-2.51h0Z"/><path class="cls-4" d="M286.85,323.56l-11.92-6.88c-1.2-.69-3.13-.69-4.32,0l-11.84,6.88c-1.19,.69-1.18,1.81,.01,2.5l11.92,6.88c1.2,.69,3.13,.7,4.32,0l11.84-6.88c1.19-.69,1.18-1.82-.01-2.51h0Z"/><path class="cls-4" d="M305.4,312.78l-11.92-6.88c-1.2-.69-3.12-.69-4.31,0l-11.84,6.88c-1.19,.69-1.19,1.81,.01,2.5l11.92,6.88c1.2,.69,3.13,.7,4.32,0l11.84-6.88c1.19-.69,1.18-1.81-.02-2.5h0Z"/><path class="cls-4" d="M323.97,301.99l-11.92-6.88c-1.2-.69-3.12-.69-4.31,0l-11.84,6.88c-1.19,.69-1.18,1.81,.01,2.5l11.92,6.88c1.2,.69,3.13,.7,4.32,0l11.84-6.88c1.19-.69,1.18-1.81-.02-2.5h0Z"/><path class="cls-4" d="M342.53,291.2l-11.92-6.88c-1.2-.69-3.12-.69-4.31,0l-11.84,6.88c-1.19,.69-1.19,1.81,.01,2.5l11.92,6.88c1.2,.69,3.13,.7,4.32,0l11.84-6.88c1.19-.69,1.18-1.81-.02-2.5h0Z"/><path class="cls-4" d="M361.09,280.41l-11.92-6.88c-1.2-.69-3.12-.69-4.31,0l-11.84,6.88c-1.19,.69-1.19,1.81,.01,2.5l11.92,6.88c1.2,.69,3.13,.7,4.32,0l11.84-6.88c1.19-.69,1.18-1.81-.02-2.5h0Z"/><path class="cls-4" d="M331.92,275.72l-11.92-6.88c-1.2-.69-3.12-.69-4.31,0l-11.84,6.88c-1.19,.69-1.19,1.81,0,2.5l11.92,6.88c1.2,.69,3.14,.69,4.33,0l11.84-6.88c1.19-.69,1.18-1.81-.02-2.5h0Z"/><path class="cls-4" d="M350.48,264.93l-11.92-6.88c-1.2-.69-3.13-.69-4.31,0l-11.84,6.88c-1.19,.69-1.19,1.81,0,2.5l11.92,6.88c1.2,.69,3.14,.69,4.33,0l11.84-6.88c1.18-.69,1.18-1.81-.02-2.5h0Z"/><path class="cls-4" d="M202.96,437.82l-11.92-6.88c-1.19-.69-3.13-.69-4.31,0l-11.85,6.89c-1.18,.69-1.18,1.81,.01,2.5l11.92,6.88c1.2,.69,3.14,.69,4.32,0l11.85-6.89c1.18-.69,1.18-1.81-.02-2.5h0Z"/><path class="cls-4" d="M221.53,427.03l-11.92-6.88c-1.19-.69-3.13-.69-4.31,0l-11.85,6.89c-1.18,.69-1.18,1.81,.01,2.5l11.92,6.88c1.2,.69,3.14,.69,4.32,0l11.85-6.89c1.18-.69,1.18-1.81-.02-2.5h0Z"/><path class="cls-4" d="M240.09,416.24l-11.92-6.88c-1.19-.69-3.13-.69-4.31,0l-11.85,6.89c-1.18,.69-1.18,1.81,.01,2.5l11.92,6.88c1.2,.69,3.14,.69,4.32,0l11.85-6.89c1.18-.69,1.18-1.81-.02-2.5h0Z"/><path class="cls-4" d="M258.65,405.46l-11.92-6.88c-1.19-.69-3.13-.69-4.32,0l-11.84,6.88c-1.18,.69-1.18,1.81,.01,2.5l11.92,6.88c1.2,.69,3.14,.69,4.32,0l11.84-6.88c1.19-.69,1.19-1.82-.01-2.51h0Z"/><path class="cls-4" d="M175.47,388.29l-11.92-6.88c-1.2-.69-3.13-.69-4.31,0l-11.85,6.89c-1.18,.69-1.18,1.81,.01,2.5l11.92,6.88c1.2,.69,3.14,.69,4.32,0l11.85-6.89c1.18-.69,1.18-1.81-.02-2.5h0Z"/><path class="cls-4" d="M371.92,252.47l-11.92-6.88c-1.2-.69-3.13-.69-4.32,0l-14.71,8.55c-1.19,.69-1.19,1.81,0,2.5l11.92,6.88c1.2,.69,3.14,.69,4.33,0l14.71-8.55c1.19-.69,1.19-1.82-.01-2.51h0Z"/><path class="cls-4" d="M372.45,339.32l-11.92-6.88c-1.19-.69-3.13-.69-4.32,0l-107.07,62.23c-1.18,.69-1.18,1.81,.01,2.5l11.92,6.88c1.2,.69,3.14,.69,4.32,0l107.08-62.23c1.19-.69,1.19-1.82-.01-2.51h0Z"/><path class="cls-4" d="M130.47,371.14l-3.21-1.85c-1.2-.69-3.13-.7-4.32,0l-11.84,6.88c-1.19,.69-1.18,1.81,.02,2.5l3.21,1.85c1.2,.69,3.13,.7,4.32,0l11.84-6.88c1.19-.69,1.18-1.81-.02-2.5h0Z"/><path class="cls-4" d="M149.04,360.35l-3.21-1.85c-1.2-.69-3.13-.7-4.32,0l-11.84,6.88c-1.19,.69-1.18,1.81,.02,2.5l3.21,1.85c1.2,.69,3.13,.7,4.32,0l11.84-6.88c1.19-.69,1.18-1.81-.02-2.5h0Z"/><path class="cls-4" d="M167.6,349.57l-3.21-1.85c-1.2-.69-3.13-.7-4.32,0l-11.84,6.88c-1.19,.69-1.18,1.82,.01,2.51l3.21,1.85c1.2,.69,3.14,.69,4.33,0l11.84-6.88c1.19-.69,1.18-1.81-.02-2.5h0Z"/><path class="cls-4" d="M186.16,338.78l-3.21-1.85c-1.2-.69-3.13-.7-4.32,0l-11.84,6.88c-1.19,.69-1.19,1.82,.01,2.51l3.21,1.85c1.2,.69,3.14,.69,4.33,0l11.84-6.88c1.19-.69,1.18-1.81-.02-2.5h0Z"/><path class="cls-4" d="M204.73,327.99l-3.21-1.85c-1.2-.69-3.14-.69-4.32,0l-11.84,6.88c-1.19,.69-1.18,1.82,.01,2.51l3.21,1.85c1.2,.69,3.14,.69,4.33,0l11.84-6.88c1.18-.69,1.18-1.81-.02-2.5h0Z"/><path class="cls-4" d="M223.29,317.2l-3.21-1.85c-1.2-.69-3.14-.69-4.32,0l-11.84,6.88c-1.19,.69-1.19,1.82,.01,2.51l3.21,1.85c1.2,.69,3.14,.69,4.33,0l11.84-6.88c1.18-.69,1.18-1.81-.02-2.5h0Z"/><path class="cls-4" d="M241.85,306.41l-3.21-1.85c-1.2-.69-3.14-.69-4.32,0l-11.84,6.88c-1.19,.69-1.19,1.82,.01,2.51l3.21,1.85c1.2,.69,3.14,.69,4.33,0l11.84-6.88c1.18-.69,1.18-1.81-.02-2.5h0Z"/><path class="cls-4" d="M260.42,295.63l-3.21-1.85c-1.2-.69-3.14-.69-4.32,0l-11.85,6.89c-1.18,.69-1.18,1.81,.02,2.5l3.21,1.85c1.2,.69,3.14,.69,4.32,0l11.85-6.89c1.18-.69,1.18-1.81-.02-2.5h0Z"/><path class="cls-4" d="M278.98,284.84l-3.21-1.85c-1.2-.69-3.14-.69-4.32,0l-11.85,6.89c-1.18,.69-1.18,1.81,.02,2.5l3.21,1.85c1.2,.69,3.14,.69,4.32,0l11.85-6.89c1.18-.69,1.18-1.81-.02-2.5h0Z"/><path class="cls-4" d="M297.55,274.05l-3.21-1.85c-1.2-.69-3.14-.69-4.32,0l-11.85,6.89c-1.18,.69-1.18,1.81,.02,2.5l3.21,1.85c1.2,.69,3.14,.69,4.32,0l11.85-6.89c1.18-.69,1.18-1.81-.02-2.5h0Z"/><path class="cls-4" d="M316.11,263.26l-3.21-1.85c-1.2-.69-3.14-.69-4.32,0l-11.85,6.89c-1.18,.69-1.18,1.81,.02,2.5l3.21,1.85c1.2,.69,3.14,.69,4.32,0l11.85-6.89c1.18-.69,1.18-1.81-.02-2.5h0Z"/><path class="cls-4" d="M334.67,252.47l-3.21-1.85c-1.2-.69-3.14-.69-4.32,0l-11.85,6.89c-1.18,.69-1.18,1.81,.02,2.5l3.21,1.85c1.2,.69,3.14,.69,4.32,0l11.85-6.89c1.18-.69,1.18-1.81-.02-2.5h0Z"/><path class="cls-4" d="M353.24,241.69l-3.21-1.85c-1.2-.69-3.14-.69-4.33,0l-11.84,6.88c-1.18,.69-1.18,1.81,.02,2.5l3.21,1.85c1.2,.69,3.14,.69,4.32,0l11.84-6.88c1.19-.69,1.19-1.82-.01-2.51h0Z"/><path class="cls-4" d="M111.91,381.93l-3.21-1.85c-1.2-.69-3.13-.7-4.32,0l-14.72,8.55c-1.18,.69-1.18,1.81,.02,2.5l3.21,1.85c1.2,.69,3.14,.69,4.32,0l14.72-8.55c1.19-.69,1.18-1.81-.02-2.5h0Z"/><path class="cls-4" d="M157.03,399.15l-11.93-6.89c-1.19-.69-3.13-.69-4.31,0l-22.34,12.98c-1.18,.69-1.18,1.81,.01,2.5l11.93,6.89c1.19,.69,3.13,.69,4.31,0l22.34-12.98c1.18-.69,1.18-1.81-.01-2.5h0Z"/><path class="cls-4" d="M185.12,404.61l-11.92-6.88c-1.2-.69-3.14-.69-4.32,0l-31.62,18.38c-1.18,.69-1.18,1.81,.02,2.5l11.92,6.88c1.2,.69,3.13,.69,4.31,0l31.62-18.38c1.18-.69,1.19-1.81-.01-2.5h0Z"/><path class="cls-4" d="M204.06,415.55l-11.93-6.89c-1.19-.69-3.13-.69-4.31,0l-31.62,18.38c-1.18,.69-1.18,1.81,.01,2.5l11.93,6.89c1.19,.69,3.13,.69,4.31,0l31.62-18.38c1.18-.69,1.18-1.81-.01-2.5h0Z"/><path class="cls-4" d="M390.74,263.34l-11.93-6.89c-1.19-.69-3.13-.69-4.32,0l-22.78,13.24c-1.19,.69-1.18,1.81,.01,2.5l11.93,6.89c1.19,.69,3.12,.69,4.31,0l22.78-13.24c1.19-.69,1.19-1.82,0-2.5h0Z"/><path class="cls-4" d="M409.54,274.19l-11.92-6.88c-1.2-.69-3.14-.69-4.33,0l-32.06,18.63c-1.19,.69-1.18,1.81,.02,2.5l11.92,6.88c1.2,.69,3.12,.69,4.31,0l32.06-18.63c1.19-.69,1.19-1.81,0-2.5h0Z"/><path class="cls-4" d="M419.43,301.94l-3.22-1.86c-1.19-.69-3.12-.69-4.31,0l-11.84,6.88c-1.19,.69-1.18,1.81,.01,2.5l3.22,1.86c1.2,.69,3.12,.69,4.31,0l11.84-6.88c1.19-.69,1.19-1.81-.01-2.5h0Z"/><path class="cls-4" d="M428.13,306.97l-3.21-1.85c-1.2-.69-3.13-.7-4.32,0l-11.84,6.88c-1.19,.69-1.18,1.81,.02,2.5l3.21,1.85c1.2,.69,3.13,.7,4.32,0l11.84-6.88c1.19-.69,1.18-1.81-.02-2.5h0Z"/><path class="cls-4" d="M352.19,307.53l-11.92-6.88c-1.2-.69-3.13-.7-4.32,0l-11.84,6.88c-1.19,.69-1.18,1.81,.02,2.5l11.92,6.88c1.2,.69,3.12,.69,4.31,0l11.84-6.88c1.19-.69,1.19-1.81-.01-2.5h0Z"/><path class="cls-4" d="M370.75,296.74l-11.92-6.88c-1.2-.69-3.13-.7-4.32,0l-11.84,6.88c-1.19,.69-1.18,1.81,.02,2.5l11.92,6.88c1.2,.69,3.12,.69,4.31,0l11.84-6.88c1.19-.69,1.19-1.81-.01-2.5h0Z"/><path class="cls-4" d="M371.12,318.46l-11.93-6.89c-1.19-.69-3.12-.69-4.31,0l-11.84,6.88c-1.19,.69-1.18,1.81,.01,2.5l11.93,6.89c1.19,.69,3.12,.69,4.31,0l11.84-6.88c1.19-.69,1.18-1.81-.01-2.5h0Z"/><path class="cls-4" d="M389.69,307.67l-11.93-6.89c-1.19-.69-3.12-.69-4.31,0l-11.84,6.88c-1.19,.69-1.18,1.81,.01,2.5l11.93,6.89c1.19,.69,3.12,.69,4.31,0l11.84-6.88c1.19-.69,1.18-1.81-.01-2.5h0Z"/><path class="cls-4" d="M408.25,296.88l-11.93-6.89c-1.19-.69-3.12-.69-4.31,0l-11.84,6.88c-1.19,.69-1.18,1.81,.01,2.5l11.93,6.89c1.19,.69,3.12,.69,4.31,0l11.84-6.88c1.19-.69,1.18-1.81-.01-2.5h0Z"/><path class="cls-4" d="M428.48,285.13l-11.93-6.89c-1.19-.69-3.13-.69-4.32,0l-13.5,7.85c-1.19,.69-1.18,1.81,.01,2.5l11.93,6.89c1.19,.69,3.12,.69,4.31,0l13.5-7.85c1.19-.69,1.19-1.82,0-2.5h0Z"/><path class="cls-4" d="M315.06,329.1l-11.92-6.88c-1.2-.69-3.13-.7-4.32,0l-11.84,6.88c-1.19,.69-1.18,1.81,.02,2.5l11.92,6.88c1.2,.69,3.12,.69,4.31,0l11.84-6.88c1.19-.69,1.19-1.81-.01-2.5h0Z"/><path class="cls-4" d="M333.62,318.32l-11.92-6.88c-1.2-.69-3.13-.7-4.32,0l-11.84,6.88c-1.19,.69-1.18,1.81,.02,2.5l11.92,6.88c1.2,.69,3.12,.69,4.31,0l11.84-6.88c1.19-.69,1.19-1.81-.01-2.5h0Z"/><path class="cls-4" d="M333.99,340.04l-11.93-6.89c-1.19-.69-3.12-.69-4.31,0l-11.84,6.88c-1.19,.69-1.18,1.81,.01,2.5l11.93,6.89c1.19,.69,3.12,.69,4.31,0l11.84-6.88c1.19-.69,1.18-1.81-.01-2.5h0Z"/><path class="cls-4" d="M352.56,329.25l-11.93-6.89c-1.19-.69-3.12-.69-4.31,0l-11.84,6.88c-1.19,.69-1.18,1.81,.01,2.5l11.93,6.89c1.19,.69,3.12,.69,4.31,0l11.84-6.88c1.19-.69,1.18-1.81-.01-2.5h0Z"/><path class="cls-4" d="M277.94,350.67l-11.92-6.88c-1.2-.69-3.14-.69-4.33,0l-11.84,6.88c-1.19,.69-1.18,1.81,.02,2.5l11.92,6.88c1.2,.69,3.12,.69,4.31,0l11.84-6.88c1.19-.69,1.19-1.81,0-2.5h0Z"/><path class="cls-4" d="M296.5,339.89l-11.92-6.88c-1.2-.69-3.14-.69-4.33,0l-11.84,6.88c-1.19,.69-1.18,1.81,.02,2.5l11.92,6.88c1.2,.69,3.12,.69,4.31,0l11.84-6.88c1.19-.69,1.19-1.81,0-2.5h0Z"/><path class="cls-4" d="M296.88,361.61l-11.93-6.89c-1.19-.69-3.13-.69-4.32,0l-11.84,6.88c-1.19,.69-1.18,1.81,.01,2.5l11.93,6.89c1.19,.69,3.12,.69,4.31,0l11.84-6.88c1.19-.69,1.19-1.82,0-2.5h0Z"/><path class="cls-4" d="M315.44,350.82l-11.93-6.89c-1.19-.69-3.13-.69-4.32,0l-11.84,6.88c-1.19,.69-1.18,1.81,.01,2.5l11.93,6.89c1.19,.69,3.12,.69,4.31,0l11.84-6.88c1.19-.69,1.19-1.82,0-2.5h0Z"/><path class="cls-4" d="M240.81,372.25l-11.92-6.88c-1.2-.69-3.14-.69-4.33,0l-11.84,6.88c-1.19,.69-1.18,1.81,.02,2.5l11.92,6.88c1.2,.69,3.12,.69,4.31,0l11.84-6.88c1.19-.69,1.19-1.81,0-2.5h0Z"/><path class="cls-4" d="M259.38,361.46l-11.92-6.88c-1.2-.69-3.14-.69-4.33,0l-11.84,6.88c-1.19,.69-1.18,1.81,.02,2.5l11.92,6.88c1.2,.69,3.12,.69,4.31,0l11.84-6.88c1.19-.69,1.19-1.81,0-2.5h0Z"/><path class="cls-4" d="M259.75,383.18l-11.93-6.89c-1.19-.69-3.13-.69-4.32,0l-11.84,6.88c-1.19,.69-1.18,1.81,.01,2.5l11.93,6.89c1.19,.69,3.12,.69,4.31,0l11.84-6.88c1.19-.69,1.19-1.82,0-2.5h0Z"/><path class="cls-4" d="M278.31,372.4l-11.93-6.89c-1.19-.69-3.13-.69-4.32,0l-11.84,6.88c-1.19,.69-1.18,1.81,.01,2.5l11.93,6.89c1.19,.69,3.12,.69,4.31,0l11.84-6.88c1.19-.69,1.19-1.82,0-2.5h0Z"/><path class="cls-4" d="M203.68,393.83l-11.92-6.88c-1.2-.69-3.14-.69-4.33,0l-11.84,6.88c-1.18,.69-1.18,1.81,.02,2.5l11.92,6.88c1.2,.69,3.13,.69,4.31,0l11.84-6.88c1.19-.69,1.19-1.81,0-2.5h0Z"/><path class="cls-4" d="M222.25,383.04l-11.92-6.88c-1.2-.69-3.14-.69-4.33,0l-11.84,6.88c-1.19,.69-1.18,1.81,.02,2.5l11.92,6.88c1.2,.69,3.12,.69,4.31,0l11.84-6.88c1.19-.69,1.19-1.81,0-2.5h0Z"/><path class="cls-4" d="M222.62,404.76l-11.93-6.89c-1.19-.69-3.13-.69-4.32,0l-11.84,6.88c-1.18,.69-1.18,1.81,.01,2.5l11.93,6.89c1.19,.69,3.13,.69,4.31,0l11.84-6.88c1.19-.69,1.19-1.82,0-2.5h0Z"/><path class="cls-4" d="M241.18,393.97l-11.93-6.89c-1.19-.69-3.13-.69-4.32,0l-11.84,6.88c-1.19,.69-1.18,1.81,.01,2.5l11.93,6.89c1.19,.69,3.12,.69,4.31,0l11.84-6.88c1.19-.69,1.19-1.82,0-2.5h0Z"/><path class="cls-4" d="M391.01,328.54l-11.92-6.88c-1.19-.69-3.13-.69-4.32,0l-11.84,6.88c-1.19,.69-1.18,1.81,.01,2.5l11.92,6.88c1.2,.69,3.13,.7,4.32,0l11.84-6.88c1.19-.69,1.18-1.82-.01-2.51h0Z"/><path class="cls-4" d="M409.57,317.75l-11.92-6.88c-1.19-.69-3.12-.69-4.31,0l-11.84,6.88c-1.19,.69-1.18,1.81,.01,2.5l11.92,6.88c1.2,.69,3.13,.7,4.32,0l11.84-6.88c1.19-.69,1.18-1.81-.02-2.5h0Z"/><path class="cls-4" d="M447.16,295.91l-11.92-6.88c-1.19-.69-3.13-.69-4.32,0l-11.84,6.88c-1.18,.69-1.18,1.81,.01,2.5l11.92,6.88c1.2,.69,3.14,.69,4.32,0l11.84-6.88c1.19-.69,1.18-1.82-.01-2.51h0Z"/></g></g></g></svg>