<svg width="16" height="16" viewBox="0 0 16 16" fill="none" xmlns="http://www.w3.org/2000/svg">
<path d="M7.99987 0.5C3.85777 0.5 0.5 3.88326 0.5 8.05557C0.5 11.7879 3.18702 14.8876 6.71866 15.5C6.71866 15.3657 6.71866 15.2314 6.71866 15.0968C6.71866 14.8513 6.71866 14.6059 6.71866 14.3604C6.71866 14.3286 6.72517 14.2961 6.71016 14.2659C6.68528 14.2567 6.65797 14.2567 6.6331 14.2659C6.40827 14.3128 6.17819 14.3289 5.94909 14.3138C5.28509 14.2697 4.77321 13.9688 4.4332 13.3869C4.41093 13.3491 4.39217 13.3095 4.37341 13.2699C4.21402 12.9285 4.01353 12.608 3.77646 12.3158C3.72654 12.2512 3.66543 12.1962 3.59607 12.1535C3.54199 12.1195 3.49093 12.0808 3.44346 12.0379C3.42209 12.0183 3.40416 11.9952 3.39042 11.9696C3.38605 11.9635 3.38309 11.9565 3.38175 11.9491C3.38041 11.9417 3.38072 11.9341 3.38266 11.9269C3.3846 11.9197 3.38813 11.9129 3.39297 11.9072C3.39782 11.9015 3.40387 11.897 3.41068 11.894C3.42823 11.8839 3.44722 11.8766 3.46698 11.8723C3.4982 11.8655 3.5299 11.8612 3.5618 11.8594C3.89455 11.8448 4.18401 11.9471 4.42419 12.1833C4.52832 12.2853 4.61776 12.4015 4.68989 12.5285C4.78506 12.6997 4.9087 12.8531 5.05542 12.9821C5.27144 13.1712 5.53783 13.2921 5.82149 13.3299C6.09232 13.3703 6.36879 13.3456 6.62835 13.2578C6.65812 13.2478 6.68664 13.2342 6.71291 13.2233C6.73968 12.8597 6.81148 12.5177 7.02965 12.2196C7.01789 12.1984 6.99487 12.2054 6.97736 12.2004C6.96036 12.1965 6.94315 12.1937 6.92582 12.1918C6.53414 12.1408 6.15296 12.0276 5.79647 11.8564C5.50462 11.7171 5.24043 11.5254 5.01689 11.2906C4.71779 10.9726 4.51203 10.5772 4.42244 10.1485C4.37423 9.93475 4.35089 9.71604 4.35289 9.49682C4.35639 9.2748 4.35964 9.05253 4.37341 8.83101C4.38773 8.53909 4.43225 8.24947 4.50625 7.96686C4.58351 7.66848 4.73907 7.39654 4.95659 7.17957C4.97936 7.1574 5.00088 7.13396 5.02589 7.10775C4.89666 6.81164 4.84036 6.48847 4.86177 6.16573C4.88404 5.84694 4.96935 5.56746 5.03991 5.41474C5.05553 5.41215 5.07137 5.41114 5.08719 5.41171C5.20295 5.4273 5.31533 5.46222 5.41969 5.51504C5.61569 5.61069 5.79459 5.73843 5.94909 5.89305C6.08785 6.03014 6.2135 6.18008 6.32437 6.34088C6.34088 6.36457 6.35814 6.38775 6.38066 6.41875C6.55254 6.27384 6.75294 6.21563 6.95834 6.17254C7.15765 6.13333 7.35948 6.10857 7.5623 6.09844C7.77396 6.08534 7.98561 6.08433 8.19727 6.08484C8.41788 6.08495 8.63831 6.09757 8.85752 6.12264C8.99275 6.13864 9.12704 6.16186 9.25982 6.19219C9.4362 6.23201 9.60533 6.293 9.74869 6.41547C9.77163 6.39707 9.79054 6.37407 9.80423 6.34794C9.94277 6.14554 10.1055 5.96111 10.2888 5.7988C10.4388 5.66463 10.6099 5.55663 10.7952 5.47925C10.8782 5.44407 10.9656 5.42066 11.0549 5.4097C11.0656 5.40907 11.0763 5.40907 11.0869 5.4097C11.1783 5.55611 11.2676 5.95505 11.2756 6.26024C11.283 6.55068 11.2261 6.83914 11.1092 7.10473C11.1295 7.1269 11.1462 7.14707 11.1647 7.16496C11.4179 7.40916 11.5708 7.7088 11.6509 8.04952C11.692 8.22886 11.7221 8.41056 11.7412 8.59361C11.7702 8.88199 11.7843 9.17169 11.7835 9.46154C11.7905 9.80127 11.7373 10.1395 11.6266 10.4605C11.4673 10.9128 11.1751 11.3056 10.789 11.5868C10.4865 11.8113 10.15 11.9648 9.79072 12.0699C9.59603 12.1277 9.39709 12.1698 9.19577 12.1959C9.167 12.1997 9.13873 12.2065 9.10821 12.212C9.10895 12.2207 9.11124 12.2293 9.11496 12.2372C9.17977 12.3201 9.23088 12.4129 9.26632 12.5121C9.34517 12.7166 9.39641 12.9308 9.41869 13.149C9.42186 13.1869 9.42303 13.2249 9.42219 13.2629C9.42219 13.9999 9.42219 14.7371 9.42219 15.4743C12.8843 14.8044 15.5 11.738 15.5 8.05557C15.5 3.88326 12.1422 0.5 7.99987 0.5Z" fill="#F1F3F5"/>
</svg>
