<svg width="400" height="400" viewBox="0 0 400 400" fill="none" xmlns="http://www.w3.org/2000/svg">
<path d="M303.59 86.6895H96.4103V275.085H303.59V86.6895Z" fill="white"/>
<path fill-rule="evenodd" clip-rule="evenodd" d="M352.137 200C352.137 284.069 284.024 352.218 200 352.218C115.977 352.218 47.8633 284.069 47.8633 200C47.8633 115.932 115.977 47.7815 200 47.7815C284.024 47.7815 352.137 115.932 352.137 200ZM156.889 260.575H127.363C121.159 260.575 118.095 260.575 116.226 259.379C114.208 258.07 112.974 255.901 112.825 253.507C112.713 251.302 114.245 248.609 117.31 243.224L190.212 114.655C193.314 109.196 194.883 106.466 196.864 105.456C198.995 104.372 201.536 104.372 203.667 105.456C205.647 106.466 207.217 109.196 210.319 114.655L225.306 140.831L225.383 140.965C228.733 146.822 230.432 149.792 231.174 152.909C231.996 156.312 231.996 159.902 231.174 163.305C230.426 166.446 228.745 169.438 225.343 175.383L187.05 243.112L186.951 243.285C183.578 249.191 181.869 252.184 179.5 254.442C176.921 256.911 173.819 258.704 170.418 259.716C167.316 260.575 163.84 260.575 156.889 260.575ZM231.45 260.575H273.757C279.998 260.575 283.138 260.575 285.008 259.343C287.026 258.033 288.296 255.826 288.41 253.434C288.517 251.3 287.018 248.712 284.08 243.64C283.979 243.467 283.878 243.292 283.775 243.113L262.583 206.841L262.342 206.432C259.364 201.394 257.861 198.849 255.93 197.866C253.801 196.781 251.295 196.781 249.166 197.866C247.222 198.876 245.653 201.531 242.551 206.878L221.434 243.15L221.362 243.275C218.271 248.614 216.726 251.282 216.837 253.471C216.987 255.865 218.22 258.07 220.238 259.379C222.07 260.575 225.209 260.575 231.45 260.575Z" fill="#E84142"/>
</svg>
