<svg width="400" height="400" viewBox="0 0 400 400" fill="none" xmlns="http://www.w3.org/2000/svg">
<path d="M109.019 88.279L195.719 38.23L282.418 88.279L250.543 106.768L195.719 75.2089L140.894 106.768L109.019 88.279ZM282.418 151.398L250.543 132.909L195.719 164.468L140.894 132.909L109.019 151.398V188.377L163.844 219.936V283.055L195.719 301.545L227.594 283.055V219.936L282.418 188.377V151.398ZM282.418 251.496V214.517L250.543 233.006V269.985L282.418 251.496ZM305.049 264.566L250.224 296.125V333.104L336.924 283.055V182.957L305.049 201.447V264.566ZM273.175 119.839L305.049 138.328V175.307L336.924 156.817V119.839L305.049 101.349L273.175 119.839ZM163.844 309.515V346.494L195.719 364.983L227.594 346.494V309.515L195.719 328.004L163.844 309.515ZM109.019 251.496L140.894 269.985V233.006L109.019 214.517V251.496ZM163.844 119.839L195.719 138.328L227.594 119.839L195.719 101.349L163.844 119.839ZM86.388 138.328L118.263 119.839L86.388 101.349L54.5133 119.839V156.817L86.388 175.307V138.328ZM86.388 201.447L54.5133 182.957V283.055L141.212 333.104V296.125L86.388 264.566V201.447Z" fill="#F0B90B"/>
</svg>
